font.ufo
<glyph name="exclam" format="1">
  <advance width="352"/>
  <unicode hex="0021"/>
  <outline>
    <contour>
      <point x="69" y="622" type="line"/>
      <point x="102" y="209" type="line"/>
      <point x="251" y="209" type="line"/>
      <point x="283" y="622" type="line"/>
    </contour>
    <contour>
      <point x="77" y="0" type="line"/>
      <point x="275" y="0" type="line"/>
      <point x="275" y="137" type="line"/>
      <point x="77" y="137" type="line"/>
    </contour>
  </outline>
</glyph>
<glyph name="quotedbl" format="1">
  <advance width="504"/>
  <unicode hex="0022"/>
  <outline>
    <contour>
      <point x="54" y="622" type="line"/>
      <point x="54" y="372" type="line"/>
      <point x="219" y="372" type="line"/>
      <point x="219" y="622" type="line"/>
    </contour>
    <contour>
      <point x="285" y="622" type="line"/>
      <point x="285" y="372" type="line"/>
      <point x="450" y="372" type="line"/>
      <point x="450" y="622" type="line"/>
    </contour>
  </outline>
</glyph>
<glyph name="numbersign" format="1">
  <advance width="951"/>
  <unicode hex="0023"/>
  <outline>
    <contour>
      <point x="329" y="622" type="line"/>
      <point x="124" y="0" type="line"/>
      <point x="282" y="0" type="line"/>
      <point x="486" y="622" type="line"/>
    </contour>
    <contour>
      <point x="903" y="475" type="line"/>
      <point x="106" y="475" type="line"/>
      <point x="106" y="384" type="line"/>
      <point x="903" y="384" type="line"/>
    </contour>
    <contour>
      <point x="629" y="0" type="line"/>
      <point x="834" y="622" type="line"/>
      <point x="675" y="622" type="line"/>
      <point x="471" y="0" type="line"/>
    </contour>
    <contour>
      <point x="47" y="147" type="line"/>
      <point x="845" y="147" type="line"/>
      <point x="845" y="237" type="line"/>
      <point x="47" y="237" type="line"/>
    </contour>
  </outline>
</glyph>
<glyph name="dollar" format="1">
  <advance width="677"/>
  <unicode hex="0024"/>
  <outline>
    <contour>
      <point x="430" y="605" type="line"/>
      <point x="430" y="714" type="line"/>
      <point x="242" y="714" type="line"/>
      <point x="242" y="605" type="line"/>
    </contour>
    <contour>
      <point x="430" y="-90" type="line"/>
      <point x="430" y="19" type="line"/>
      <point x="242" y="19" type="line"/>
      <point x="242" y="-90" type="line"/>
    </contour>
    <contour>
      <point x="431" y="90" type="line"/>
      <point x="431" y="64"/>
      <point x="426" y="59"/>
      <point x="400" y="59" type="curve" smooth="yes"/>
      <point x="278" y="59" type="line" smooth="yes"/>
      <point x="252" y="59"/>
      <point x="247" y="64"/>
      <point x="247" y="90" type="curve" smooth="yes"/>
      <point x="247" y="189" type="line"/>
      <point x="58" y="189" type="line"/>
      <point x="58" y="79" type="line" smooth="yes"/>
      <point x="58" y="26"/>
      <point x="84" y="0"/>
      <point x="137" y="0" type="curve" smooth="yes"/>
      <point x="540" y="0" type="line" smooth="yes"/>
      <point x="593" y="0"/>
      <point x="619" y="26"/>
      <point x="619" y="79" type="curve" smooth="yes"/>
      <point x="619" y="264" type="line" smooth="yes"/>
      <point x="619" y="317"/>
      <point x="593" y="343"/>
      <point x="540" y="343" type="curve" smooth="yes"/>
      <point x="275" y="343" type="line" smooth="yes"/>
      <point x="249" y="343"/>
      <point x="244" y="348"/>
      <point x="244" y="374" type="curve" smooth="yes"/>
      <point x="244" y="532" type="line" smooth="yes"/>
      <point x="244" y="558"/>
      <point x="249" y="563"/>
      <point x="275" y="563" type="curve" smooth="yes"/>
      <point x="396" y="563" type="line" smooth="yes"/>
      <point x="422" y="563"/>
      <point x="427" y="558"/>
      <point x="427" y="532" type="curve" smooth="yes"/>
      <point x="427" y="433" type="line"/>
      <point x="616" y="433" type="line"/>
      <point x="616" y="543" type="line" smooth="yes"/>
      <point x="616" y="596"/>
      <point x="590" y="622"/>
      <point x="537" y="622" type="curve" smooth="yes"/>
      <point x="134" y="622" type="line" smooth="yes"/>
      <point x="81" y="622"/>
      <point x="55" y="596"/>
      <point x="55" y="543" type="curve" smooth="yes"/>
      <point x="55" y="363" type="line" smooth="yes"/>
      <point x="55" y="310"/>
      <point x="81" y="284"/>
      <point x="134" y="284" type="curve" smooth="yes"/>
      <point x="400" y="284" type="line" smooth="yes"/>
      <point x="426" y="284"/>
      <point x="431" y="279"/>
      <point x="431" y="253" type="curve" smooth="yes"/>
    </contour>
  </outline>
</glyph>
<glyph name="percent" format="1">
  <advance width="1195"/>
  <unicode hex="0025"/>
  <outline>
    <contour>
      <point x="1154" y="302" type="line"/>
      <point x="1154" y="339"/>
      <point x="1137" y="358"/>
      <point x="1100" y="358" type="curve" smooth="yes"/>
      <point x="793" y="358" type="line" smooth="yes"/>
      <point x="756" y="358"/>
      <point x="739" y="339"/>
      <point x="739" y="302" type="curve" smooth="yes"/>
      <point x="739" y="57" type="line" smooth="yes"/>
      <point x="739" y="19"/>
      <point x="756" y="1"/>
      <point x="793" y="1" type="curve" smooth="yes"/>
      <point x="1100" y="1" type="line" smooth="yes"/>
      <point x="1137" y="1"/>
      <point x="1154" y="19"/>
      <point x="1154" y="57" type="curve" smooth="yes"/>
    </contour>
    <contour>
      <point x="1012" y="71" type="line"/>
      <point x="1012" y="53"/>
      <point x="1009" y="49"/>
      <point x="990" y="49" type="curve" smooth="yes"/>
      <point x="903" y="49" type="line" smooth="yes"/>
      <point x="884" y="49"/>
      <point x="881" y="53"/>
      <point x="881" y="71" type="curve" smooth="yes"/>
      <point x="881" y="287" type="line" smooth="yes"/>
      <point x="881" y="306"/>
      <point x="884" y="309"/>
      <point x="903" y="309" type="curve" smooth="yes"/>
      <point x="990" y="309" type="line" smooth="yes"/>
      <point x="1009" y="309"/>
      <point x="1012" y="306"/>
      <point x="1012" y="287" type="curve" smooth="yes"/>
    </contour>
    <contour>
      <point x="759" y="622" type="line"/>
      <point x="291" y="0" type="line"/>
      <point x="433" y="0" type="line"/>
      <point x="903" y="622" type="line"/>
    </contour>
    <contour>
      <point x="456" y="566" type="line"/>
      <point x="456" y="603"/>
      <point x="439" y="622"/>
      <point x="402" y="622" type="curve" smooth="yes"/>
      <point x="95" y="622" type="line" smooth="yes"/>
      <point x="59" y="622"/>
      <point x="41" y="603"/>
      <point x="41" y="566" type="curve" smooth="yes"/>
      <point x="41" y="321" type="line" smooth="yes"/>
      <point x="41" y="283"/>
      <point x="59" y="265"/>
      <point x="95" y="265" type="curve" smooth="yes"/>
      <point x="402" y="265" type="line" smooth="yes"/>
      <point x="439" y="265"/>
      <point x="456" y="283"/>
      <point x="456" y="321" type="curve" smooth="yes"/>
    </contour>
    <contour>
      <point x="315" y="335" type="line"/>
      <point x="315" y="317"/>
      <point x="312" y="313"/>
      <point x="293" y="313" type="curve" smooth="yes"/>
      <point x="205" y="313" type="line" smooth="yes"/>
      <point x="187" y="313"/>
      <point x="184" y="317"/>
      <point x="184" y="335" type="curve" smooth="yes"/>
      <point x="184" y="551" type="line" smooth="yes"/>
      <point x="184" y="570"/>
      <point x="187" y="573"/>
      <point x="205" y="573" type="curve" smooth="yes"/>
      <point x="293" y="573" type="line" smooth="yes"/>
      <point x="312" y="573"/>
      <point x="315" y="570"/>
      <point x="315" y="551" type="curve" smooth="yes"/>
    </contour>
  </outline>
</glyph>
<glyph name="ampersand" format="1">
  <advance width="872"/>
  <unicode hex="0026"/>
  <outline>
    <contour>
      <point x="849" y="-45" type="line"/>
      <point x="409" y="324" type="line" smooth="yes"/>
      <point x="333" y="388"/>
      <point x="309" y="405"/>
      <point x="309" y="452" type="curve" smooth="yes"/>
      <point x="309" y="532" type="line" smooth="yes"/>
      <point x="309" y="558"/>
      <point x="314" y="563"/>
      <point x="340" y="563" type="curve" smooth="yes"/>
      <point x="446" y="563" type="line" smooth="yes"/>
      <point x="472" y="563"/>
      <point x="477" y="558"/>
      <point x="477" y="532" type="curve" smooth="yes"/>
      <point x="477" y="427" type="line" smooth="yes"/>
      <point x="477" y="396"/>
      <point x="457" y="382"/>
      <point x="410" y="365" type="curve" smooth="yes"/>
      <point x="167" y="277" type="line" smooth="yes"/>
      <point x="85" y="249"/>
      <point x="58" y="225"/>
      <point x="58" y="165" type="curve" smooth="yes"/>
      <point x="58" y="79" type="line" smooth="yes"/>
      <point x="58" y="26"/>
      <point x="84" y="0"/>
      <point x="137" y="0" type="curve" smooth="yes"/>
      <point x="732" y="0" type="line" smooth="yes"/>
      <point x="792" y="0"/>
      <point x="824" y="33"/>
      <point x="824" y="92" type="curve" smooth="yes"/>
      <point x="824" y="237" type="line"/>
      <point x="675" y="237" type="line"/>
      <point x="675" y="90" type="line" smooth="yes"/>
      <point x="675" y="64"/>
      <point x="670" y="59"/>
      <point x="644" y="59" type="curve" smooth="yes"/>
      <point x="272" y="59" type="line" smooth="yes"/>
      <point x="246" y="59"/>
      <point x="241" y="64"/>
      <point x="241" y="90" type="curve" smooth="yes"/>
      <point x="241" y="169" type="line" smooth="yes"/>
      <point x="241" y="194"/>
      <point x="251" y="206"/>
      <point x="278" y="216" type="curve" smooth="yes"/>
      <point x="533" y="310" type="line" smooth="yes"/>
      <point x="615" y="340"/>
      <point x="661" y="371"/>
      <point x="661" y="446" type="curve" smooth="yes"/>
      <point x="661" y="543" type="line" smooth="yes"/>
      <point x="661" y="596"/>
      <point x="635" y="622"/>
      <point x="582" y="622" type="curve" smooth="yes"/>
      <point x="204" y="622" type="line" smooth="yes"/>
      <point x="151" y="622"/>
      <point x="125" y="596"/>
      <point x="125" y="543" type="curve" smooth="yes"/>
      <point x="125" y="446" type="line" smooth="yes"/>
      <point x="125" y="381"/>
      <point x="160" y="356"/>
      <point x="236" y="292" type="curve" smooth="yes"/>
      <point x="636" y="-45" type="line"/>
    </contour>
  </outline>
</glyph>
<glyph name="quotesingle" format="1">
  <advance width="274"/>
  <unicode hex="0027"/>
  <outline>
    <contour>
      <point x="54" y="622" type="line"/>
      <point x="54" y="372" type="line"/>
      <point x="221" y="372" type="line"/>
      <point x="221" y="622" type="line"/>
    </contour>
  </outline>
</glyph>
<glyph name="parenleft" format="1">
  <advance width="373"/>
  <unicode hex="0028"/>
  <outline>
    <contour>
      <point x="68" y="386" type="line"/>
      <point x="68" y="610"/>
      <point x="191" y="718"/>
      <point x="389" y="718" type="curve" smooth="yes"/>
      <point x="430" y="718" type="line"/>
      <point x="430" y="659" type="line"/>
      <point x="411" y="659" type="line" smooth="yes"/>
      <point x="304" y="657"/>
      <point x="261" y="567"/>
      <point x="261" y="418" type="curve" smooth="yes"/>
      <point x="261" y="80" type="line" smooth="yes"/>
      <point x="261" y="-69"/>
      <point x="304" y="-158"/>
      <point x="411" y="-161" type="curve" smooth="yes"/>
      <point x="430" y="-161" type="line"/>
      <point x="430" y="-220" type="line"/>
      <point x="389" y="-220" type="line" smooth="yes"/>
      <point x="191" y="-220"/>
      <point x="68" y="-111"/>
      <point x="68" y="113" type="curve" smooth="yes"/>
    </contour>
  </outline>
</glyph>
<glyph name="parenright" format="1">
  <advance width="373"/>
  <unicode hex="0029"/>
  <outline>
    <contour>
      <point x="305" y="113" type="line"/>
      <point x="305" y="-111"/>
      <point x="182" y="-220"/>
      <point x="-17" y="-220" type="curve" smooth="yes"/>
      <point x="-57" y="-220" type="line"/>
      <point x="-57" y="-161" type="line"/>
      <point x="-38" y="-161" type="line"/>
      <point x="68" y="-158"/>
      <point x="112" y="-69"/>
      <point x="112" y="80" type="curve" smooth="yes"/>
      <point x="112" y="418" type="line" smooth="yes"/>
      <point x="112" y="567"/>
      <point x="68" y="657"/>
      <point x="-38" y="659" type="curve"/>
      <point x="-57" y="659" type="line"/>
      <point x="-57" y="718" type="line"/>
      <point x="-17" y="718" type="line" smooth="yes"/>
      <point x="182" y="718"/>
      <point x="305" y="610"/>
      <point x="305" y="386" type="curve" smooth="yes"/>
    </contour>
  </outline>
</glyph>
<glyph name="asterisk" format="1">
  <advance width="561"/>
  <unicode hex="002A"/>
  <outline>
    <contour>
      <point x="215" y="662" type="line"/>
      <point x="215" y="601" type="line" smooth="yes"/>
      <point x="215" y="570"/>
      <point x="221" y="541"/>
      <point x="230" y="516" type="curve"/>
      <point x="208" y="533"/>
      <point x="181" y="550"/>
      <point x="152" y="560" type="curve" smooth="yes"/>
      <point x="94" y="579" type="line"/>
      <point x="51" y="448" type="line"/>
      <point x="109" y="429" type="line" smooth="yes"/>
      <point x="137" y="420"/>
      <point x="167" y="417"/>
      <point x="195" y="416" type="curve"/>
      <point x="172" y="401"/>
      <point x="147" y="381"/>
      <point x="129" y="356" type="curve" smooth="yes"/>
      <point x="93" y="307" type="line"/>
      <point x="204" y="226" type="line"/>
      <point x="240" y="275" type="line" smooth="yes"/>
      <point x="258" y="300"/>
      <point x="270" y="328"/>
      <point x="278" y="353" type="curve"/>
      <point x="285" y="327"/>
      <point x="297" y="297"/>
      <point x="315" y="271" type="curve" smooth="yes"/>
      <point x="351" y="221" type="line"/>
      <point x="462" y="303" type="line"/>
      <point x="426" y="352" type="line" smooth="yes"/>
      <point x="409" y="377"/>
      <point x="386" y="397"/>
      <point x="365" y="412" type="curve"/>
      <point x="392" y="410"/>
      <point x="423" y="412"/>
      <point x="453" y="422" type="curve" smooth="yes"/>
      <point x="512" y="441" type="line"/>
      <point x="468" y="572" type="line"/>
      <point x="411" y="553" type="line" smooth="yes"/>
      <point x="382" y="543"/>
      <point x="356" y="528"/>
      <point x="335" y="513" type="curve"/>
      <point x="345" y="539"/>
      <point x="352" y="569"/>
      <point x="352" y="601" type="curve" smooth="yes"/>
      <point x="352" y="662" type="line"/>
    </contour>
  </outline>
</glyph>
<glyph name="plus" format="1">
  <advance width="717"/>
  <unicode hex="002B"/>
  <outline>
    <contour>
      <point x="54" y="253" type="line"/>
      <point x="663" y="253" type="line"/>
      <point x="663" y="367" type="line"/>
      <point x="54" y="367" type="line"/>
    </contour>
    <contour>
      <point x="270" y="514" type="line"/>
      <point x="270" y="106" type="line"/>
      <point x="447" y="106" type="line"/>
      <point x="447" y="514" type="line"/>
    </contour>
  </outline>
</glyph>
<glyph name="comma" format="1">
  <advance width="304"/>
  <unicode hex="002C"/>
  <outline>
    <contour>
      <point x="57" y="150" type="line"/>
      <point x="254" y="150" type="line"/>
      <point x="254" y="66" type="line"/>
      <point x="122" y="-140" type="line"/>
      <point x="57" y="-140" type="line"/>
    </contour>
  </outline>
</glyph>
<glyph name="hyphen" format="1">
  <advance width="432"/>
  <unicode hex="002D"/>
  <outline>
    <contour>
      <point x="57" y="242" type="line"/>
      <point x="375" y="242" type="line"/>
      <point x="375" y="301" type="line"/>
      <point x="57" y="301" type="line"/>
    </contour>
  </outline>
</glyph>
<glyph name="period" format="1">
  <advance width="311"/>
  <unicode hex="002E"/>
  <outline>
    <contour>
      <point x="57" y="0" type="line"/>
      <point x="254" y="0" type="line"/>
      <point x="254" y="137" type="line"/>
      <point x="57" y="137" type="line"/>
    </contour>
  </outline>
</glyph>
<glyph name="slash" format="1">
  <advance width="486"/>
  <unicode hex="002F"/>
  <outline>
    <contour>
      <point x="397" y="699" type="line"/>
      <point x="-27" y="-136" type="line"/>
      <point x="134" y="-136" type="line"/>
      <point x="558" y="699" type="line"/>
    </contour>
  </outline>
</glyph>
<glyph name="zero" format="1">
  <advance width="709"/>
  <unicode hex="0030"/>
  <outline>
    <contour>
      <point x="641" y="543" type="line"/>
      <point x="641" y="596"/>
      <point x="615" y="622"/>
      <point x="562" y="622" type="curve" smooth="yes"/>
      <point x="147" y="622" type="line" smooth="yes"/>
      <point x="94" y="622"/>
      <point x="68" y="596"/>
      <point x="68" y="543" type="curve" smooth="yes"/>
      <point x="68" y="79" type="line" smooth="yes"/>
      <point x="68" y="26"/>
      <point x="94" y="0"/>
      <point x="147" y="0" type="curve" smooth="yes"/>
      <point x="562" y="0" type="line" smooth="yes"/>
      <point x="615" y="0"/>
      <point x="641" y="26"/>
      <point x="641" y="79" type="curve" smooth="yes"/>
    </contour>
    <contour>
      <point x="448" y="90" type="line"/>
      <point x="448" y="64"/>
      <point x="443" y="59"/>
      <point x="417" y="59" type="curve" smooth="yes"/>
      <point x="293" y="59" type="line" smooth="yes"/>
      <point x="267" y="59"/>
      <point x="262" y="64"/>
      <point x="262" y="90" type="curve" smooth="yes"/>
      <point x="262" y="532" type="line" smooth="yes"/>
      <point x="262" y="558"/>
      <point x="267" y="563"/>
      <point x="293" y="563" type="curve" smooth="yes"/>
      <point x="417" y="563" type="line" smooth="yes"/>
      <point x="443" y="563"/>
      <point x="448" y="558"/>
      <point x="448" y="532" type="curve" smooth="yes"/>
    </contour>
  </outline>
</glyph>
<glyph name="one" format="1">
  <advance width="411"/>
  <unicode hex="0031"/>
  <outline>
    <contour>
      <point x="263" y="622" type="line"/>
      <point x="17" y="622" type="line"/>
      <point x="17" y="563" type="line"/>
      <point x="263" y="563" type="line"/>
    </contour>
    <contour>
      <point x="144" y="622" type="line"/>
      <point x="144" y="0" type="line"/>
      <point x="344" y="0" type="line"/>
      <point x="344" y="622" type="line"/>
    </contour>
  </outline>
</glyph>
<glyph name="two" format="1">
  <advance width="661"/>
  <unicode hex="0032"/>
  <outline>
    <contour>
      <point x="244" y="532" type="line"/>
      <point x="244" y="558"/>
      <point x="249" y="563"/>
      <point x="275" y="563" type="curve" smooth="yes"/>
      <point x="394" y="563" type="line" smooth="yes"/>
      <point x="420" y="563"/>
      <point x="425" y="558"/>
      <point x="425" y="532" type="curve" smooth="yes"/>
      <point x="425" y="456" type="line" smooth="yes"/>
      <point x="425" y="411"/>
      <point x="411" y="389"/>
      <point x="372" y="353" type="curve" smooth="yes"/>
      <point x="48" y="59" type="line"/>
      <point x="48" y="0" type="line"/>
      <point x="620" y="0" type="line"/>
      <point x="620" y="59" type="line"/>
      <point x="298" y="59" type="line"/>
      <point x="553" y="289" type="line" smooth="yes"/>
      <point x="604" y="335"/>
      <point x="617" y="367"/>
      <point x="617" y="455" type="curve" smooth="yes"/>
      <point x="617" y="543" type="line" smooth="yes"/>
      <point x="617" y="596"/>
      <point x="591" y="622"/>
      <point x="538" y="622" type="curve" smooth="yes"/>
      <point x="128" y="622" type="line" smooth="yes"/>
      <point x="75" y="622"/>
      <point x="49" y="596"/>
      <point x="49" y="543" type="curve" smooth="yes"/>
      <point x="49" y="409" type="line"/>
      <point x="244" y="409" type="line"/>
    </contour>
  </outline>
</glyph>
<glyph name="three" format="1">
  <advance width="688"/>
  <unicode hex="0033"/>
  <outline>
    <contour>
      <point x="248" y="532" type="line"/>
      <point x="248" y="558"/>
      <point x="253" y="563"/>
      <point x="279" y="563" type="curve" smooth="yes"/>
      <point x="403" y="563" type="line" smooth="yes"/>
      <point x="429" y="563"/>
      <point x="434" y="558"/>
      <point x="434" y="532" type="curve" smooth="yes"/>
      <point x="434" y="376" type="line" smooth="yes"/>
      <point x="434" y="350"/>
      <point x="429" y="345"/>
      <point x="403" y="345" type="curve" smooth="yes"/>
      <point x="279" y="345" type="line"/>
      <point x="279" y="285" type="line"/>
      <point x="403" y="285" type="line" smooth="yes"/>
      <point x="429" y="285"/>
      <point x="434" y="280"/>
      <point x="434" y="254" type="curve" smooth="yes"/>
      <point x="434" y="90" type="line" smooth="yes"/>
      <point x="434" y="64"/>
      <point x="429" y="59"/>
      <point x="403" y="59" type="curve" smooth="yes"/>
      <point x="279" y="59" type="line" smooth="yes"/>
      <point x="253" y="59"/>
      <point x="248" y="64"/>
      <point x="248" y="90" type="curve" smooth="yes"/>
      <point x="248" y="198" type="line"/>
      <point x="55" y="198" type="line"/>
      <point x="55" y="79" type="line" smooth="yes"/>
      <point x="55" y="26"/>
      <point x="81" y="0"/>
      <point x="134" y="0" type="curve" smooth="yes"/>
      <point x="548" y="0" type="line" smooth="yes"/>
      <point x="601" y="0"/>
      <point x="627" y="26"/>
      <point x="627" y="79" type="curve" smooth="yes"/>
      <point x="627" y="249" type="line" smooth="yes"/>
      <point x="627" y="293"/>
      <point x="607" y="315"/>
      <point x="567" y="318" type="curve"/>
      <point x="607" y="320"/>
      <point x="627" y="343"/>
      <point x="627" y="387" type="curve" smooth="yes"/>
      <point x="627" y="543" type="line" smooth="yes"/>
      <point x="627" y="596"/>
      <point x="601" y="622"/>
      <point x="548" y="622" type="curve" smooth="yes"/>
      <point x="134" y="622" type="line" smooth="yes"/>
      <point x="81" y="622"/>
      <point x="55" y="596"/>
      <point x="55" y="543" type="curve" smooth="yes"/>
      <point x="55" y="423" type="line"/>
      <point x="248" y="423" type="line"/>
    </contour>
  </outline>
</glyph>
<glyph name="four" format="1">
  <advance width="702"/>
  <unicode hex="0034"/>
  <outline>
    <contour>
      <point x="83" y="101" type="line"/>
      <point x="688" y="101" type="line"/>
      <point x="688" y="160" type="line"/>
      <point x="83" y="160" type="line"/>
    </contour>
    <contour>
      <point x="27" y="101" type="line"/>
      <point x="182" y="101" type="line"/>
      <point x="498" y="622" type="line"/>
      <point x="300" y="622" type="line"/>
      <point x="27" y="186" type="line"/>
    </contour>
    <contour>
      <point x="408" y="328" type="line"/>
      <point x="408" y="0" type="line"/>
      <point x="590" y="0" type="line"/>
      <point x="590" y="328" type="line"/>
    </contour>
  </outline>
</glyph>
<glyph name="five" format="1">
  <advance width="672"/>
  <unicode hex="0035"/>
  <outline>
    <contour>
      <point x="258" y="210" type="line"/>
      <point x="65" y="210" type="line"/>
      <point x="65" y="79" type="line" smooth="yes"/>
      <point x="65" y="26"/>
      <point x="91" y="0"/>
      <point x="144" y="0" type="curve" smooth="yes"/>
      <point x="546" y="0" type="line" smooth="yes"/>
      <point x="599" y="0"/>
      <point x="625" y="26"/>
      <point x="625" y="79" type="curve" smooth="yes"/>
      <point x="625" y="300" type="line" smooth="yes"/>
      <point x="625" y="353"/>
      <point x="599" y="379"/>
      <point x="546" y="379" type="curve" smooth="yes"/>
      <point x="220" y="379" type="line"/>
      <point x="220" y="320" type="line"/>
      <point x="401" y="320" type="line" smooth="yes"/>
      <point x="427" y="320"/>
      <point x="432" y="315"/>
      <point x="432" y="289" type="curve" smooth="yes"/>
      <point x="432" y="90" type="line" smooth="yes"/>
      <point x="432" y="64"/>
      <point x="427" y="59"/>
      <point x="401" y="59" type="curve" smooth="yes"/>
      <point x="289" y="59" type="line" smooth="yes"/>
      <point x="263" y="59"/>
      <point x="258" y="64"/>
      <point x="258" y="90" type="curve" smooth="yes"/>
    </contour>
    <contour>
      <point x="273" y="320" type="line"/>
      <point x="273" y="563" type="line"/>
      <point x="613" y="563" type="line"/>
      <point x="613" y="622" type="line"/>
      <point x="73" y="622" type="line"/>
      <point x="73" y="320" type="line"/>
    </contour>
  </outline>
</glyph>
<glyph name="six" format="1">
  <advance width="687"/>
  <unicode hex="0036"/>
  <outline>
    <contour>
      <point x="433" y="212" type="line"/>
      <point x="433" y="90" type="line" smooth="yes"/>
      <point x="433" y="64"/>
      <point x="428" y="59"/>
      <point x="402" y="59" type="curve" smooth="yes"/>
      <point x="293" y="59" type="line" smooth="yes"/>
      <point x="267" y="59"/>
      <point x="262" y="64"/>
      <point x="262" y="90" type="curve" smooth="yes"/>
      <point x="262" y="532" type="line" smooth="yes"/>
      <point x="262" y="558"/>
      <point x="267" y="563"/>
      <point x="293" y="563" type="curve" smooth="yes"/>
      <point x="392" y="563" type="line" smooth="yes"/>
      <point x="418" y="563"/>
      <point x="423" y="558"/>
      <point x="423" y="532" type="curve" smooth="yes"/>
      <point x="423" y="430" type="line"/>
      <point x="616" y="430" type="line"/>
      <point x="616" y="543" type="line" smooth="yes"/>
      <point x="616" y="596"/>
      <point x="590" y="622"/>
      <point x="537" y="622" type="curve" smooth="yes"/>
      <point x="147" y="622" type="line" smooth="yes"/>
      <point x="94" y="622"/>
      <point x="68" y="596"/>
      <point x="68" y="543" type="curve" smooth="yes"/>
      <point x="68" y="79" type="line" smooth="yes"/>
      <point x="68" y="26"/>
      <point x="94" y="0"/>
      <point x="147" y="0" type="curve" smooth="yes"/>
      <point x="547" y="0" type="line" smooth="yes"/>
      <point x="600" y="0"/>
      <point x="626" y="26"/>
      <point x="626" y="79" type="curve" smooth="yes"/>
      <point x="626" y="212" type="line"/>
    </contour>
    <contour>
      <point x="626" y="174" type="line"/>
      <point x="626" y="281" type="line" smooth="yes"/>
      <point x="626" y="334"/>
      <point x="600" y="360"/>
      <point x="547" y="360" type="curve" smooth="yes"/>
      <point x="242" y="360" type="line"/>
      <point x="242" y="301" type="line"/>
      <point x="402" y="301" type="line" smooth="yes"/>
      <point x="428" y="301"/>
      <point x="433" y="296"/>
      <point x="433" y="270" type="curve" smooth="yes"/>
      <point x="433" y="174" type="line"/>
    </contour>
  </outline>
</glyph>
<glyph name="seven" format="1">
  <advance width="568"/>
  <unicode hex="0037"/>
  <outline>
    <contour>
      <point x="509" y="622" type="line"/>
      <point x="24" y="622" type="line"/>
      <point x="24" y="563" type="line"/>
      <point x="509" y="563" type="line"/>
    </contour>
    <contour>
      <point x="554" y="622" type="line"/>
      <point x="394" y="622" type="line"/>
      <point x="84" y="0" type="line"/>
      <point x="289" y="0" type="line"/>
      <point x="554" y="545" type="line"/>
    </contour>
  </outline>
</glyph>
<glyph name="eight" format="1">
  <advance width="688"/>
  <unicode hex="0038"/>
  <outline>
    <contour>
      <point x="144" y="622" type="line"/>
      <point x="91" y="622"/>
      <point x="65" y="596"/>
      <point x="65" y="543" type="curve" smooth="yes"/>
      <point x="65" y="383" type="line" smooth="yes"/>
      <point x="65" y="339"/>
      <point x="85" y="316"/>
      <point x="125" y="314" type="curve"/>
      <point x="85" y="311"/>
      <point x="65" y="289"/>
      <point x="65" y="245" type="curve" smooth="yes"/>
      <point x="65" y="79" type="line" smooth="yes"/>
      <point x="65" y="26"/>
      <point x="91" y="0"/>
      <point x="144" y="0" type="curve" smooth="yes"/>
      <point x="545" y="0" type="line" smooth="yes"/>
      <point x="598" y="0"/>
      <point x="624" y="26"/>
      <point x="624" y="79" type="curve" smooth="yes"/>
      <point x="624" y="245" type="line" smooth="yes"/>
      <point x="624" y="289"/>
      <point x="603" y="311"/>
      <point x="563" y="314" type="curve"/>
      <point x="603" y="316"/>
      <point x="624" y="339"/>
      <point x="624" y="383" type="curve" smooth="yes"/>
      <point x="624" y="543" type="line" smooth="yes"/>
      <point x="624" y="596"/>
      <point x="598" y="622"/>
      <point x="545" y="622" type="curve" smooth="yes"/>
    </contour>
    <contour>
      <point x="258" y="252" type="line"/>
      <point x="258" y="278"/>
      <point x="263" y="283"/>
      <point x="289" y="283" type="curve" smooth="yes"/>
      <point x="400" y="283" type="line" smooth="yes"/>
      <point x="426" y="283"/>
      <point x="431" y="278"/>
      <point x="431" y="252" type="curve" smooth="yes"/>
      <point x="431" y="90" type="line" smooth="yes"/>
      <point x="431" y="64"/>
      <point x="426" y="59"/>
      <point x="400" y="59" type="curve" smooth="yes"/>
      <point x="289" y="59" type="line" smooth="yes"/>
      <point x="263" y="59"/>
      <point x="258" y="64"/>
      <point x="258" y="90" type="curve" smooth="yes"/>
    </contour>
    <contour>
      <point x="431" y="373" type="line"/>
      <point x="431" y="347"/>
      <point x="426" y="342"/>
      <point x="400" y="342" type="curve" smooth="yes"/>
      <point x="289" y="342" type="line" smooth="yes"/>
      <point x="263" y="342"/>
      <point x="258" y="347"/>
      <point x="258" y="373" type="curve" smooth="yes"/>
      <point x="258" y="532" type="line" smooth="yes"/>
      <point x="258" y="558"/>
      <point x="263" y="563"/>
      <point x="289" y="563" type="curve" smooth="yes"/>
      <point x="400" y="563" type="line" smooth="yes"/>
      <point x="426" y="563"/>
      <point x="431" y="558"/>
      <point x="431" y="532" type="curve" smooth="yes"/>
    </contour>
  </outline>
</glyph>
<glyph name="nine" format="1">
  <advance width="689"/>
  <unicode hex="0039"/>
  <outline>
    <contour>
      <point x="265" y="188" type="line"/>
      <point x="72" y="188" type="line"/>
      <point x="72" y="79" type="line" smooth="yes"/>
      <point x="72" y="26"/>
      <point x="98" y="0"/>
      <point x="151" y="0" type="curve" smooth="yes"/>
      <point x="542" y="0" type="line" smooth="yes"/>
      <point x="595" y="0"/>
      <point x="621" y="26"/>
      <point x="621" y="79" type="curve" smooth="yes"/>
      <point x="621" y="543" type="line" smooth="yes"/>
      <point x="621" y="596"/>
      <point x="595" y="622"/>
      <point x="542" y="622" type="curve" smooth="yes"/>
      <point x="301" y="622" type="line"/>
      <point x="301" y="563" type="line"/>
      <point x="396" y="563" type="line" smooth="yes"/>
      <point x="422" y="563"/>
      <point x="427" y="558"/>
      <point x="427" y="532" type="curve" smooth="yes"/>
      <point x="427" y="90" type="line" smooth="yes"/>
      <point x="427" y="64"/>
      <point x="422" y="59"/>
      <point x="396" y="59" type="curve" smooth="yes"/>
      <point x="296" y="59" type="line" smooth="yes"/>
      <point x="270" y="59"/>
      <point x="265" y="64"/>
      <point x="265" y="90" type="curve" smooth="yes"/>
    </contour>
    <contour>
      <point x="256" y="532" type="line"/>
      <point x="256" y="558"/>
      <point x="261" y="563"/>
      <point x="287" y="563" type="curve" smooth="yes"/>
      <point x="311" y="563" type="line"/>
      <point x="311" y="622" type="line"/>
      <point x="142" y="622" type="line" smooth="yes"/>
      <point x="89" y="622"/>
      <point x="63" y="596"/>
      <point x="63" y="543" type="curve" smooth="yes"/>
      <point x="63" y="338" type="line" smooth="yes"/>
      <point x="63" y="285"/>
      <point x="89" y="259"/>
      <point x="142" y="259" type="curve" smooth="yes"/>
      <point x="446" y="259" type="line"/>
      <point x="446" y="318" type="line"/>
      <point x="287" y="318" type="line" smooth="yes"/>
      <point x="261" y="318"/>
      <point x="256" y="323"/>
      <point x="256" y="349" type="curve" smooth="yes"/>
    </contour>
  </outline>
</glyph>
<glyph name="colon" format="1">
  <advance width="311"/>
  <unicode hex="003A"/>
  <outline>
    <contour>
      <point x="57" y="226" type="line"/>
      <point x="254" y="226" type="line"/>
      <point x="254" y="362" type="line"/>
      <point x="57" y="362" type="line"/>
    </contour>
    <contour>
      <point x="57" y="123" type="line"/>
      <point x="254" y="123" type="line"/>
      <point x="254" y="259" type="line"/>
      <point x="57" y="259" type="line"/>
    </contour>
  </outline>
</glyph>
<glyph name="semicolon" format="1">
  <advance width="304"/>
  <unicode hex="003B"/>
  <outline>
    <contour>
      <point x="57" y="150" type="line"/>
      <point x="254" y="150" type="line"/>
      <point x="254" y="66" type="line"/>
      <point x="122" y="-140" type="line"/>
      <point x="57" y="-140" type="line"/>
    </contour>
    <contour>
      <point x="57" y="348" type="line"/>
      <point x="254" y="348" type="line"/>
      <point x="254" y="485" type="line"/>
      <point x="57" y="485" type="line"/>
    </contour>
  </outline>
</glyph>
<glyph name="less" format="1">
  <advance width="712"/>
  <unicode hex="003C"/>
  <outline>
    <contour>
      <point x="671" y="390" type="line"/>
      <point x="671" y="512" type="line"/>
      <point x="34" y="374" type="line"/>
      <point x="34" y="253" type="line"/>
      <point x="671" y="108" type="line"/>
      <point x="671" y="231" type="line"/>
      <point x="186" y="312" type="line"/>
    </contour>
  </outline>
</glyph>
<glyph name="equal" format="1">
  <advance width="731"/>
  <unicode hex="003D"/>
  <outline>
    <contour>
      <point x="61" y="355" type="line"/>
      <point x="670" y="355" type="line"/>
      <point x="670" y="470" type="line"/>
      <point x="61" y="470" type="line"/>
    </contour>
    <contour>
      <point x="61" y="150" type="line"/>
      <point x="670" y="150" type="line"/>
      <point x="670" y="265" type="line"/>
      <point x="61" y="265" type="line"/>
    </contour>
  </outline>
</glyph>
<glyph name="greater" format="1">
  <advance width="712"/>
  <unicode hex="003E"/>
  <outline>
    <contour>
      <point x="525" y="312" type="line"/>
      <point x="41" y="231" type="line"/>
      <point x="41" y="108" type="line"/>
      <point x="678" y="253" type="line"/>
      <point x="678" y="374" type="line"/>
      <point x="41" y="512" type="line"/>
      <point x="41" y="390" type="line"/>
    </contour>
  </outline>
</glyph>
<glyph name="question" format="1">
  <advance width="619"/>
  <unicode hex="003F"/>
  <outline>
    <contour>
      <point x="398" y="375" type="line"/>
      <point x="398" y="350"/>
      <point x="394" y="343"/>
      <point x="368" y="343" type="curve" smooth="yes"/>
      <point x="265" y="343" type="line"/>
      <point x="265" y="278" type="line"/>
      <point x="506" y="278" type="line" smooth="yes"/>
      <point x="560" y="278"/>
      <point x="585" y="306"/>
      <point x="585" y="356" type="curve" smooth="yes"/>
      <point x="585" y="544" type="line" smooth="yes"/>
      <point x="585" y="595"/>
      <point x="560" y="622"/>
      <point x="506" y="622" type="curve" smooth="yes"/>
      <point x="255" y="622" type="line"/>
      <point x="255" y="563" type="line"/>
      <point x="368" y="563" type="line" smooth="yes"/>
      <point x="394" y="563"/>
      <point x="398" y="557"/>
      <point x="398" y="532" type="curve" smooth="yes"/>
    </contour>
    <contour>
      <point x="203" y="343" type="line"/>
      <point x="218" y="209" type="line"/>
      <point x="373" y="209" type="line"/>
      <point x="390" y="343" type="line"/>
    </contour>
    <contour>
      <point x="195" y="0" type="line"/>
      <point x="392" y="0" type="line"/>
      <point x="392" y="137" type="line"/>
      <point x="195" y="137" type="line"/>
    </contour>
    <contour>
      <point x="210" y="532" type="line"/>
      <point x="210" y="557"/>
      <point x="215" y="563"/>
      <point x="241" y="563" type="curve" smooth="yes"/>
      <point x="342" y="563" type="line"/>
      <point x="342" y="622" type="line"/>
      <point x="103" y="622" type="line" smooth="yes"/>
      <point x="49" y="622"/>
      <point x="24" y="595"/>
      <point x="24" y="544" type="curve" smooth="yes"/>
      <point x="24" y="427" type="line"/>
      <point x="210" y="427" type="line"/>
    </contour>
  </outline>
</glyph>
<glyph name="at" format="1">
  <advance width="1156"/>
  <unicode hex="0040"/>
  <outline>
    <contour>
      <point x="410" y="426" type="line"/>
      <point x="366" y="426"/>
      <point x="344" y="404"/>
      <point x="344" y="360" type="curve" smooth="yes"/>
      <point x="344" y="144" type="line" smooth="yes"/>
      <point x="344" y="100"/>
      <point x="366" y="78"/>
      <point x="410" y="78" type="curve" smooth="yes"/>
      <point x="597" y="78" type="line" smooth="yes"/>
      <point x="625" y="78"/>
      <point x="643" y="87"/>
      <point x="648" y="109" type="curve"/>
      <point x="648" y="59" type="line"/>
      <point x="1026" y="59" type="line" smooth="yes"/>
      <point x="1070" y="59"/>
      <point x="1092" y="81"/>
      <point x="1092" y="125" type="curve" smooth="yes"/>
      <point x="1092" y="497" type="line" smooth="yes"/>
      <point x="1092" y="541"/>
      <point x="1070" y="563"/>
      <point x="1026" y="563" type="curve" smooth="yes"/>
      <point x="137" y="563" type="line" smooth="yes"/>
      <point x="93" y="563"/>
      <point x="71" y="541"/>
      <point x="71" y="497" type="curve" smooth="yes"/>
      <point x="71" y="-5" type="line" smooth="yes"/>
      <point x="71" y="-49"/>
      <point x="93" y="-71"/>
      <point x="137" y="-71" type="curve" smooth="yes"/>
      <point x="855" y="-71" type="line"/>
      <point x="855" y="-11" type="line"/>
      <point x="248" y="-11" type="line" smooth="yes"/>
      <point x="226" y="-11"/>
      <point x="222" y="-7"/>
      <point x="222" y="15" type="curve" smooth="yes"/>
      <point x="222" y="477" type="line" smooth="yes"/>
      <point x="222" y="499"/>
      <point x="226" y="503"/>
      <point x="248" y="503" type="curve" smooth="yes"/>
      <point x="915" y="503" type="line" smooth="yes"/>
      <point x="937" y="503"/>
      <point x="941" y="499"/>
      <point x="941" y="477" type="curve" smooth="yes"/>
      <point x="941" y="144" type="line" smooth="yes"/>
      <point x="941" y="122"/>
      <point x="937" y="118"/>
      <point x="915" y="118" type="curve" smooth="yes"/>
      <point x="796" y="118" type="line"/>
      <point x="796" y="426" type="line"/>
      <point x="644" y="426" type="line"/>
      <point x="644" y="401" type="line"/>
      <point x="637" y="418"/>
      <point x="621" y="426"/>
      <point x="597" y="426" type="curve" smooth="yes"/>
    </contour>
    <contour>
      <point x="495" y="341" type="line"/>
      <point x="495" y="363"/>
      <point x="499" y="367"/>
      <point x="521" y="367" type="curve" smooth="yes"/>
      <point x="614" y="367" type="line" smooth="yes"/>
      <point x="634" y="367"/>
      <point x="643" y="361"/>
      <point x="644" y="343" type="curve" smooth="yes"/>
      <point x="644" y="161" type="line" smooth="yes"/>
      <point x="643" y="143"/>
      <point x="634" y="137"/>
      <point x="614" y="137" type="curve" smooth="yes"/>
      <point x="521" y="137" type="line" smooth="yes"/>
      <point x="499" y="137"/>
      <point x="495" y="141"/>
      <point x="495" y="163" type="curve" smooth="yes"/>
    </contour>
  </outline>
</glyph>
<glyph name="A" format="1">
  <advance width="738"/>
  <unicode hex="0041"/>
  <outline>
    <contour>
      <point x="588" y="182" type="line"/>
      <point x="152" y="182" type="line"/>
      <point x="152" y="123" type="line"/>
      <point x="588" y="123" type="line"/>
    </contour>
    <contour>
      <point x="724" y="0" type="line"/>
      <point x="487" y="622" type="line"/>
      <point x="250" y="622" type="line"/>
      <point x="14" y="0" type="line"/>
      <point x="200" y="0" type="line"/>
      <point x="368" y="508" type="line"/>
      <point x="534" y="0" type="line"/>
    </contour>
  </outline>
</glyph>
<glyph name="B" format="1">
  <advance width="721"/>
  <unicode hex="0042"/>
  <outline>
    <contour>
      <point x="75" y="622" type="line"/>
      <point x="75" y="0" type="line"/>
      <point x="574" y="0" type="line" smooth="yes"/>
      <point x="627" y="0"/>
      <point x="653" y="26"/>
      <point x="653" y="79" type="curve" smooth="yes"/>
      <point x="653" y="244" type="line" smooth="yes"/>
      <point x="653" y="287"/>
      <point x="632" y="309"/>
      <point x="592" y="312" type="curve"/>
      <point x="632" y="314"/>
      <point x="653" y="337"/>
      <point x="653" y="381" type="curve" smooth="yes"/>
      <point x="653" y="543" type="line" smooth="yes"/>
      <point x="653" y="596"/>
      <point x="627" y="622"/>
      <point x="574" y="622" type="curve" smooth="yes"/>
    </contour>
    <contour>
      <point x="468" y="84" type="line"/>
      <point x="468" y="65"/>
      <point x="458" y="59"/>
      <point x="434" y="59" type="curve" smooth="yes"/>
      <point x="268" y="59" type="line"/>
      <point x="268" y="282" type="line"/>
      <point x="437" y="282" type="line" smooth="yes"/>
      <point x="463" y="282"/>
      <point x="468" y="277"/>
      <point x="468" y="251" type="curve" smooth="yes"/>
    </contour>
    <contour>
      <point x="468" y="372" type="line"/>
      <point x="468" y="346"/>
      <point x="463" y="341"/>
      <point x="437" y="341" type="curve" smooth="yes"/>
      <point x="268" y="341" type="line"/>
      <point x="268" y="563" type="line"/>
      <point x="437" y="563" type="line" smooth="yes"/>
      <point x="463" y="563"/>
      <point x="468" y="558"/>
      <point x="468" y="532" type="curve" smooth="yes"/>
    </contour>
  </outline>
</glyph>
<glyph name="C" format="1">
  <advance width="688"/>
  <unicode hex="0043"/>
  <outline>
    <contour>
      <point x="261" y="532" type="line"/>
      <point x="261" y="558"/>
      <point x="266" y="563"/>
      <point x="292" y="563" type="curve" smooth="yes"/>
      <point x="327" y="563" type="line"/>
      <point x="327" y="622" type="line"/>
      <point x="147" y="622" type="line" smooth="yes"/>
      <point x="94" y="622"/>
      <point x="68" y="596"/>
      <point x="68" y="543" type="curve" smooth="yes"/>
      <point x="68" y="79" type="line" smooth="yes"/>
      <point x="68" y="26"/>
      <point x="94" y="0"/>
      <point x="147" y="0" type="curve" smooth="yes"/>
      <point x="324" y="0" type="line"/>
      <point x="324" y="59" type="line"/>
      <point x="292" y="59" type="line" smooth="yes"/>
      <point x="266" y="59"/>
      <point x="261" y="64"/>
      <point x="261" y="90" type="curve" smooth="yes"/>
    </contour>
    <contour>
      <point x="445" y="398" type="line"/>
      <point x="638" y="398" type="line"/>
      <point x="638" y="543" type="line" smooth="yes"/>
      <point x="638" y="596"/>
      <point x="612" y="622"/>
      <point x="559" y="622" type="curve" smooth="yes"/>
      <point x="306" y="622" type="line"/>
      <point x="306" y="563" type="line"/>
      <point x="414" y="563" type="line" smooth="yes"/>
      <point x="440" y="563"/>
      <point x="445" y="558"/>
      <point x="445" y="532" type="curve" smooth="yes"/>
    </contour>
    <contour>
      <point x="445" y="90" type="line"/>
      <point x="445" y="64"/>
      <point x="440" y="59"/>
      <point x="414" y="59" type="curve" smooth="yes"/>
      <point x="306" y="59" type="line"/>
      <point x="306" y="0" type="line"/>
      <point x="559" y="0" type="line" smooth="yes"/>
      <point x="612" y="0"/>
      <point x="638" y="26"/>
      <point x="638" y="79" type="curve" smooth="yes"/>
      <point x="638" y="222" type="line"/>
      <point x="445" y="222" type="line"/>
    </contour>
  </outline>
</glyph>
<glyph name="D" format="1">
  <advance width="723"/>
  <unicode hex="0044"/>
  <outline>
    <contour>
      <point x="462" y="374" type="line"/>
      <point x="655" y="374" type="line"/>
      <point x="655" y="543" type="line" smooth="yes"/>
      <point x="655" y="596"/>
      <point x="629" y="622"/>
      <point x="576" y="622" type="curve" smooth="yes"/>
      <point x="143" y="622" type="line"/>
      <point x="143" y="563" type="line"/>
      <point x="431" y="563" type="line" smooth="yes"/>
      <point x="457" y="563"/>
      <point x="462" y="558"/>
      <point x="462" y="532" type="curve" smooth="yes"/>
    </contour>
    <contour>
      <point x="462" y="90" type="line"/>
      <point x="462" y="64"/>
      <point x="457" y="59"/>
      <point x="431" y="59" type="curve" smooth="yes"/>
      <point x="143" y="59" type="line"/>
      <point x="143" y="0" type="line"/>
      <point x="576" y="0" type="line" smooth="yes"/>
      <point x="629" y="0"/>
      <point x="655" y="26"/>
      <point x="655" y="79" type="curve" smooth="yes"/>
      <point x="655" y="390" type="line"/>
      <point x="462" y="390" type="line"/>
    </contour>
    <contour>
      <point x="75" y="622" type="line"/>
      <point x="75" y="0" type="line"/>
      <point x="268" y="0" type="line"/>
      <point x="268" y="622" type="line"/>
    </contour>
  </outline>
</glyph>
<glyph name="E" format="1">
  <advance width="621"/>
  <unicode hex="0045"/>
  <outline>
    <contour>
      <point x="75" y="622" type="line"/>
      <point x="75" y="0" type="line"/>
      <point x="275" y="0" type="line"/>
      <point x="275" y="622" type="line"/>
    </contour>
    <contour>
      <point x="533" y="348" type="line"/>
      <point x="161" y="348" type="line"/>
      <point x="161" y="289" type="line"/>
      <point x="533" y="289" type="line"/>
    </contour>
    <contour>
      <point x="574" y="622" type="line"/>
      <point x="148" y="622" type="line"/>
      <point x="148" y="563" type="line"/>
      <point x="574" y="563" type="line"/>
    </contour>
    <contour>
      <point x="587" y="59" type="line"/>
      <point x="148" y="59" type="line"/>
      <point x="148" y="0" type="line"/>
      <point x="587" y="0" type="line"/>
    </contour>
  </outline>
</glyph>
<glyph name="F" format="1">
  <advance width="601"/>
  <unicode hex="0046"/>
  <outline>
    <contour>
      <point x="75" y="622" type="line"/>
      <point x="75" y="0" type="line"/>
      <point x="275" y="0" type="line"/>
      <point x="275" y="622" type="line"/>
    </contour>
    <contour>
      <point x="535" y="324" type="line"/>
      <point x="162" y="324" type="line"/>
      <point x="162" y="265" type="line"/>
      <point x="535" y="265" type="line"/>
    </contour>
    <contour>
      <point x="574" y="622" type="line"/>
      <point x="148" y="622" type="line"/>
      <point x="148" y="563" type="line"/>
      <point x="574" y="563" type="line"/>
    </contour>
  </outline>
</glyph>
<glyph name="G" format="1">
  <advance width="700"/>
  <unicode hex="0047"/>
  <outline>
    <contour>
      <point x="261" y="532" type="line"/>
      <point x="261" y="558"/>
      <point x="266" y="563"/>
      <point x="292" y="563" type="curve" smooth="yes"/>
      <point x="327" y="563" type="line"/>
      <point x="327" y="622" type="line"/>
      <point x="147" y="622" type="line" smooth="yes"/>
      <point x="94" y="622"/>
      <point x="68" y="596"/>
      <point x="68" y="543" type="curve" smooth="yes"/>
      <point x="68" y="79" type="line" smooth="yes"/>
      <point x="68" y="26"/>
      <point x="94" y="0"/>
      <point x="147" y="0" type="curve" smooth="yes"/>
      <point x="322" y="0" type="line"/>
      <point x="322" y="59" type="line"/>
      <point x="292" y="59" type="line" smooth="yes"/>
      <point x="266" y="59"/>
      <point x="261" y="64"/>
      <point x="261" y="90" type="curve" smooth="yes"/>
    </contour>
    <contour>
      <point x="639" y="320" type="line"/>
      <point x="344" y="320" type="line"/>
      <point x="344" y="261" type="line"/>
      <point x="639" y="261" type="line"/>
    </contour>
    <contour>
      <point x="446" y="418" type="line"/>
      <point x="639" y="418" type="line"/>
      <point x="639" y="543" type="line" smooth="yes"/>
      <point x="639" y="596"/>
      <point x="613" y="622"/>
      <point x="560" y="622" type="curve" smooth="yes"/>
      <point x="306" y="622" type="line"/>
      <point x="306" y="563" type="line"/>
      <point x="415" y="563" type="line" smooth="yes"/>
      <point x="441" y="563"/>
      <point x="446" y="558"/>
      <point x="446" y="532" type="curve" smooth="yes"/>
    </contour>
    <contour>
      <point x="446" y="90" type="line"/>
      <point x="446" y="64"/>
      <point x="441" y="59"/>
      <point x="415" y="59" type="curve" smooth="yes"/>
      <point x="310" y="59" type="line"/>
      <point x="310" y="0" type="line"/>
      <point x="560" y="0" type="line" smooth="yes"/>
      <point x="613" y="0"/>
      <point x="639" y="26"/>
      <point x="639" y="79" type="curve" smooth="yes"/>
      <point x="639" y="273" type="line"/>
      <point x="446" y="273" type="line"/>
    </contour>
  </outline>
</glyph>
<glyph name="H" format="1">
  <advance width="769"/>
  <unicode hex="0048"/>
  <outline>
    <contour>
      <point x="540" y="341" type="line"/>
      <point x="222" y="341" type="line"/>
      <point x="222" y="282" type="line"/>
      <point x="540" y="282" type="line"/>
    </contour>
    <contour>
      <point x="75" y="622" type="line"/>
      <point x="75" y="0" type="line"/>
      <point x="268" y="0" type="line"/>
      <point x="268" y="622" type="line"/>
    </contour>
    <contour>
      <point x="501" y="622" type="line"/>
      <point x="501" y="0" type="line"/>
      <point x="694" y="0" type="line"/>
      <point x="694" y="622" type="line"/>
    </contour>
  </outline>
</glyph>
<glyph name="I" format="1">
  <advance width="363"/>
  <unicode hex="0049"/>
  <outline>
    <contour>
      <point x="81" y="622" type="line"/>
      <point x="81" y="0" type="line"/>
      <point x="281" y="0" type="line"/>
      <point x="281" y="622" type="line"/>
    </contour>
  </outline>
</glyph>
<glyph name="J" format="1">
  <advance width="632"/>
  <unicode hex="004A"/>
  <outline>
    <contour>
      <point x="27" y="238" type="line"/>
      <point x="27" y="79" type="line" smooth="yes"/>
      <point x="27" y="26"/>
      <point x="53" y="0"/>
      <point x="106" y="0" type="curve" smooth="yes"/>
      <point x="486" y="0" type="line" smooth="yes"/>
      <point x="539" y="0"/>
      <point x="565" y="26"/>
      <point x="565" y="79" type="curve" smooth="yes"/>
      <point x="565" y="622" type="line"/>
      <point x="371" y="622" type="line"/>
      <point x="371" y="90" type="line" smooth="yes"/>
      <point x="371" y="64"/>
      <point x="366" y="59"/>
      <point x="340" y="59" type="curve" smooth="yes"/>
      <point x="252" y="59" type="line" smooth="yes"/>
      <point x="226" y="59"/>
      <point x="221" y="64"/>
      <point x="221" y="90" type="curve" smooth="yes"/>
      <point x="221" y="238" type="line"/>
    </contour>
  </outline>
</glyph>
<glyph name="K" format="1">
  <advance width="725"/>
  <unicode hex="004B"/>
  <outline>
    <contour>
      <point x="493" y="622" type="line"/>
      <point x="274" y="318" type="line"/>
      <point x="498" y="0" type="line"/>
      <point x="707" y="0" type="line"/>
      <point x="476" y="318" type="line"/>
      <point x="701" y="622" type="line"/>
    </contour>
    <contour>
      <point x="75" y="622" type="line"/>
      <point x="75" y="0" type="line"/>
      <point x="263" y="0" type="line"/>
      <point x="263" y="622" type="line"/>
    </contour>
  </outline>
</glyph>
<glyph name="L" format="1">
  <advance width="576"/>
  <unicode hex="004C"/>
  <outline>
    <contour>
      <point x="75" y="622" type="line"/>
      <point x="75" y="0" type="line"/>
      <point x="268" y="0" type="line"/>
      <point x="268" y="622" type="line"/>
    </contour>
    <contour>
      <point x="143" y="0" type="line"/>
      <point x="559" y="0" type="line"/>
      <point x="559" y="59" type="line"/>
      <point x="143" y="59" type="line"/>
    </contour>
  </outline>
</glyph>
<glyph name="M" format="1">
  <advance width="919"/>
  <unicode hex="004D"/>
  <outline>
    <contour>
      <point x="520" y="135" type="line"/>
      <point x="671" y="450" type="line"/>
      <point x="671" y="0" type="line"/>
      <point x="845" y="0" type="line"/>
      <point x="845" y="622" type="line"/>
      <point x="639" y="622" type="line"/>
      <point x="458" y="242" type="line"/>
      <point x="281" y="622" type="line"/>
      <point x="75" y="622" type="line"/>
      <point x="75" y="0" type="line"/>
      <point x="248" y="0" type="line"/>
      <point x="248" y="448" type="line"/>
      <point x="397" y="135" type="line"/>
    </contour>
  </outline>
</glyph>
<glyph name="N" format="1">
  <advance width="744"/>
  <unicode hex="004E"/>
  <outline>
    <contour>
      <point x="491" y="622" type="line"/>
      <point x="491" y="179" type="line"/>
      <point x="243" y="622" type="line"/>
      <point x="75" y="622" type="line"/>
      <point x="75" y="0" type="line"/>
      <point x="253" y="0" type="line"/>
      <point x="253" y="442" type="line"/>
      <point x="504" y="0" type="line"/>
      <point x="670" y="0" type="line"/>
      <point x="670" y="622" type="line"/>
    </contour>
  </outline>
</glyph>
<glyph name="O" format="1">
  <advance width="708"/>
  <unicode hex="004F"/>
  <outline>
    <contour>
      <point x="640" y="543" type="line"/>
      <point x="640" y="596"/>
      <point x="614" y="622"/>
      <point x="561" y="622" type="curve" smooth="yes"/>
      <point x="147" y="622" type="line" smooth="yes"/>
      <point x="94" y="622"/>
      <point x="68" y="596"/>
      <point x="68" y="543" type="curve" smooth="yes"/>
      <point x="68" y="79" type="line" smooth="yes"/>
      <point x="68" y="26"/>
      <point x="94" y="0"/>
      <point x="147" y="0" type="curve" smooth="yes"/>
      <point x="561" y="0" type="line" smooth="yes"/>
      <point x="614" y="0"/>
      <point x="640" y="26"/>
      <point x="640" y="79" type="curve" smooth="yes"/>
    </contour>
    <contour>
      <point x="448" y="90" type="line"/>
      <point x="448" y="64"/>
      <point x="443" y="59"/>
      <point x="417" y="59" type="curve" smooth="yes"/>
      <point x="292" y="59" type="line" smooth="yes"/>
      <point x="266" y="59"/>
      <point x="261" y="64"/>
      <point x="261" y="90" type="curve" smooth="yes"/>
      <point x="261" y="532" type="line" smooth="yes"/>
      <point x="261" y="558"/>
      <point x="266" y="563"/>
      <point x="292" y="563" type="curve" smooth="yes"/>
      <point x="417" y="563" type="line" smooth="yes"/>
      <point x="443" y="563"/>
      <point x="448" y="558"/>
      <point x="448" y="532" type="curve" smooth="yes"/>
    </contour>
  </outline>
</glyph>
<glyph name="P" format="1">
  <advance width="698"/>
  <unicode hex="0050"/>
  <outline>
    <contour>
      <point x="464" y="293" type="line"/>
      <point x="464" y="267"/>
      <point x="459" y="262"/>
      <point x="433" y="262" type="curve" smooth="yes"/>
      <point x="143" y="262" type="line"/>
      <point x="143" y="203" type="line"/>
      <point x="578" y="203" type="line" smooth="yes"/>
      <point x="631" y="203"/>
      <point x="657" y="229"/>
      <point x="657" y="282" type="curve" smooth="yes"/>
      <point x="657" y="543" type="line" smooth="yes"/>
      <point x="657" y="596"/>
      <point x="631" y="622"/>
      <point x="578" y="622" type="curve" smooth="yes"/>
      <point x="130" y="622" type="line"/>
      <point x="130" y="563" type="line"/>
      <point x="433" y="563" type="line" smooth="yes"/>
      <point x="459" y="563"/>
      <point x="464" y="558"/>
      <point x="464" y="532" type="curve" smooth="yes"/>
    </contour>
    <contour>
      <point x="75" y="622" type="line"/>
      <point x="75" y="0" type="line"/>
      <point x="268" y="0" type="line"/>
      <point x="268" y="622" type="line"/>
    </contour>
  </outline>
</glyph>
<glyph name="Q" format="1">
  <advance width="695"/>
  <unicode hex="0051"/>
  <outline>
    <contour>
      <point x="253" y="51" type="line"/>
      <point x="427" y="-97" type="line"/>
      <point x="644" y="-97" type="line"/>
      <point x="454" y="51" type="line"/>
    </contour>
    <contour>
      <point x="633" y="543" type="line"/>
      <point x="633" y="596"/>
      <point x="607" y="622"/>
      <point x="554" y="622" type="curve" smooth="yes"/>
      <point x="139" y="622" type="line" smooth="yes"/>
      <point x="86" y="622"/>
      <point x="60" y="596"/>
      <point x="60" y="543" type="curve" smooth="yes"/>
      <point x="60" y="79" type="line" smooth="yes"/>
      <point x="60" y="26"/>
      <point x="86" y="0"/>
      <point x="139" y="0" type="curve" smooth="yes"/>
      <point x="554" y="0" type="line" smooth="yes"/>
      <point x="607" y="0"/>
      <point x="633" y="26"/>
      <point x="633" y="79" type="curve" smooth="yes"/>
    </contour>
    <contour>
      <point x="444" y="90" type="line"/>
      <point x="444" y="64"/>
      <point x="439" y="59"/>
      <point x="413" y="59" type="curve" smooth="yes"/>
      <point x="281" y="59" type="line" smooth="yes"/>
      <point x="255" y="59"/>
      <point x="250" y="64"/>
      <point x="250" y="90" type="curve" smooth="yes"/>
      <point x="250" y="532" type="line" smooth="yes"/>
      <point x="250" y="558"/>
      <point x="255" y="563"/>
      <point x="281" y="563" type="curve" smooth="yes"/>
      <point x="413" y="563" type="line" smooth="yes"/>
      <point x="439" y="563"/>
      <point x="444" y="558"/>
      <point x="444" y="532" type="curve" smooth="yes"/>
    </contour>
  </outline>
</glyph>
<glyph name="R" format="1">
  <advance width="716"/>
  <unicode hex="0052"/>
  <outline>
    <contour>
      <point x="464" y="313" type="line"/>
      <point x="464" y="287"/>
      <point x="459" y="282"/>
      <point x="433" y="282" type="curve" smooth="yes"/>
      <point x="143" y="282" type="line"/>
      <point x="143" y="223" type="line"/>
      <point x="578" y="223" type="line" smooth="yes"/>
      <point x="631" y="223"/>
      <point x="657" y="249"/>
      <point x="657" y="302" type="curve" smooth="yes"/>
      <point x="657" y="543" type="line" smooth="yes"/>
      <point x="657" y="596"/>
      <point x="631" y="622"/>
      <point x="578" y="622" type="curve" smooth="yes"/>
      <point x="130" y="622" type="line"/>
      <point x="130" y="563" type="line"/>
      <point x="433" y="563" type="line" smooth="yes"/>
      <point x="459" y="563"/>
      <point x="464" y="558"/>
      <point x="464" y="532" type="curve" smooth="yes"/>
    </contour>
    <contour>
      <point x="75" y="622" type="line"/>
      <point x="75" y="0" type="line"/>
      <point x="268" y="0" type="line"/>
      <point x="268" y="622" type="line"/>
    </contour>
    <contour>
      <point x="316" y="264" type="line"/>
      <point x="473" y="0" type="line"/>
      <point x="674" y="0" type="line"/>
      <point x="507" y="264" type="line"/>
    </contour>
  </outline>
</glyph>
<glyph name="S" format="1">
  <advance width="678"/>
  <unicode hex="0053"/>
  <outline>
    <contour>
      <point x="427" y="90" type="line"/>
      <point x="427" y="64"/>
      <point x="422" y="59"/>
      <point x="396" y="59" type="curve" smooth="yes"/>
      <point x="283" y="59" type="line" smooth="yes"/>
      <point x="257" y="59"/>
      <point x="252" y="64"/>
      <point x="252" y="90" type="curve" smooth="yes"/>
      <point x="252" y="195" type="line"/>
      <point x="59" y="195" type="line"/>
      <point x="59" y="79" type="line" smooth="yes"/>
      <point x="59" y="26"/>
      <point x="85" y="0"/>
      <point x="138" y="0" type="curve" smooth="yes"/>
      <point x="541" y="0" type="line" smooth="yes"/>
      <point x="594" y="0"/>
      <point x="620" y="26"/>
      <point x="620" y="79" type="curve" smooth="yes"/>
      <point x="620" y="264" type="line" smooth="yes"/>
      <point x="620" y="317"/>
      <point x="594" y="343"/>
      <point x="541" y="343" type="curve" smooth="yes"/>
      <point x="280" y="343" type="line" smooth="yes"/>
      <point x="254" y="343"/>
      <point x="249" y="348"/>
      <point x="249" y="374" type="curve" smooth="yes"/>
      <point x="249" y="532" type="line" smooth="yes"/>
      <point x="249" y="558"/>
      <point x="254" y="563"/>
      <point x="280" y="563" type="curve" smooth="yes"/>
      <point x="393" y="563" type="line" smooth="yes"/>
      <point x="419" y="563"/>
      <point x="424" y="558"/>
      <point x="424" y="532" type="curve" smooth="yes"/>
      <point x="424" y="427" type="line"/>
      <point x="617" y="427" type="line"/>
      <point x="617" y="543" type="line" smooth="yes"/>
      <point x="617" y="596"/>
      <point x="591" y="622"/>
      <point x="538" y="622" type="curve" smooth="yes"/>
      <point x="135" y="622" type="line" smooth="yes"/>
      <point x="82" y="622"/>
      <point x="56" y="596"/>
      <point x="56" y="543" type="curve" smooth="yes"/>
      <point x="56" y="363" type="line" smooth="yes"/>
      <point x="56" y="310"/>
      <point x="82" y="284"/>
      <point x="135" y="284" type="curve" smooth="yes"/>
      <point x="396" y="284" type="line" smooth="yes"/>
      <point x="422" y="284"/>
      <point x="427" y="279"/>
      <point x="427" y="253" type="curve" smooth="yes"/>
    </contour>
  </outline>
</glyph>
<glyph name="T" format="1">
  <advance width="590"/>
  <unicode hex="0054"/>
  <outline>
    <contour>
      <point x="198" y="590" type="line"/>
      <point x="198" y="0" type="line"/>
      <point x="391" y="0" type="line"/>
      <point x="391" y="590" type="line"/>
    </contour>
    <contour>
      <point x="584" y="622" type="line"/>
      <point x="7" y="622" type="line"/>
      <point x="7" y="563" type="line"/>
      <point x="584" y="563" type="line"/>
    </contour>
  </outline>
</glyph>
<glyph name="U" format="1">
  <advance width="715"/>
  <unicode hex="0055"/>
  <outline>
    <contour>
      <point x="261" y="622" type="line"/>
      <point x="68" y="622" type="line"/>
      <point x="68" y="79" type="line" smooth="yes"/>
      <point x="68" y="26"/>
      <point x="94" y="0"/>
      <point x="147" y="0" type="curve" smooth="yes"/>
      <point x="568" y="0" type="line" smooth="yes"/>
      <point x="621" y="0"/>
      <point x="647" y="26"/>
      <point x="647" y="79" type="curve" smooth="yes"/>
      <point x="647" y="622" type="line"/>
      <point x="454" y="622" type="line"/>
      <point x="454" y="90" type="line" smooth="yes"/>
      <point x="454" y="64"/>
      <point x="449" y="59"/>
      <point x="423" y="59" type="curve" smooth="yes"/>
      <point x="292" y="59" type="line" smooth="yes"/>
      <point x="266" y="59"/>
      <point x="261" y="64"/>
      <point x="261" y="90" type="curve" smooth="yes"/>
    </contour>
  </outline>
</glyph>
<glyph name="V" format="1">
  <advance width="721"/>
  <unicode hex="0056"/>
  <outline>
    <contour>
      <point x="510" y="622" type="line"/>
      <point x="360" y="127" type="line"/>
      <point x="211" y="622" type="line"/>
      <point x="16" y="622" type="line"/>
      <point x="246" y="0" type="line"/>
      <point x="474" y="0" type="line"/>
      <point x="705" y="622" type="line"/>
    </contour>
  </outline>
</glyph>
<glyph name="W" format="1">
  <advance width="1119"/>
  <unicode hex="0057"/>
  <outline>
    <contour>
      <point x="916" y="622" type="line"/>
      <point x="789" y="135" type="line"/>
      <point x="653" y="622" type="line"/>
      <point x="464" y="622" type="line"/>
      <point x="328" y="135" type="line"/>
      <point x="212" y="622" type="line"/>
      <point x="17" y="622" type="line"/>
      <point x="216" y="0" type="line"/>
      <point x="440" y="0" type="line"/>
      <point x="559" y="426" type="line"/>
      <point x="678" y="0" type="line"/>
      <point x="903" y="0" type="line"/>
      <point x="1102" y="622" type="line"/>
    </contour>
  </outline>
</glyph>
<glyph name="X" format="1">
  <advance width="711"/>
  <unicode hex="0058"/>
  <outline>
    <contour>
      <point x="455" y="323" type="line"/>
      <point x="672" y="622" type="line"/>
      <point x="475" y="622" type="line"/>
      <point x="351" y="428" type="line"/>
      <point x="227" y="622" type="line"/>
      <point x="21" y="622" type="line"/>
      <point x="247" y="310" type="line"/>
      <point x="13" y="0" type="line"/>
      <point x="209" y="0" type="line"/>
      <point x="351" y="209" type="line"/>
      <point x="492" y="0" type="line"/>
      <point x="698" y="0" type="line"/>
    </contour>
  </outline>
</glyph>
<glyph name="Y" format="1">
  <advance width="699"/>
  <unicode hex="0059"/>
  <outline>
    <contour>
      <point x="438" y="182" type="line"/>
      <point x="693" y="622" type="line"/>
      <point x="505" y="622" type="line"/>
      <point x="354" y="309" type="line"/>
      <point x="195" y="622" type="line"/>
      <point x="5" y="622" type="line"/>
      <point x="273" y="182" type="line"/>
    </contour>
    <contour>
      <point x="259" y="256" type="line"/>
      <point x="259" y="0" type="line"/>
      <point x="452" y="0" type="line"/>
      <point x="452" y="256" type="line"/>
    </contour>
  </outline>
</glyph>
<glyph name="Z" format="1">
  <advance width="647"/>
  <unicode hex="005A"/>
  <outline>
    <contour>
      <point x="606" y="622" type="line"/>
      <point x="57" y="622" type="line"/>
      <point x="57" y="563" type="line"/>
      <point x="606" y="563" type="line"/>
    </contour>
    <contour>
      <point x="387" y="563" type="line"/>
      <point x="41" y="59" type="line"/>
      <point x="260" y="59" type="line"/>
      <point x="606" y="563" type="line"/>
    </contour>
    <contour>
      <point x="596" y="59" type="line"/>
      <point x="41" y="59" type="line"/>
      <point x="41" y="0" type="line"/>
      <point x="596" y="0" type="line"/>
    </contour>
  </outline>
</glyph>
<glyph name="bracketleft" format="1">
  <advance width="369"/>
  <unicode hex="005B"/>
  <outline>
    <contour>
      <point x="141" y="660" type="line"/>
      <point x="405" y="660" type="line"/>
      <point x="405" y="719" type="line"/>
      <point x="141" y="719" type="line"/>
    </contour>
    <contour>
      <point x="71" y="719" type="line"/>
      <point x="71" y="-220" type="line"/>
      <point x="265" y="-220" type="line"/>
      <point x="265" y="719" type="line"/>
    </contour>
    <contour>
      <point x="137" y="-220" type="line"/>
      <point x="405" y="-220" type="line"/>
      <point x="405" y="-161" type="line"/>
      <point x="137" y="-161" type="line"/>
    </contour>
  </outline>
</glyph>
<glyph name="backslash" format="1">
  <advance width="483"/>
  <unicode hex="005C"/>
  <outline>
    <contour>
      <point x="-71" y="699" type="line"/>
      <point x="352" y="-136" type="line"/>
      <point x="513" y="-136" type="line"/>
      <point x="89" y="699" type="line"/>
    </contour>
  </outline>
</glyph>
<glyph name="bracketright" format="1">
  <advance width="369"/>
  <unicode hex="005D"/>
  <outline>
    <contour>
      <point x="228" y="719" type="line"/>
      <point x="-36" y="719" type="line"/>
      <point x="-36" y="660" type="line"/>
      <point x="228" y="660" type="line"/>
    </contour>
    <contour>
      <point x="104" y="719" type="line"/>
      <point x="104" y="-220" type="line"/>
      <point x="298" y="-220" type="line"/>
      <point x="298" y="719" type="line"/>
    </contour>
    <contour>
      <point x="232" y="-161" type="line"/>
      <point x="-36" y="-161" type="line"/>
      <point x="-36" y="-220" type="line"/>
      <point x="232" y="-220" type="line"/>
    </contour>
  </outline>
</glyph>
<glyph name="asciicircum" format="1">
  <advance width="654"/>
  <unicode hex="005E"/>
  <outline>
    <contour>
      <point x="217" y="668" type="line"/>
      <point x="23" y="328" type="line"/>
      <point x="193" y="328" type="line"/>
      <point x="327" y="567" type="line"/>
      <point x="460" y="328" type="line"/>
      <point x="631" y="328" type="line"/>
      <point x="437" y="668" type="line"/>
    </contour>
  </outline>
</glyph>
<glyph name="underscore" format="1">
  <advance width="646"/>
  <unicode hex="005F"/>
  <outline>
    <contour>
      <point x="6" y="-59" type="line"/>
      <point x="640" y="-59" type="line"/>
      <point x="640" y="0" type="line"/>
      <point x="6" y="0" type="line"/>
    </contour>
  </outline>
</glyph>
<glyph name="grave" format="1">
  <advance width="605"/>
  <unicode hex="0060"/>
  <outline>
    <contour>
      <point x="346" y="657" type="line"/>
      <point x="161" y="657" type="line"/>
      <point x="333" y="506" type="line"/>
      <point x="484" y="506" type="line"/>
    </contour>
  </outline>
</glyph>
<glyph name="a" format="1">
  <advance width="662"/>
  <unicode hex="0061"/>
  <outline>
    <contour>
      <point x="245" y="230" type="line"/>
      <point x="245" y="395" type="line" smooth="yes"/>
      <point x="245" y="421"/>
      <point x="250" y="426"/>
      <point x="276" y="426" type="curve" smooth="yes"/>
      <point x="374" y="426" type="line" smooth="yes"/>
      <point x="399" y="426"/>
      <point x="410" y="418"/>
      <point x="410" y="395" type="curve" smooth="yes"/>
      <point x="410" y="368" type="line"/>
      <point x="418" y="368" type="line"/>
      <point x="418" y="404" type="line" smooth="yes"/>
      <point x="418" y="456"/>
      <point x="407" y="485"/>
      <point x="353" y="485" type="curve" smooth="yes"/>
      <point x="140" y="485" type="line" smooth="yes"/>
      <point x="87" y="485"/>
      <point x="61" y="459"/>
      <point x="61" y="406" type="curve" smooth="yes"/>
      <point x="61" y="230" type="line"/>
    </contour>
    <contour>
      <point x="594" y="0" type="line"/>
      <point x="594" y="485" type="line"/>
      <point x="410" y="485" type="line"/>
      <point x="410" y="0" type="line"/>
    </contour>
    <contour>
      <point x="61" y="254" type="line"/>
      <point x="61" y="79" type="line" smooth="yes"/>
      <point x="61" y="26"/>
      <point x="87" y="0"/>
      <point x="140" y="0" type="curve" smooth="yes"/>
      <point x="353" y="0" type="line" smooth="yes"/>
      <point x="407" y="0"/>
      <point x="418" y="29"/>
      <point x="418" y="81" type="curve" smooth="yes"/>
      <point x="418" y="116" type="line"/>
      <point x="410" y="116" type="line"/>
      <point x="410" y="90" type="line" smooth="yes"/>
      <point x="410" y="68"/>
      <point x="399" y="59"/>
      <point x="374" y="59" type="curve" smooth="yes"/>
      <point x="276" y="59" type="line" smooth="yes"/>
      <point x="250" y="59"/>
      <point x="245" y="64"/>
      <point x="245" y="90" type="curve" smooth="yes"/>
      <point x="245" y="254" type="line"/>
    </contour>
  </outline>
</glyph>
<glyph name="b" format="1">
  <advance width="662"/>
  <unicode hex="0062"/>
  <outline>
    <contour>
      <point x="417" y="255" type="line"/>
      <point x="417" y="90" type="line" smooth="yes"/>
      <point x="417" y="64"/>
      <point x="412" y="59"/>
      <point x="386" y="59" type="curve" smooth="yes"/>
      <point x="288" y="59" type="line" smooth="yes"/>
      <point x="263" y="59"/>
      <point x="252" y="68"/>
      <point x="252" y="90" type="curve" smooth="yes"/>
      <point x="252" y="115" type="line"/>
      <point x="244" y="115" type="line"/>
      <point x="244" y="81" type="line" smooth="yes"/>
      <point x="244" y="29"/>
      <point x="255" y="0"/>
      <point x="309" y="0" type="curve" smooth="yes"/>
      <point x="522" y="0" type="line" smooth="yes"/>
      <point x="575" y="0"/>
      <point x="601" y="26"/>
      <point x="601" y="79" type="curve" smooth="yes"/>
      <point x="601" y="255" type="line"/>
    </contour>
    <contour>
      <point x="601" y="231" type="line"/>
      <point x="601" y="406" type="line" smooth="yes"/>
      <point x="601" y="459"/>
      <point x="575" y="485"/>
      <point x="522" y="485" type="curve" smooth="yes"/>
      <point x="309" y="485" type="line" smooth="yes"/>
      <point x="255" y="485"/>
      <point x="244" y="456"/>
      <point x="244" y="404" type="curve" smooth="yes"/>
      <point x="244" y="366" type="line"/>
      <point x="252" y="366" type="line"/>
      <point x="252" y="395" type="line" smooth="yes"/>
      <point x="252" y="418"/>
      <point x="263" y="426"/>
      <point x="288" y="426" type="curve" smooth="yes"/>
      <point x="386" y="426" type="line" smooth="yes"/>
      <point x="412" y="426"/>
      <point x="417" y="421"/>
      <point x="417" y="395" type="curve" smooth="yes"/>
      <point x="417" y="231" type="line"/>
    </contour>
    <contour>
      <point x="68" y="669" type="line"/>
      <point x="68" y="0" type="line"/>
      <point x="252" y="0" type="line"/>
      <point x="252" y="669" type="line"/>
    </contour>
  </outline>
</glyph>
<glyph name="c" format="1">
  <advance width="627"/>
  <unicode hex="0063"/>
  <outline>
    <contour>
      <point x="245" y="395" type="line"/>
      <point x="245" y="421"/>
      <point x="250" y="426"/>
      <point x="276" y="426" type="curve" smooth="yes"/>
      <point x="358" y="426" type="line"/>
      <point x="358" y="485" type="line"/>
      <point x="140" y="485" type="line" smooth="yes"/>
      <point x="87" y="485"/>
      <point x="61" y="459"/>
      <point x="61" y="406" type="curve" smooth="yes"/>
      <point x="61" y="79" type="line" smooth="yes"/>
      <point x="61" y="26"/>
      <point x="87" y="0"/>
      <point x="140" y="0" type="curve" smooth="yes"/>
      <point x="355" y="0" type="line"/>
      <point x="355" y="59" type="line"/>
      <point x="276" y="59" type="line" smooth="yes"/>
      <point x="250" y="59"/>
      <point x="245" y="64"/>
      <point x="245" y="90" type="curve" smooth="yes"/>
    </contour>
    <contour>
      <point x="404" y="312" type="line"/>
      <point x="583" y="312" type="line"/>
      <point x="583" y="406" type="line" smooth="yes"/>
      <point x="583" y="459"/>
      <point x="557" y="485"/>
      <point x="504" y="485" type="curve" smooth="yes"/>
      <point x="290" y="485" type="line"/>
      <point x="290" y="426" type="line"/>
      <point x="373" y="426" type="line" smooth="yes"/>
      <point x="399" y="426"/>
      <point x="404" y="421"/>
      <point x="404" y="395" type="curve" smooth="yes"/>
    </contour>
    <contour>
      <point x="404" y="90" type="line"/>
      <point x="404" y="64"/>
      <point x="399" y="59"/>
      <point x="373" y="59" type="curve" smooth="yes"/>
      <point x="290" y="59" type="line"/>
      <point x="290" y="0" type="line"/>
      <point x="504" y="0" type="line" smooth="yes"/>
      <point x="557" y="0"/>
      <point x="583" y="26"/>
      <point x="583" y="79" type="curve" smooth="yes"/>
      <point x="583" y="171" type="line"/>
      <point x="404" y="171" type="line"/>
    </contour>
  </outline>
</glyph>
<glyph name="e" format="1">
  <advance width="658"/>
  <unicode hex="0065"/>
  <outline>
    <contour>
      <point x="245" y="395" type="line"/>
      <point x="245" y="421"/>
      <point x="250" y="426"/>
      <point x="276" y="426" type="curve" smooth="yes"/>
      <point x="379" y="426" type="line"/>
      <point x="379" y="485" type="line"/>
      <point x="140" y="485" type="line" smooth="yes"/>
      <point x="87" y="485"/>
      <point x="61" y="459"/>
      <point x="61" y="406" type="curve" smooth="yes"/>
      <point x="61" y="79" type="line" smooth="yes"/>
      <point x="61" y="26"/>
      <point x="87" y="0"/>
      <point x="140" y="0" type="curve" smooth="yes"/>
      <point x="372" y="0" type="line"/>
      <point x="372" y="59" type="line"/>
      <point x="276" y="59" type="line" smooth="yes"/>
      <point x="250" y="59"/>
      <point x="245" y="64"/>
      <point x="245" y="90" type="curve" smooth="yes"/>
    </contour>
    <contour>
      <point x="426" y="248" type="line"/>
      <point x="604" y="248" type="line"/>
      <point x="604" y="406" type="line" smooth="yes"/>
      <point x="604" y="459"/>
      <point x="578" y="485"/>
      <point x="525" y="485" type="curve" smooth="yes"/>
      <point x="297" y="485" type="line"/>
      <point x="297" y="426" type="line"/>
      <point x="395" y="426" type="line" smooth="yes"/>
      <point x="421" y="426"/>
      <point x="426" y="421"/>
      <point x="426" y="395" type="curve" smooth="yes"/>
    </contour>
    <contour>
      <point x="425" y="90" type="line"/>
      <point x="425" y="64"/>
      <point x="420" y="59"/>
      <point x="394" y="59" type="curve" smooth="yes"/>
      <point x="297" y="59" type="line"/>
      <point x="297" y="0" type="line"/>
      <point x="524" y="0" type="line" smooth="yes"/>
      <point x="577" y="0"/>
      <point x="603" y="26"/>
      <point x="603" y="79" type="curve" smooth="yes"/>
      <point x="603" y="154" type="line"/>
      <point x="425" y="154" type="line"/>
    </contour>
    <contour>
      <point x="604" y="278" type="line"/>
      <point x="151" y="278" type="line"/>
      <point x="151" y="219" type="line"/>
      <point x="604" y="219" type="line"/>
    </contour>
  </outline>
</glyph>
<glyph name="f" format="1">
  <advance width="413"/>
  <unicode hex="0066"/>
  <outline>
    <contour>
      <point x="284" y="578" type="line"/>
      <point x="284" y="604"/>
      <point x="289" y="609"/>
      <point x="315" y="609" type="curve" smooth="yes"/>
      <point x="406" y="609" type="line"/>
      <point x="406" y="669" type="line"/>
      <point x="179" y="669" type="line" smooth="yes"/>
      <point x="126" y="669"/>
      <point x="100" y="643"/>
      <point x="100" y="590" type="curve" smooth="yes"/>
      <point x="100" y="0" type="line"/>
      <point x="284" y="0" type="line"/>
    </contour>
    <contour>
      <point x="406" y="485" type="line"/>
      <point x="28" y="485" type="line"/>
      <point x="28" y="426" type="line"/>
      <point x="406" y="426" type="line"/>
    </contour>
  </outline>
</glyph>
<glyph name="g" format="1">
  <advance width="658"/>
  <unicode hex="0067"/>
  <outline>
    <contour>
      <point x="61" y="256" type="line"/>
      <point x="61" y="79" type="line" smooth="yes"/>
      <point x="61" y="26"/>
      <point x="87" y="0"/>
      <point x="140" y="0" type="curve" smooth="yes"/>
      <point x="353" y="0" type="line" smooth="yes"/>
      <point x="407" y="0"/>
      <point x="418" y="29"/>
      <point x="418" y="81" type="curve" smooth="yes"/>
      <point x="418" y="115" type="line"/>
      <point x="410" y="115" type="line"/>
      <point x="410" y="90" type="line" smooth="yes"/>
      <point x="410" y="68"/>
      <point x="399" y="59"/>
      <point x="374" y="59" type="curve" smooth="yes"/>
      <point x="276" y="59" type="line" smooth="yes"/>
      <point x="250" y="59"/>
      <point x="245" y="64"/>
      <point x="245" y="90" type="curve" smooth="yes"/>
      <point x="245" y="256" type="line"/>
    </contour>
    <contour>
      <point x="245" y="231" type="line"/>
      <point x="245" y="395" type="line" smooth="yes"/>
      <point x="245" y="421"/>
      <point x="250" y="426"/>
      <point x="276" y="426" type="curve" smooth="yes"/>
      <point x="374" y="426" type="line" smooth="yes"/>
      <point x="399" y="426"/>
      <point x="410" y="418"/>
      <point x="410" y="395" type="curve" smooth="yes"/>
      <point x="410" y="366" type="line"/>
      <point x="418" y="366" type="line"/>
      <point x="418" y="404" type="line" smooth="yes"/>
      <point x="418" y="456"/>
      <point x="407" y="485"/>
      <point x="353" y="485" type="curve" smooth="yes"/>
      <point x="140" y="485" type="line" smooth="yes"/>
      <point x="87" y="485"/>
      <point x="61" y="459"/>
      <point x="61" y="406" type="curve" smooth="yes"/>
      <point x="61" y="231" type="line"/>
    </contour>
    <contour>
      <point x="411" y="-51" type="line"/>
      <point x="411" y="-77"/>
      <point x="406" y="-82"/>
      <point x="380" y="-82" type="curve" smooth="yes"/>
      <point x="88" y="-82" type="line"/>
      <point x="88" y="-141" type="line"/>
      <point x="516" y="-141" type="line" smooth="yes"/>
      <point x="569" y="-141"/>
      <point x="595" y="-115"/>
      <point x="595" y="-62" type="curve" smooth="yes"/>
      <point x="595" y="30" type="line"/>
      <point x="411" y="30" type="line"/>
    </contour>
    <contour>
      <point x="594" y="22" type="line"/>
      <point x="594" y="485" type="line"/>
      <point x="410" y="485" type="line"/>
      <point x="410" y="22" type="line"/>
    </contour>
  </outline>
</glyph>
<glyph name="h" format="1">
  <advance width="662"/>
  <unicode hex="0068"/>
  <outline>
    <contour>
      <point x="601" y="0" type="line"/>
      <point x="601" y="406" type="line" smooth="yes"/>
      <point x="601" y="459"/>
      <point x="575" y="485"/>
      <point x="522" y="485" type="curve" smooth="yes"/>
      <point x="309" y="485" type="line" smooth="yes"/>
      <point x="255" y="485"/>
      <point x="244" y="456"/>
      <point x="244" y="404" type="curve" smooth="yes"/>
      <point x="244" y="367" type="line"/>
      <point x="252" y="367" type="line"/>
      <point x="252" y="395" type="line" smooth="yes"/>
      <point x="252" y="418"/>
      <point x="263" y="426"/>
      <point x="288" y="426" type="curve" smooth="yes"/>
      <point x="387" y="426" type="line" smooth="yes"/>
      <point x="413" y="426"/>
      <point x="418" y="421"/>
      <point x="418" y="395" type="curve" smooth="yes"/>
      <point x="418" y="0" type="line"/>
    </contour>
    <contour>
      <point x="252" y="0" type="line"/>
      <point x="252" y="669" type="line"/>
      <point x="68" y="669" type="line"/>
      <point x="68" y="0" type="line"/>
    </contour>
  </outline>
</glyph>
<glyph name="i" format="1">
  <advance width="327"/>
  <unicode hex="0069"/>
  <outline>
    <contour>
      <point x="255" y="0" type="line"/>
      <point x="255" y="485" type="line"/>
      <point x="71" y="485" type="line"/>
      <point x="71" y="0" type="line"/>
    </contour>
    <contour>
      <point x="68" y="558" type="line"/>
      <point x="259" y="558" type="line"/>
      <point x="259" y="669" type="line"/>
      <point x="68" y="669" type="line"/>
    </contour>
  </outline>
</glyph>
<glyph name="j" format="1">
  <advance width="323"/>
  <unicode hex="006A"/>
  <outline>
    <contour>
      <point x="71" y="-51" type="line"/>
      <point x="71" y="-77"/>
      <point x="66" y="-82"/>
      <point x="40" y="-82" type="curve" smooth="yes"/>
      <point x="-31" y="-82" type="line"/>
      <point x="-31" y="-141" type="line"/>
      <point x="177" y="-141" type="line" smooth="yes"/>
      <point x="230" y="-141"/>
      <point x="256" y="-115"/>
      <point x="256" y="-62" type="curve" smooth="yes"/>
      <point x="256" y="485" type="line"/>
      <point x="71" y="485" type="line"/>
    </contour>
    <contour>
      <point x="68" y="558" type="line"/>
      <point x="259" y="558" type="line"/>
      <point x="259" y="669" type="line"/>
      <point x="68" y="669" type="line"/>
    </contour>
  </outline>
</glyph>
<glyph name="k" format="1">
  <advance width="654"/>
  <unicode hex="006B"/>
  <outline>
    <contour>
      <point x="252" y="0" type="line"/>
      <point x="252" y="669" type="line"/>
      <point x="68" y="669" type="line"/>
      <point x="68" y="0" type="line"/>
    </contour>
    <contour>
      <point x="263" y="245" type="line"/>
      <point x="442" y="0" type="line"/>
      <point x="636" y="0" type="line"/>
      <point x="449" y="245" type="line"/>
    </contour>
    <contour>
      <point x="449" y="245" type="line"/>
      <point x="636" y="485" type="line"/>
      <point x="443" y="485" type="line"/>
      <point x="263" y="245" type="line"/>
    </contour>
  </outline>
</glyph>
<glyph name="m" format="1">
  <advance width="999"/>
  <unicode hex="006D"/>
  <outline>
    <contour>
      <point x="597" y="0" type="line"/>
      <point x="597" y="406" type="line" smooth="yes"/>
      <point x="597" y="459"/>
      <point x="571" y="485"/>
      <point x="518" y="485" type="curve" smooth="yes"/>
      <point x="308" y="485" type="line" smooth="yes"/>
      <point x="255" y="485"/>
      <point x="244" y="456"/>
      <point x="244" y="404" type="curve" smooth="yes"/>
      <point x="244" y="366" type="line"/>
      <point x="252" y="366" type="line"/>
      <point x="252" y="395" type="line" smooth="yes"/>
      <point x="252" y="418"/>
      <point x="263" y="426"/>
      <point x="288" y="426" type="curve" smooth="yes"/>
      <point x="383" y="426" type="line" smooth="yes"/>
      <point x="409" y="426"/>
      <point x="414" y="421"/>
      <point x="414" y="395" type="curve" smooth="yes"/>
      <point x="414" y="0" type="line"/>
    </contour>
    <contour>
      <point x="938" y="0" type="line"/>
      <point x="938" y="406" type="line" smooth="yes"/>
      <point x="938" y="459"/>
      <point x="912" y="485"/>
      <point x="859" y="485" type="curve" smooth="yes"/>
      <point x="658" y="485" type="line" smooth="yes"/>
      <point x="607" y="485"/>
      <point x="588" y="456"/>
      <point x="588" y="404" type="curve" smooth="yes"/>
      <point x="588" y="360" type="line"/>
      <point x="597" y="360" type="line"/>
      <point x="597" y="388" type="line" smooth="yes"/>
      <point x="597" y="411"/>
      <point x="607" y="426"/>
      <point x="635" y="426" type="curve" smooth="yes"/>
      <point x="723" y="426" type="line" smooth="yes"/>
      <point x="749" y="426"/>
      <point x="754" y="421"/>
      <point x="754" y="395" type="curve" smooth="yes"/>
      <point x="754" y="0" type="line"/>
    </contour>
    <contour>
      <point x="252" y="0" type="line"/>
      <point x="252" y="485" type="line"/>
      <point x="68" y="485" type="line"/>
      <point x="68" y="0" type="line"/>
    </contour>
  </outline>
</glyph>
<glyph name="o" format="1">
  <advance width="658"/>
  <unicode hex="006F"/>
  <outline>
    <contour>
      <point x="414" y="90" type="line"/>
      <point x="414" y="64"/>
      <point x="409" y="59"/>
      <point x="383" y="59" type="curve" smooth="yes"/>
      <point x="290" y="59" type="line"/>
      <point x="290" y="0" type="line"/>
      <point x="518" y="0" type="line" smooth="yes"/>
      <point x="571" y="0"/>
      <point x="597" y="26"/>
      <point x="597" y="79" type="curve" smooth="yes"/>
      <point x="597" y="406" type="line" smooth="yes"/>
      <point x="597" y="459"/>
      <point x="571" y="485"/>
      <point x="518" y="485" type="curve" smooth="yes"/>
      <point x="355" y="485" type="line"/>
      <point x="355" y="426" type="line"/>
      <point x="383" y="426" type="line" smooth="yes"/>
      <point x="409" y="426"/>
      <point x="414" y="421"/>
      <point x="414" y="395" type="curve" smooth="yes"/>
    </contour>
    <contour>
      <point x="244" y="395" type="line"/>
      <point x="244" y="421"/>
      <point x="249" y="426"/>
      <point x="275" y="426" type="curve" smooth="yes"/>
      <point x="360" y="426" type="line"/>
      <point x="360" y="485" type="line"/>
      <point x="140" y="485" type="line" smooth="yes"/>
      <point x="87" y="485"/>
      <point x="61" y="459"/>
      <point x="61" y="406" type="curve" smooth="yes"/>
      <point x="61" y="79" type="line" smooth="yes"/>
      <point x="61" y="26"/>
      <point x="87" y="0"/>
      <point x="140" y="0" type="curve" smooth="yes"/>
      <point x="358" y="0" type="line"/>
      <point x="358" y="59" type="line"/>
      <point x="275" y="59" type="line" smooth="yes"/>
      <point x="249" y="59"/>
      <point x="244" y="64"/>
      <point x="244" y="90" type="curve" smooth="yes"/>
    </contour>
  </outline>
</glyph>
<glyph name="p" format="1">
  <advance width="666"/>
  <unicode hex="0070"/>
  <outline>
    <contour>
      <point x="605" y="230" type="line"/>
      <point x="605" y="405" type="line" smooth="yes"/>
      <point x="605" y="458"/>
      <point x="579" y="484"/>
      <point x="526" y="484" type="curve" smooth="yes"/>
      <point x="308" y="484" type="line" smooth="yes"/>
      <point x="255" y="484"/>
      <point x="244" y="456"/>
      <point x="244" y="404" type="curve" smooth="yes"/>
      <point x="244" y="365" type="line"/>
      <point x="252" y="365" type="line"/>
      <point x="252" y="394" type="line" smooth="yes"/>
      <point x="252" y="417"/>
      <point x="263" y="425"/>
      <point x="288" y="425" type="curve" smooth="yes"/>
      <point x="390" y="425" type="line" smooth="yes"/>
      <point x="416" y="425"/>
      <point x="421" y="420"/>
      <point x="421" y="394" type="curve" smooth="yes"/>
      <point x="421" y="230" type="line"/>
    </contour>
    <contour>
      <point x="252" y="-141" type="line"/>
      <point x="252" y="402" type="line"/>
      <point x="248" y="406" type="line"/>
      <point x="248" y="484" type="line"/>
      <point x="68" y="484" type="line"/>
      <point x="68" y="-141" type="line"/>
    </contour>
    <contour>
      <point x="421" y="255" type="line"/>
      <point x="421" y="90" type="line" smooth="yes"/>
      <point x="421" y="64"/>
      <point x="416" y="59"/>
      <point x="390" y="59" type="curve" smooth="yes"/>
      <point x="288" y="59" type="line" smooth="yes"/>
      <point x="263" y="59"/>
      <point x="252" y="68"/>
      <point x="252" y="90" type="curve" smooth="yes"/>
      <point x="252" y="115" type="line"/>
      <point x="244" y="115" type="line"/>
      <point x="244" y="81" type="line" smooth="yes"/>
      <point x="244" y="29"/>
      <point x="255" y="0"/>
      <point x="308" y="0" type="curve" smooth="yes"/>
      <point x="526" y="0" type="line" smooth="yes"/>
      <point x="579" y="0"/>
      <point x="605" y="26"/>
      <point x="605" y="79" type="curve" smooth="yes"/>
      <point x="605" y="255" type="line"/>
    </contour>
  </outline>
</glyph>
<glyph name="q" format="1">
  <advance width="663"/>
  <unicode hex="0071"/>
  <outline>
    <contour>
      <point x="258" y="230" type="line"/>
      <point x="258" y="394" type="line" smooth="yes"/>
      <point x="258" y="420"/>
      <point x="263" y="425"/>
      <point x="289" y="425" type="curve" smooth="yes"/>
      <point x="390" y="425" type="line" smooth="yes"/>
      <point x="416" y="425"/>
      <point x="427" y="417"/>
      <point x="427" y="394" type="curve" smooth="yes"/>
      <point x="427" y="365" type="line"/>
      <point x="434" y="365" type="line"/>
      <point x="434" y="404" type="line" smooth="yes"/>
      <point x="434" y="456"/>
      <point x="424" y="484"/>
      <point x="370" y="484" type="curve" smooth="yes"/>
      <point x="153" y="484" type="line" smooth="yes"/>
      <point x="100" y="484"/>
      <point x="74" y="458"/>
      <point x="74" y="405" type="curve" smooth="yes"/>
      <point x="74" y="230" type="line"/>
    </contour>
    <contour>
      <point x="611" y="-141" type="line"/>
      <point x="611" y="484" type="line"/>
      <point x="430" y="484" type="line"/>
      <point x="430" y="406" type="line"/>
      <point x="427" y="402" type="line"/>
      <point x="427" y="-141" type="line"/>
    </contour>
    <contour>
      <point x="74" y="255" type="line"/>
      <point x="74" y="79" type="line" smooth="yes"/>
      <point x="74" y="26"/>
      <point x="100" y="0"/>
      <point x="153" y="0" type="curve" smooth="yes"/>
      <point x="370" y="0" type="line" smooth="yes"/>
      <point x="424" y="0"/>
      <point x="434" y="29"/>
      <point x="434" y="81" type="curve" smooth="yes"/>
      <point x="434" y="115" type="line"/>
      <point x="427" y="115" type="line"/>
      <point x="427" y="90" type="line" smooth="yes"/>
      <point x="427" y="68"/>
      <point x="416" y="59"/>
      <point x="390" y="59" type="curve" smooth="yes"/>
      <point x="289" y="59" type="line" smooth="yes"/>
      <point x="263" y="59"/>
      <point x="258" y="64"/>
      <point x="258" y="90" type="curve" smooth="yes"/>
      <point x="258" y="255" type="line"/>
    </contour>
  </outline>
</glyph>
<glyph name="r" format="1">
  <advance width="432"/>
  <unicode hex="0072"/>
  <outline>
    <contour>
      <point x="425" y="487" type="line"/>
      <point x="361" y="487" type="line" smooth="yes"/>
      <point x="278" y="487"/>
      <point x="245" y="444"/>
      <point x="245" y="385" type="curve" smooth="yes"/>
      <point x="245" y="279" type="line"/>
      <point x="252" y="279" type="line"/>
      <point x="252" y="342" type="line" smooth="yes"/>
      <point x="252" y="388"/>
      <point x="275" y="418"/>
      <point x="325" y="418" type="curve" smooth="yes"/>
      <point x="425" y="418" type="line"/>
    </contour>
    <contour>
      <point x="252" y="0" type="line"/>
      <point x="252" y="485" type="line"/>
      <point x="68" y="485" type="line"/>
      <point x="68" y="0" type="line"/>
    </contour>
  </outline>
</glyph>
<glyph name="s" format="1">
  <advance width="612"/>
  <unicode hex="0073"/>
  <outline>
    <contour>
      <point x="378" y="90" type="line"/>
      <point x="378" y="64"/>
      <point x="373" y="59"/>
      <point x="347" y="59" type="curve" smooth="yes"/>
      <point x="265" y="59" type="line" smooth="yes"/>
      <point x="239" y="59"/>
      <point x="234" y="64"/>
      <point x="234" y="90" type="curve" smooth="yes"/>
      <point x="234" y="151" type="line"/>
      <point x="55" y="151" type="line"/>
      <point x="55" y="79" type="line" smooth="yes"/>
      <point x="55" y="26"/>
      <point x="81" y="0"/>
      <point x="134" y="0" type="curve" smooth="yes"/>
      <point x="482" y="0" type="line" smooth="yes"/>
      <point x="535" y="0"/>
      <point x="561" y="26"/>
      <point x="561" y="79" type="curve" smooth="yes"/>
      <point x="561" y="192" type="line" smooth="yes"/>
      <point x="561" y="245"/>
      <point x="535" y="271"/>
      <point x="482" y="271" type="curve" smooth="yes"/>
      <point x="266" y="271" type="line" smooth="yes"/>
      <point x="240" y="271"/>
      <point x="235" y="276"/>
      <point x="235" y="302" type="curve" smooth="yes"/>
      <point x="235" y="395" type="line" smooth="yes"/>
      <point x="235" y="421"/>
      <point x="240" y="426"/>
      <point x="266" y="426" type="curve" smooth="yes"/>
      <point x="345" y="426" type="line" smooth="yes"/>
      <point x="371" y="426"/>
      <point x="376" y="421"/>
      <point x="376" y="395" type="curve" smooth="yes"/>
      <point x="376" y="334" type="line"/>
      <point x="554" y="334" type="line"/>
      <point x="554" y="406" type="line" smooth="yes"/>
      <point x="554" y="459"/>
      <point x="528" y="485"/>
      <point x="475" y="485" type="curve" smooth="yes"/>
      <point x="130" y="485" type="line" smooth="yes"/>
      <point x="77" y="485"/>
      <point x="51" y="459"/>
      <point x="51" y="406" type="curve" smooth="yes"/>
      <point x="51" y="291" type="line" smooth="yes"/>
      <point x="51" y="238"/>
      <point x="77" y="212"/>
      <point x="130" y="212" type="curve" smooth="yes"/>
      <point x="347" y="212" type="line" smooth="yes"/>
      <point x="373" y="212"/>
      <point x="378" y="207"/>
      <point x="378" y="181" type="curve" smooth="yes"/>
    </contour>
  </outline>
</glyph>
<glyph name="t" format="1">
  <advance width="407"/>
  <unicode hex="0074"/>
  <outline>
    <contour>
      <point x="280" y="596" type="line"/>
      <point x="96" y="596" type="line"/>
      <point x="96" y="79" type="line" smooth="yes"/>
      <point x="96" y="26"/>
      <point x="122" y="0"/>
      <point x="175" y="0" type="curve" smooth="yes"/>
      <point x="379" y="0" type="line"/>
      <point x="379" y="61" type="line"/>
      <point x="311" y="61" type="line" smooth="yes"/>
      <point x="285" y="61"/>
      <point x="280" y="66"/>
      <point x="280" y="92" type="curve" smooth="yes"/>
    </contour>
    <contour>
      <point x="380" y="485" type="line"/>
      <point x="18" y="485" type="line"/>
      <point x="18" y="426" type="line"/>
      <point x="380" y="426" type="line"/>
    </contour>
  </outline>
</glyph>
<glyph name="u" format="1">
  <advance width="662"/>
  <unicode hex="0075"/>
  <outline>
    <contour>
      <point x="61" y="485" type="line"/>
      <point x="61" y="79" type="line" smooth="yes"/>
      <point x="61" y="26"/>
      <point x="87" y="0"/>
      <point x="140" y="0" type="curve" smooth="yes"/>
      <point x="353" y="0" type="line" smooth="yes"/>
      <point x="407" y="0"/>
      <point x="418" y="29"/>
      <point x="418" y="81" type="curve" smooth="yes"/>
      <point x="418" y="119" type="line"/>
      <point x="410" y="119" type="line"/>
      <point x="410" y="90" type="line" smooth="yes"/>
      <point x="410" y="67"/>
      <point x="399" y="59"/>
      <point x="374" y="59" type="curve" smooth="yes"/>
      <point x="276" y="59" type="line" smooth="yes"/>
      <point x="250" y="59"/>
      <point x="245" y="64"/>
      <point x="245" y="90" type="curve" smooth="yes"/>
      <point x="245" y="485" type="line"/>
    </contour>
    <contour>
      <point x="410" y="485" type="line"/>
      <point x="410" y="0" type="line"/>
      <point x="594" y="0" type="line"/>
      <point x="594" y="485" type="line"/>
    </contour>
  </outline>
</glyph>
<glyph name="v" format="1">
  <advance width="633"/>
  <unicode hex="0076"/>
  <outline>
    <contour>
      <point x="193" y="485" type="line"/>
      <point x="315" y="114" type="line"/>
      <point x="439" y="485" type="line"/>
      <point x="620" y="485" type="line"/>
      <point x="430" y="0" type="line"/>
      <point x="202" y="0" type="line"/>
      <point x="12" y="485" type="line"/>
    </contour>
  </outline>
</glyph>
<glyph name="w" format="1">
  <advance width="926"/>
  <unicode hex="0077"/>
  <outline>
    <contour>
      <point x="740" y="485" type="line"/>
      <point x="643" y="114" type="line"/>
      <point x="546" y="485" type="line"/>
      <point x="380" y="485" type="line"/>
      <point x="283" y="114" type="line"/>
      <point x="186" y="485" type="line"/>
      <point x="13" y="485" type="line"/>
      <point x="169" y="0" type="line"/>
      <point x="377" y="0" type="line"/>
      <point x="463" y="360" type="line"/>
      <point x="549" y="0" type="line"/>
      <point x="758" y="0" type="line"/>
      <point x="913" y="485" type="line"/>
    </contour>
  </outline>
</glyph>
<glyph name="x" format="1">
  <advance width="624"/>
  <unicode hex="0078"/>
  <outline>
    <contour>
      <point x="401" y="268" type="line"/>
      <point x="596" y="485" type="line"/>
      <point x="467" y="485" type="line"/>
      <point x="339" y="338" type="line"/>
      <point x="224" y="485" type="line"/>
      <point x="10" y="485" type="line"/>
      <point x="219" y="227" type="line"/>
      <point x="16" y="0" type="line"/>
      <point x="142" y="0" type="line"/>
      <point x="280" y="155" type="line"/>
      <point x="405" y="0" type="line"/>
      <point x="621" y="0" type="line"/>
    </contour>
  </outline>
</glyph>
<glyph name="y" format="1">
  <advance width="629"/>
  <unicode hex="0079"/>
  <outline>
    <contour>
      <point x="14" y="485" type="line"/>
      <point x="206" y="0" type="line"/>
      <point x="276" y="0" type="line"/>
      <point x="261" y="-34" type="line" smooth="yes"/>
      <point x="247" y="-67"/>
      <point x="226" y="-82"/>
      <point x="177" y="-82" type="curve" smooth="yes"/>
      <point x="110" y="-82" type="line"/>
      <point x="110" y="-141" type="line"/>
      <point x="237" y="-141" type="line" smooth="yes"/>
      <point x="362" y="-141"/>
      <point x="394" y="-96"/>
      <point x="425" y="-16" type="curve" smooth="yes"/>
      <point x="625" y="485" type="line"/>
      <point x="440" y="485" type="line"/>
      <point x="322" y="119" type="line"/>
      <point x="206" y="485" type="line"/>
    </contour>
  </outline>
</glyph>
<glyph name="z" format="1">
  <advance width="543"/>
  <unicode hex="007A"/>
  <outline>
    <contour>
      <point x="500" y="485" type="line"/>
      <point x="51" y="485" type="line"/>
      <point x="51" y="426" type="line"/>
      <point x="500" y="426" type="line"/>
    </contour>
    <contour>
      <point x="303" y="426" type="line"/>
      <point x="35" y="59" type="line"/>
      <point x="228" y="59" type="line"/>
      <point x="500" y="426" type="line"/>
    </contour>
    <contour>
      <point x="509" y="59" type="line"/>
      <point x="35" y="59" type="line"/>
      <point x="35" y="0" type="line"/>
      <point x="509" y="0" type="line"/>
    </contour>
  </outline>
</glyph>
<glyph name="braceleft" format="1">
  <advance width="430"/>
  <unicode hex="007B"/>
  <outline>
    <contour>
      <point x="340" y="568" type="line"/>
      <point x="340" y="625"/>
      <point x="348" y="660"/>
      <point x="397" y="660" type="curve" smooth="yes"/>
      <point x="453" y="660" type="line"/>
      <point x="453" y="719" type="line"/>
      <point x="365" y="719" type="line" smooth="yes"/>
      <point x="220" y="719"/>
      <point x="147" y="680"/>
      <point x="147" y="534" type="curve" smooth="yes"/>
      <point x="147" y="372" type="line" smooth="yes"/>
      <point x="147" y="308"/>
      <point x="121" y="280"/>
      <point x="54" y="280" type="curve" smooth="yes"/>
      <point x="42" y="280" type="line"/>
      <point x="42" y="221" type="line"/>
      <point x="54" y="221" type="line" smooth="yes"/>
      <point x="121" y="221"/>
      <point x="147" y="194"/>
      <point x="147" y="131" type="curve" smooth="yes"/>
      <point x="147" y="-36" type="line" smooth="yes"/>
      <point x="147" y="-181"/>
      <point x="220" y="-221"/>
      <point x="365" y="-221" type="curve" smooth="yes"/>
      <point x="453" y="-221" type="line"/>
      <point x="453" y="-162" type="line"/>
      <point x="397" y="-162" type="line" smooth="yes"/>
      <point x="348" y="-162"/>
      <point x="340" y="-126"/>
      <point x="340" y="-70" type="curve" smooth="yes"/>
      <point x="340" y="123" type="line" smooth="yes"/>
      <point x="340" y="192"/>
      <point x="309" y="245"/>
      <point x="247" y="249" type="curve"/>
      <point x="309" y="252"/>
      <point x="340" y="304"/>
      <point x="340" y="375" type="curve" smooth="yes"/>
    </contour>
  </outline>
</glyph>
<glyph name="bar" format="1">
  <advance width="325"/>
  <unicode hex="007C"/>
  <outline>
    <contour>
      <point x="78" y="778" type="line"/>
      <point x="78" y="-158" type="line"/>
      <point x="248" y="-158" type="line"/>
      <point x="248" y="778" type="line"/>
    </contour>
  </outline>
</glyph>
<glyph name="braceright" format="1">
  <advance width="442"/>
  <unicode hex="007D"/>
  <outline>
    <contour>
      <point x="103" y="375" type="line"/>
      <point x="103" y="304"/>
      <point x="133" y="252"/>
      <point x="196" y="249" type="curve"/>
      <point x="133" y="245"/>
      <point x="103" y="192"/>
      <point x="103" y="123" type="curve" smooth="yes"/>
      <point x="103" y="-70" type="line" smooth="yes"/>
      <point x="103" y="-126"/>
      <point x="95" y="-162"/>
      <point x="46" y="-162" type="curve" smooth="yes"/>
      <point x="-11" y="-162" type="line"/>
      <point x="-11" y="-221" type="line"/>
      <point x="77" y="-221" type="line" smooth="yes"/>
      <point x="223" y="-221"/>
      <point x="295" y="-181"/>
      <point x="295" y="-36" type="curve" smooth="yes"/>
      <point x="295" y="131" type="line" smooth="yes"/>
      <point x="295" y="194"/>
      <point x="321" y="221"/>
      <point x="388" y="221" type="curve" smooth="yes"/>
      <point x="400" y="221" type="line"/>
      <point x="400" y="280" type="line"/>
      <point x="388" y="280" type="line" smooth="yes"/>
      <point x="321" y="280"/>
      <point x="295" y="308"/>
      <point x="295" y="372" type="curve" smooth="yes"/>
      <point x="295" y="534" type="line" smooth="yes"/>
      <point x="295" y="680"/>
      <point x="223" y="719"/>
      <point x="77" y="719" type="curve" smooth="yes"/>
      <point x="-11" y="719" type="line"/>
      <point x="-11" y="660" type="line"/>
      <point x="46" y="660" type="line" smooth="yes"/>
      <point x="95" y="660"/>
      <point x="103" y="625"/>
      <point x="103" y="568" type="curve" smooth="yes"/>
    </contour>
  </outline>
</glyph>
<glyph name="asciitilde" format="1">
  <advance width="803"/>
  <unicode hex="007E"/>
  <outline>
    <contour>
      <point x="277" y="260" type="curve" smooth="yes"/>
      <point x="372" y="260"/>
      <point x="427" y="162"/>
      <point x="525" y="162" type="curve" smooth="yes"/>
      <point x="670" y="162" type="line" smooth="yes"/>
      <point x="724" y="162"/>
      <point x="748" y="190"/>
      <point x="748" y="241" type="curve" smooth="yes"/>
      <point x="748" y="335" type="line"/>
      <point x="566" y="335" type="line"/>
      <point x="566" y="273" type="line" smooth="yes"/>
      <point x="566" y="245"/>
      <point x="557" y="237"/>
      <point x="526" y="237" type="curve" smooth="yes"/>
      <point x="439" y="237"/>
      <point x="396" y="335"/>
      <point x="279" y="335" type="curve" smooth="yes"/>
      <point x="133" y="335" type="line" smooth="yes"/>
      <point x="79" y="335"/>
      <point x="55" y="308"/>
      <point x="55" y="257" type="curve" smooth="yes"/>
      <point x="55" y="163" type="line"/>
      <point x="237" y="163" type="line"/>
      <point x="237" y="224" type="line" smooth="yes"/>
      <point x="237" y="252"/>
      <point x="246" y="260"/>
    </contour>
  </outline>
</glyph>
<glyph name="exclamdown" format="1">
  <advance width="361"/>
  <unicode hex="00A1"/>
  <outline>
    <contour>
      <point x="106" y="275" type="line"/>
      <point x="73" y="-138" type="line"/>
      <point x="287" y="-138" type="line"/>
      <point x="255" y="275" type="line"/>
    </contour>
    <contour>
      <point x="81" y="484" type="line"/>
      <point x="81" y="347" type="line"/>
      <point x="279" y="347" type="line"/>
      <point x="279" y="484" type="line"/>
    </contour>
  </outline>
</glyph>
<glyph name="cent" format="1">
  <advance width="618"/>
  <unicode hex="00A2"/>
  <outline>
    <contour>
      <point x="411" y="458" type="line"/>
      <point x="411" y="562" type="line"/>
      <point x="224" y="562" type="line"/>
      <point x="224" y="458" type="line"/>
    </contour>
    <contour>
      <point x="411" y="-79" type="line"/>
      <point x="411" y="25" type="line"/>
      <point x="224" y="25" type="line"/>
      <point x="224" y="-79" type="line"/>
    </contour>
    <contour>
      <point x="240" y="395" type="line"/>
      <point x="240" y="421"/>
      <point x="245" y="426"/>
      <point x="271" y="426" type="curve" smooth="yes"/>
      <point x="353" y="426" type="line"/>
      <point x="353" y="485" type="line"/>
      <point x="135" y="485" type="line" smooth="yes"/>
      <point x="82" y="485"/>
      <point x="56" y="459"/>
      <point x="56" y="406" type="curve" smooth="yes"/>
      <point x="56" y="79" type="line" smooth="yes"/>
      <point x="56" y="26"/>
      <point x="82" y="0"/>
      <point x="135" y="0" type="curve" smooth="yes"/>
      <point x="350" y="0" type="line"/>
      <point x="350" y="59" type="line"/>
      <point x="271" y="59" type="line" smooth="yes"/>
      <point x="245" y="59"/>
      <point x="240" y="64"/>
      <point x="240" y="90" type="curve" smooth="yes"/>
    </contour>
    <contour>
      <point x="399" y="312" type="line"/>
      <point x="578" y="312" type="line"/>
      <point x="578" y="406" type="line" smooth="yes"/>
      <point x="578" y="459"/>
      <point x="552" y="485"/>
      <point x="499" y="485" type="curve" smooth="yes"/>
      <point x="285" y="485" type="line"/>
      <point x="285" y="426" type="line"/>
      <point x="368" y="426" type="line" smooth="yes"/>
      <point x="394" y="426"/>
      <point x="399" y="421"/>
      <point x="399" y="395" type="curve" smooth="yes"/>
    </contour>
    <contour>
      <point x="399" y="90" type="line"/>
      <point x="399" y="64"/>
      <point x="394" y="59"/>
      <point x="368" y="59" type="curve" smooth="yes"/>
      <point x="285" y="59" type="line"/>
      <point x="285" y="0" type="line"/>
      <point x="499" y="0" type="line" smooth="yes"/>
      <point x="552" y="0"/>
      <point x="578" y="26"/>
      <point x="578" y="79" type="curve" smooth="yes"/>
      <point x="578" y="171" type="line"/>
      <point x="399" y="171" type="line"/>
    </contour>
  </outline>
</glyph>
<glyph name="sterling" format="1">
  <advance width="706"/>
  <unicode hex="00A3"/>
  <outline>
    <contour>
      <point x="309" y="532" type="line"/>
      <point x="309" y="558"/>
      <point x="314" y="563"/>
      <point x="340" y="563" type="curve" smooth="yes"/>
      <point x="438" y="563" type="line" smooth="yes"/>
      <point x="464" y="563"/>
      <point x="469" y="558"/>
      <point x="469" y="532" type="curve" smooth="yes"/>
      <point x="469" y="421" type="line"/>
      <point x="662" y="421" type="line"/>
      <point x="662" y="543" type="line" smooth="yes"/>
      <point x="662" y="596"/>
      <point x="636" y="622"/>
      <point x="583" y="622" type="curve" smooth="yes"/>
      <point x="195" y="622" type="line" smooth="yes"/>
      <point x="142" y="622"/>
      <point x="116" y="596"/>
      <point x="116" y="543" type="curve" smooth="yes"/>
      <point x="116" y="208" type="line" smooth="yes"/>
      <point x="116" y="142"/>
      <point x="105" y="90"/>
      <point x="47" y="80" type="curve"/>
      <point x="47" y="0" type="line"/>
      <point x="670" y="0" type="line"/>
      <point x="670" y="101" type="line"/>
      <point x="268" y="101" type="line"/>
      <point x="304" y="114"/>
      <point x="309" y="159"/>
      <point x="309" y="216" type="curve" smooth="yes"/>
    </contour>
    <contour>
      <point x="43" y="270" type="line"/>
      <point x="545" y="270" type="line"/>
      <point x="545" y="329" type="line"/>
      <point x="43" y="329" type="line"/>
    </contour>
  </outline>
</glyph>
<glyph name="currency" format="1">
  <advance width="790"/>
  <unicode hex="00A4"/>
  <outline>
    <contour>
      <point x="683" y="345" type="line"/>
      <point x="683" y="434"/>
      <point x="642" y="488"/>
      <point x="506" y="488" type="curve" smooth="yes"/>
      <point x="285" y="488" type="line" smooth="yes"/>
      <point x="148" y="488"/>
      <point x="108" y="434"/>
      <point x="108" y="345" type="curve" smooth="yes"/>
      <point x="108" y="252" type="line" smooth="yes"/>
      <point x="108" y="161"/>
      <point x="148" y="108"/>
      <point x="285" y="108" type="curve" smooth="yes"/>
      <point x="506" y="108" type="line" smooth="yes"/>
      <point x="642" y="108"/>
      <point x="683" y="161"/>
      <point x="683" y="252" type="curve" smooth="yes"/>
    </contour>
    <contour>
      <point x="346" y="167" type="line"/>
      <point x="274" y="167"/>
      <point x="248" y="175"/>
      <point x="248" y="248" type="curve" smooth="yes"/>
      <point x="248" y="332" type="line" smooth="yes"/>
      <point x="248" y="405"/>
      <point x="274" y="429"/>
      <point x="346" y="429" type="curve" smooth="yes"/>
      <point x="446" y="429" type="line" smooth="yes"/>
      <point x="517" y="429"/>
      <point x="543" y="405"/>
      <point x="543" y="332" type="curve" smooth="yes"/>
      <point x="543" y="248" type="line" smooth="yes"/>
      <point x="543" y="175"/>
      <point x="517" y="167"/>
      <point x="446" y="167" type="curve" smooth="yes"/>
    </contour>
    <contour>
      <point x="277" y="447" type="line"/>
      <point x="156" y="565" type="line"/>
      <point x="59" y="466" type="line"/>
      <point x="180" y="347" type="line"/>
    </contour>
    <contour>
      <point x="610" y="347" type="line"/>
      <point x="731" y="466" type="line"/>
      <point x="634" y="565" type="line"/>
      <point x="513" y="447" type="line"/>
    </contour>
    <contour>
      <point x="180" y="247" type="line"/>
      <point x="59" y="129" type="line"/>
      <point x="156" y="30" type="line"/>
      <point x="277" y="148" type="line"/>
    </contour>
    <contour>
      <point x="513" y="148" type="line"/>
      <point x="634" y="30" type="line"/>
      <point x="731" y="129" type="line"/>
      <point x="610" y="247" type="line"/>
    </contour>
  </outline>
</glyph>
<glyph name="yen" format="1">
  <advance width="733"/>
  <unicode hex="00A5"/>
  <outline>
    <contour>
      <point x="277" y="328" type="line"/>
      <point x="78" y="328" type="line"/>
      <point x="78" y="269" type="line"/>
      <point x="277" y="269" type="line"/>
    </contour>
    <contour>
      <point x="664" y="200" type="line"/>
      <point x="78" y="200" type="line"/>
      <point x="78" y="141" type="line"/>
      <point x="664" y="141" type="line"/>
    </contour>
    <contour>
      <point x="455" y="182" type="line"/>
      <point x="711" y="622" type="line"/>
      <point x="522" y="622" type="line"/>
      <point x="371" y="309" type="line"/>
      <point x="212" y="622" type="line"/>
      <point x="22" y="622" type="line"/>
      <point x="290" y="182" type="line"/>
    </contour>
    <contour>
      <point x="276" y="256" type="line"/>
      <point x="276" y="0" type="line"/>
      <point x="469" y="0" type="line"/>
      <point x="469" y="256" type="line"/>
    </contour>
    <contour>
      <point x="465" y="269" type="line"/>
      <point x="664" y="269" type="line"/>
      <point x="664" y="328" type="line"/>
      <point x="465" y="328" type="line"/>
    </contour>
  </outline>
</glyph>
<glyph name="brokenbar" format="1">
  <advance width="318"/>
  <unicode hex="00A6"/>
  <outline>
    <contour>
      <point x="74" y="252" type="line"/>
      <point x="74" y="-158" type="line"/>
      <point x="244" y="-158" type="line"/>
      <point x="244" y="252" type="line"/>
    </contour>
    <contour>
      <point x="244" y="369" type="line"/>
      <point x="244" y="778" type="line"/>
      <point x="74" y="778" type="line"/>
      <point x="74" y="369" type="line"/>
    </contour>
  </outline>
</glyph>
<glyph name="section" format="1">
  <advance width="868"/>
  <unicode hex="00A7"/>
  <outline>
    <contour>
      <point x="668" y="190" type="curve"/>
      <point x="695" y="194"/>
      <point x="726" y="215"/>
      <point x="726" y="266" type="curve" smooth="yes"/>
      <point x="726" y="365" type="line" smooth="yes"/>
      <point x="726" y="418"/>
      <point x="700" y="444"/>
      <point x="647" y="444" type="curve" smooth="yes"/>
      <point x="434" y="444" type="line" smooth="yes"/>
      <point x="408" y="444"/>
      <point x="403" y="449"/>
      <point x="403" y="475" type="curve" smooth="yes"/>
      <point x="403" y="565" type="line" smooth="yes"/>
      <point x="403" y="591"/>
      <point x="408" y="596"/>
      <point x="434" y="596" type="curve" smooth="yes"/>
      <point x="514" y="596" type="line" smooth="yes"/>
      <point x="540" y="596"/>
      <point x="545" y="591"/>
      <point x="545" y="565" type="curve" smooth="yes"/>
      <point x="545" y="511" type="line"/>
      <point x="733" y="511" type="line"/>
      <point x="733" y="576" type="line" smooth="yes"/>
      <point x="733" y="629"/>
      <point x="707" y="655"/>
      <point x="654" y="655" type="curve" smooth="yes"/>
      <point x="293" y="655" type="line" smooth="yes"/>
      <point x="240" y="655"/>
      <point x="214" y="629"/>
      <point x="214" y="576" type="curve" smooth="yes"/>
      <point x="214" y="464" type="line" smooth="yes"/>
      <point x="214" y="423"/>
      <point x="240" y="409"/>
      <point x="258" y="404" type="curve"/>
      <point x="230" y="399"/>
      <point x="200" y="372"/>
      <point x="200" y="322" type="curve" smooth="yes"/>
      <point x="200" y="229" type="line" smooth="yes"/>
      <point x="200" y="176"/>
      <point x="226" y="150"/>
      <point x="279" y="150" type="curve" smooth="yes"/>
      <point x="492" y="150" type="line" smooth="yes"/>
      <point x="518" y="150"/>
      <point x="523" y="145"/>
      <point x="523" y="119" type="curve" smooth="yes"/>
      <point x="523" y="30" type="line" smooth="yes"/>
      <point x="523" y="4"/>
      <point x="518" y="-1"/>
      <point x="492" y="-1" type="curve" smooth="yes"/>
      <point x="413" y="-1" type="line" smooth="yes"/>
      <point x="387" y="-1"/>
      <point x="382" y="4"/>
      <point x="382" y="30" type="curve" smooth="yes"/>
      <point x="382" y="84" type="line"/>
      <point x="193" y="84" type="line"/>
      <point x="193" y="19" type="line" smooth="yes"/>
      <point x="193" y="-34"/>
      <point x="219" y="-60"/>
      <point x="272" y="-60" type="curve" smooth="yes"/>
      <point x="632" y="-60" type="line" smooth="yes"/>
      <point x="685" y="-60"/>
      <point x="711" y="-34"/>
      <point x="711" y="19" type="curve" smooth="yes"/>
      <point x="711" y="123" type="line" smooth="yes"/>
      <point x="711" y="164"/>
      <point x="684" y="184"/>
    </contour>
    <contour>
      <point x="507" y="385" type="line"/>
      <point x="533" y="385"/>
      <point x="538" y="380"/>
      <point x="538" y="354" type="curve" smooth="yes"/>
      <point x="538" y="240" type="line" smooth="yes"/>
      <point x="538" y="214"/>
      <point x="533" y="209"/>
      <point x="507" y="209" type="curve" smooth="yes"/>
      <point x="420" y="209" type="line" smooth="yes"/>
      <point x="394" y="209"/>
      <point x="389" y="214"/>
      <point x="389" y="240" type="curve" smooth="yes"/>
      <point x="389" y="354" type="line" smooth="yes"/>
      <point x="389" y="380"/>
      <point x="394" y="385"/>
      <point x="420" y="385" type="curve" smooth="yes"/>
    </contour>
  </outline>
</glyph>
<glyph name="dieresis" format="1">
  <advance width="667"/>
  <unicode hex="00A8"/>
  <outline>
    <contour>
      <point x="384" y="646" type="line"/>
      <point x="384" y="526" type="line"/>
      <point x="581" y="526" type="line"/>
      <point x="581" y="646" type="line"/>
    </contour>
    <contour>
      <point x="86" y="646" type="line"/>
      <point x="86" y="526" type="line"/>
      <point x="283" y="526" type="line"/>
      <point x="283" y="646" type="line"/>
    </contour>
  </outline>
</glyph>
<glyph name="copyright" format="1">
  <advance width="1073"/>
  <unicode hex="00A9"/>
  <outline>
    <contour>
      <point x="1012" y="339" type="line"/>
      <point x="1012" y="518"/>
      <point x="941" y="622"/>
      <point x="700" y="622" type="curve" smooth="yes"/>
      <point x="372" y="622" type="line" smooth="yes"/>
      <point x="131" y="622"/>
      <point x="60" y="518"/>
      <point x="60" y="339" type="curve" smooth="yes"/>
      <point x="60" y="280" type="line" smooth="yes"/>
      <point x="60" y="101"/>
      <point x="131" y="0"/>
      <point x="372" y="0" type="curve" smooth="yes"/>
      <point x="700" y="0" type="line" smooth="yes"/>
      <point x="941" y="0"/>
      <point x="1012" y="101"/>
      <point x="1012" y="280" type="curve" smooth="yes"/>
    </contour>
    <contour>
      <point x="404" y="59" type="line"/>
      <point x="264" y="59"/>
      <point x="215" y="126"/>
      <point x="215" y="268" type="curve" smooth="yes"/>
      <point x="215" y="351" type="line" smooth="yes"/>
      <point x="215" y="493"/>
      <point x="264" y="563"/>
      <point x="404" y="563" type="curve" smooth="yes"/>
      <point x="669" y="563" type="line" smooth="yes"/>
      <point x="809" y="563"/>
      <point x="857" y="493"/>
      <point x="857" y="351" type="curve" smooth="yes"/>
      <point x="857" y="268" type="line" smooth="yes"/>
      <point x="857" y="126"/>
      <point x="809" y="59"/>
      <point x="669" y="59" type="curve" smooth="yes"/>
    </contour>
    <contour>
      <point x="602" y="240" type="line"/>
      <point x="602" y="214"/>
      <point x="597" y="209"/>
      <point x="571" y="209" type="curve" smooth="yes"/>
      <point x="503" y="209" type="line" smooth="yes"/>
      <point x="477" y="209"/>
      <point x="472" y="214"/>
      <point x="472" y="240" type="curve" smooth="yes"/>
      <point x="472" y="387" type="line" smooth="yes"/>
      <point x="472" y="413"/>
      <point x="477" y="418"/>
      <point x="503" y="418" type="curve" smooth="yes"/>
      <point x="571" y="418" type="line" smooth="yes"/>
      <point x="597" y="418"/>
      <point x="602" y="413"/>
      <point x="602" y="387" type="curve" smooth="yes"/>
      <point x="602" y="350" type="line"/>
      <point x="736" y="350" type="line"/>
      <point x="736" y="398" type="line" smooth="yes"/>
      <point x="736" y="451"/>
      <point x="710" y="477"/>
      <point x="657" y="477" type="curve" smooth="yes"/>
      <point x="418" y="477" type="line" smooth="yes"/>
      <point x="365" y="477"/>
      <point x="339" y="451"/>
      <point x="339" y="398" type="curve" smooth="yes"/>
      <point x="339" y="229" type="line" smooth="yes"/>
      <point x="339" y="176"/>
      <point x="365" y="150"/>
      <point x="418" y="150" type="curve" smooth="yes"/>
      <point x="657" y="150" type="line" smooth="yes"/>
      <point x="710" y="150"/>
      <point x="736" y="176"/>
      <point x="736" y="229" type="curve" smooth="yes"/>
      <point x="736" y="278" type="line"/>
      <point x="602" y="278" type="line"/>
    </contour>
  </outline>
</glyph>
<glyph name="ordfeminine" format="1">
  <advance width="457"/>
  <unicode hex="00AA"/>
  <outline>
    <contour>
      <point x="174" y="442" type="line"/>
      <point x="174" y="559" type="line" smooth="yes"/>
      <point x="174" y="577"/>
      <point x="177" y="580"/>
      <point x="196" y="580" type="curve" smooth="yes"/>
      <point x="254" y="580" type="line" smooth="yes"/>
      <point x="273" y="580"/>
      <point x="281" y="574"/>
      <point x="281" y="558" type="curve" smooth="yes"/>
      <point x="281" y="539" type="line"/>
      <point x="286" y="539" type="line"/>
      <point x="286" y="565" type="line" smooth="yes"/>
      <point x="286" y="601"/>
      <point x="279" y="622"/>
      <point x="241" y="622" type="curve" smooth="yes"/>
      <point x="100" y="622" type="line" smooth="yes"/>
      <point x="62" y="622"/>
      <point x="44" y="604"/>
      <point x="44" y="566" type="curve" smooth="yes"/>
      <point x="44" y="442" type="line"/>
    </contour>
    <contour>
      <point x="411" y="280" type="line"/>
      <point x="411" y="622" type="line"/>
      <point x="281" y="622" type="line"/>
      <point x="281" y="280" type="line"/>
    </contour>
    <contour>
      <point x="44" y="459" type="line"/>
      <point x="44" y="335" type="line" smooth="yes"/>
      <point x="44" y="298"/>
      <point x="62" y="280"/>
      <point x="100" y="280" type="curve" smooth="yes"/>
      <point x="241" y="280" type="line" smooth="yes"/>
      <point x="279" y="280"/>
      <point x="286" y="300"/>
      <point x="286" y="337" type="curve" smooth="yes"/>
      <point x="286" y="362" type="line"/>
      <point x="281" y="362" type="line"/>
      <point x="281" y="344" type="line" smooth="yes"/>
      <point x="281" y="328"/>
      <point x="273" y="322"/>
      <point x="254" y="322" type="curve" smooth="yes"/>
      <point x="196" y="322" type="line" smooth="yes"/>
      <point x="177" y="322"/>
      <point x="174" y="326"/>
      <point x="174" y="344" type="curve" smooth="yes"/>
      <point x="174" y="459" type="line"/>
    </contour>
  </outline>
</glyph>
<glyph name="guillemotleft" format="1">
  <advance width="694"/>
  <unicode hex="00AB"/>
  <outline>
    <contour>
      <point x="389" y="97" type="line"/>
      <point x="581" y="97" type="line"/>
      <point x="445" y="248" type="line"/>
      <point x="581" y="398" type="line"/>
      <point x="389" y="398" type="line"/>
      <point x="251" y="248" type="line"/>
    </contour>
    <contour>
      <point x="248" y="97" type="line"/>
      <point x="440" y="97" type="line"/>
      <point x="305" y="248" type="line"/>
      <point x="440" y="398" type="line"/>
      <point x="248" y="398" type="line"/>
      <point x="110" y="248" type="line"/>
    </contour>
  </outline>
</glyph>
<glyph name="logicalnot" format="1">
  <advance width="779"/>
  <unicode hex="00AC"/>
  <outline>
    <contour>
      <point x="642" y="401" type="line"/>
      <point x="66" y="401" type="line"/>
      <point x="66" y="265" type="line"/>
      <point x="642" y="265" type="line"/>
    </contour>
    <contour>
      <point x="704" y="124" type="line"/>
      <point x="704" y="401" type="line"/>
      <point x="596" y="401" type="line"/>
      <point x="596" y="124" type="line"/>
    </contour>
  </outline>
</glyph>
<glyph name="softhyphen" format="1">
  <advance width="403"/>
  <unicode hex="00AD"/>
  <outline>
    <contour>
      <point x="55" y="249" type="line"/>
      <point x="348" y="249" type="line"/>
      <point x="348" y="308" type="line"/>
      <point x="55" y="308" type="line"/>
    </contour>
  </outline>
</glyph>
<glyph name="registered" format="1">
  <advance width="651"/>
  <unicode hex="00AE"/>
  <outline>
    <contour>
      <point x="602" y="538" type="line"/>
      <point x="602" y="641"/>
      <point x="561" y="701"/>
      <point x="422" y="701" type="curve" smooth="yes"/>
      <point x="230" y="701" type="line" smooth="yes"/>
      <point x="90" y="701"/>
      <point x="49" y="641"/>
      <point x="49" y="538" type="curve" smooth="yes"/>
      <point x="49" y="505" type="line" smooth="yes"/>
      <point x="49" y="402"/>
      <point x="90" y="343"/>
      <point x="230" y="343" type="curve" smooth="yes"/>
      <point x="422" y="343" type="line" smooth="yes"/>
      <point x="561" y="343"/>
      <point x="602" y="402"/>
      <point x="602" y="505" type="curve" smooth="yes"/>
    </contour>
    <contour>
      <point x="249" y="381" type="line"/>
      <point x="171" y="381"/>
      <point x="143" y="418"/>
      <point x="143" y="498" type="curve" smooth="yes"/>
      <point x="143" y="545" type="line" smooth="yes"/>
      <point x="143" y="626"/>
      <point x="171" y="664"/>
      <point x="249" y="664" type="curve" smooth="yes"/>
      <point x="403" y="664" type="line" smooth="yes"/>
      <point x="481" y="664"/>
      <point x="509" y="626"/>
      <point x="509" y="545" type="curve" smooth="yes"/>
      <point x="509" y="498" type="line" smooth="yes"/>
      <point x="509" y="418"/>
      <point x="481" y="381"/>
      <point x="403" y="381" type="curve" smooth="yes"/>
    </contour>
    <contour>
      <point x="228" y="617" type="line"/>
      <point x="228" y="430" type="line"/>
      <point x="299" y="430" type="line"/>
      <point x="299" y="496" type="line"/>
      <point x="317" y="496" type="line"/>
      <point x="356" y="430" type="line"/>
      <point x="431" y="430" type="line"/>
      <point x="387" y="498" type="line"/>
      <point x="396" y="498" type="line" smooth="yes"/>
      <point x="415" y="498"/>
      <point x="423" y="509"/>
      <point x="423" y="525" type="curve" smooth="yes"/>
      <point x="423" y="590" type="line" smooth="yes"/>
      <point x="423" y="608"/>
      <point x="413" y="617"/>
      <point x="395" y="617" type="curve" smooth="yes"/>
    </contour>
    <contour>
      <point x="351" y="532" type="line"/>
      <point x="351" y="525"/>
      <point x="350" y="523"/>
      <point x="342" y="523" type="curve" smooth="yes"/>
      <point x="299" y="523" type="line"/>
      <point x="299" y="593" type="line"/>
      <point x="342" y="593" type="line"/>
      <point x="350" y="593"/>
      <point x="351" y="591"/>
      <point x="351" y="583" type="curve"/>
    </contour>
  </outline>
</glyph>
<glyph name="macron" format="1">
  <advance width="667"/>
  <unicode hex="00AF"/>
  <outline>
    <contour>
      <point x="96" y="550" type="line"/>
      <point x="570" y="550" type="line"/>
      <point x="570" y="608" type="line"/>
      <point x="96" y="608" type="line"/>
    </contour>
  </outline>
</glyph>
<glyph name="degree" format="1">
  <advance width="633"/>
  <unicode hex="00B0"/>
  <outline>
    <contour>
      <point x="575" y="544" type="line"/>
      <point x="575" y="596"/>
      <point x="550" y="622"/>
      <point x="497" y="622" type="curve" smooth="yes"/>
      <point x="137" y="622" type="line" smooth="yes"/>
      <point x="84" y="622"/>
      <point x="59" y="596"/>
      <point x="59" y="544" type="curve" smooth="yes"/>
      <point x="59" y="388" type="line" smooth="yes"/>
      <point x="59" y="335"/>
      <point x="84" y="310"/>
      <point x="137" y="310" type="curve" smooth="yes"/>
      <point x="497" y="310" type="line" smooth="yes"/>
      <point x="550" y="310"/>
      <point x="575" y="335"/>
      <point x="575" y="388" type="curve" smooth="yes"/>
    </contour>
    <contour>
      <point x="401" y="399" type="line"/>
      <point x="401" y="373"/>
      <point x="396" y="368"/>
      <point x="370" y="368" type="curve" smooth="yes"/>
      <point x="266" y="368" type="line" smooth="yes"/>
      <point x="240" y="368"/>
      <point x="235" y="373"/>
      <point x="235" y="399" type="curve" smooth="yes"/>
      <point x="235" y="533" type="line" smooth="yes"/>
      <point x="235" y="559"/>
      <point x="240" y="564"/>
      <point x="266" y="564" type="curve" smooth="yes"/>
      <point x="370" y="564" type="line" smooth="yes"/>
      <point x="396" y="564"/>
      <point x="401" y="559"/>
      <point x="401" y="533" type="curve" smooth="yes"/>
    </contour>
  </outline>
</glyph>
<glyph name="plusminus" format="1">
  <advance width="726"/>
  <unicode hex="00B1"/>
  <outline>
    <contour>
      <point x="51" y="330" type="line"/>
      <point x="660" y="330" type="line"/>
      <point x="660" y="431" type="line"/>
      <point x="51" y="431" type="line"/>
    </contour>
    <contour>
      <point x="274" y="514" type="line"/>
      <point x="274" y="256" type="line"/>
      <point x="438" y="256" type="line"/>
      <point x="438" y="514" type="line"/>
    </contour>
    <contour>
      <point x="51" y="129" type="line"/>
      <point x="660" y="129" type="line"/>
      <point x="660" y="216" type="line"/>
      <point x="51" y="216" type="line"/>
    </contour>
  </outline>
</glyph>
<glyph name="twosuperior" format="1">
  <advance width="391"/>
  <unicode hex="00B2"/>
  <outline>
    <contour>
      <point x="152" y="563" type="line"/>
      <point x="152" y="577"/>
      <point x="155" y="580"/>
      <point x="169" y="580" type="curve" smooth="yes"/>
      <point x="224" y="580" type="line" smooth="yes"/>
      <point x="239" y="580"/>
      <point x="241" y="577"/>
      <point x="241" y="563" type="curve" smooth="yes"/>
      <point x="241" y="532" type="line" smooth="yes"/>
      <point x="241" y="507"/>
      <point x="234" y="486"/>
      <point x="213" y="468" type="curve" smooth="yes"/>
      <point x="42" y="323" type="line"/>
      <point x="42" y="280" type="line"/>
      <point x="356" y="280" type="line"/>
      <point x="356" y="323" type="line"/>
      <point x="188" y="323" type="line"/>
      <point x="319" y="429" type="line" smooth="yes"/>
      <point x="346" y="453"/>
      <point x="357" y="481"/>
      <point x="357" y="532" type="curve" smooth="yes"/>
      <point x="357" y="579" type="line" smooth="yes"/>
      <point x="357" y="608"/>
      <point x="343" y="622"/>
      <point x="314" y="622" type="curve" smooth="yes"/>
      <point x="79" y="622" type="line" smooth="yes"/>
      <point x="50" y="622"/>
      <point x="36" y="608"/>
      <point x="36" y="579" type="curve" smooth="yes"/>
      <point x="36" y="507" type="line"/>
      <point x="152" y="507" type="line"/>
    </contour>
  </outline>
</glyph>
<glyph name="threesuperior" format="1">
  <advance width="403"/>
  <unicode hex="00B3"/>
  <outline>
    <contour>
      <point x="161" y="563" type="line"/>
      <point x="161" y="577"/>
      <point x="164" y="580"/>
      <point x="178" y="580" type="curve" smooth="yes"/>
      <point x="237" y="580" type="line" smooth="yes"/>
      <point x="252" y="580"/>
      <point x="254" y="577"/>
      <point x="254" y="563" type="curve" smooth="yes"/>
      <point x="254" y="491" type="line" smooth="yes"/>
      <point x="254" y="477"/>
      <point x="252" y="474"/>
      <point x="237" y="474" type="curve" smooth="yes"/>
      <point x="168" y="474" type="line"/>
      <point x="168" y="432" type="line"/>
      <point x="237" y="432" type="line" smooth="yes"/>
      <point x="252" y="432"/>
      <point x="254" y="429"/>
      <point x="254" y="415" type="curve" smooth="yes"/>
      <point x="254" y="339" type="line" smooth="yes"/>
      <point x="254" y="325"/>
      <point x="252" y="322"/>
      <point x="237" y="322" type="curve" smooth="yes"/>
      <point x="178" y="322" type="line" smooth="yes"/>
      <point x="164" y="322"/>
      <point x="161" y="325"/>
      <point x="161" y="339" type="curve" smooth="yes"/>
      <point x="161" y="389" type="line"/>
      <point x="45" y="389" type="line"/>
      <point x="45" y="323" type="line" smooth="yes"/>
      <point x="45" y="294"/>
      <point x="59" y="280"/>
      <point x="88" y="280" type="curve" smooth="yes"/>
      <point x="327" y="280" type="line" smooth="yes"/>
      <point x="356" y="280"/>
      <point x="371" y="294"/>
      <point x="371" y="323" type="curve" smooth="yes"/>
      <point x="371" y="417" type="line" smooth="yes"/>
      <point x="371" y="441"/>
      <point x="359" y="453"/>
      <point x="338" y="455" type="curve"/>
      <point x="359" y="456"/>
      <point x="371" y="469"/>
      <point x="371" y="493" type="curve" smooth="yes"/>
      <point x="371" y="579" type="line" smooth="yes"/>
      <point x="371" y="608"/>
      <point x="356" y="622"/>
      <point x="327" y="622" type="curve" smooth="yes"/>
      <point x="88" y="622" type="line" smooth="yes"/>
      <point x="59" y="622"/>
      <point x="45" y="608"/>
      <point x="45" y="579" type="curve" smooth="yes"/>
      <point x="45" y="512" type="line"/>
      <point x="161" y="512" type="line"/>
    </contour>
  </outline>
</glyph>
<glyph name="acute" format="1">
  <advance width="667"/>
  <unicode hex="00B4"/>
  <outline>
    <contour>
      <point x="167" y="506" type="line"/>
      <point x="318" y="506" type="line"/>
      <point x="490" y="657" type="line"/>
      <point x="305" y="657" type="line"/>
    </contour>
  </outline>
</glyph>
<glyph name="mu.math" format="1">
  <advance width="670"/>
  <unicode hex="00B5"/>
  <outline>
    <contour>
      <point x="68" y="485" type="line"/>
      <point x="68" y="79" type="line" smooth="yes"/>
      <point x="68" y="26"/>
      <point x="94" y="0"/>
      <point x="147" y="0" type="curve" smooth="yes"/>
      <point x="361" y="0" type="line" smooth="yes"/>
      <point x="415" y="0"/>
      <point x="425" y="29"/>
      <point x="425" y="81" type="curve" smooth="yes"/>
      <point x="425" y="119" type="line"/>
      <point x="418" y="119" type="line"/>
      <point x="418" y="90" type="line" smooth="yes"/>
      <point x="418" y="67"/>
      <point x="407" y="59"/>
      <point x="381" y="59" type="curve" smooth="yes"/>
      <point x="283" y="59" type="line" smooth="yes"/>
      <point x="257" y="59"/>
      <point x="252" y="64"/>
      <point x="252" y="90" type="curve" smooth="yes"/>
      <point x="252" y="485" type="line"/>
    </contour>
    <contour>
      <point x="418" y="485" type="line"/>
      <point x="418" y="0" type="line"/>
      <point x="602" y="0" type="line"/>
      <point x="602" y="485" type="line"/>
    </contour>
    <contour>
      <point x="68" y="374" type="line"/>
      <point x="68" y="-141" type="line"/>
      <point x="252" y="-141" type="line"/>
      <point x="252" y="374" type="line"/>
    </contour>
  </outline>
</glyph>
<glyph name="paragraph" format="1">
  <advance width="777"/>
  <unicode hex="00B6"/>
  <outline>
    <contour>
      <point x="404" y="622" type="line"/>
      <point x="132" y="622" type="line" smooth="yes"/>
      <point x="79" y="622"/>
      <point x="53" y="596"/>
      <point x="53" y="543" type="curve" smooth="yes"/>
      <point x="53" y="291" type="line" smooth="yes"/>
      <point x="53" y="238"/>
      <point x="79" y="212"/>
      <point x="132" y="212" type="curve" smooth="yes"/>
      <point x="404" y="212" type="line"/>
    </contour>
    <contour>
      <point x="286" y="622" type="line"/>
      <point x="286" y="-141" type="line"/>
      <point x="450" y="-141" type="line"/>
      <point x="450" y="622" type="line"/>
    </contour>
    <contour>
      <point x="546" y="622" type="line"/>
      <point x="546" y="-141" type="line"/>
      <point x="710" y="-141" type="line"/>
      <point x="710" y="622" type="line"/>
    </contour>
  </outline>
</glyph>
<glyph name="periodcentered" format="1">
  <advance width="326"/>
  <unicode hex="00B7"/>
  <outline>
    <contour>
      <point x="69" y="244" type="line"/>
      <point x="266" y="244" type="line"/>
      <point x="266" y="381" type="line"/>
      <point x="69" y="381" type="line"/>
    </contour>
  </outline>
</glyph>
<glyph name="cedilla" format="1">
  <advance width="667"/>
  <unicode hex="00B8"/>
  <outline>
    <contour>
      <point x="301" y="-148" type="line"/>
      <point x="301" y="-174"/>
      <point x="295" y="-181"/>
      <point x="269" y="-181" type="curve" smooth="yes"/>
      <point x="175" y="-181" type="line"/>
      <point x="175" y="-239" type="line"/>
      <point x="392" y="-239" type="line" smooth="yes"/>
      <point x="445" y="-239"/>
      <point x="474" y="-213"/>
      <point x="474" y="-157" type="curve" smooth="yes"/>
      <point x="474" y="-47" type="line"/>
      <point x="301" y="-47" type="line"/>
    </contour>
  </outline>
</glyph>
<glyph name="onesuperior" format="1">
  <advance width="283"/>
  <unicode hex="00B9"/>
  <outline>
    <contour>
      <point x="170" y="622" type="line"/>
      <point x="17" y="622" type="line"/>
      <point x="17" y="580" type="line"/>
      <point x="170" y="580" type="line"/>
    </contour>
    <contour>
      <point x="96" y="622" type="line"/>
      <point x="96" y="280" type="line"/>
      <point x="226" y="280" type="line"/>
      <point x="226" y="622" type="line"/>
    </contour>
  </outline>
</glyph>
<glyph name="ordmasculine" format="1">
  <advance width="453"/>
  <unicode hex="00BA"/>
  <outline>
    <contour>
      <point x="395" y="575" type="line"/>
      <point x="395" y="607"/>
      <point x="379" y="622"/>
      <point x="348" y="622" type="curve" smooth="yes"/>
      <point x="95" y="622" type="line" smooth="yes"/>
      <point x="63" y="622"/>
      <point x="48" y="607"/>
      <point x="48" y="575" type="curve" smooth="yes"/>
      <point x="48" y="327" type="line" smooth="yes"/>
      <point x="48" y="295"/>
      <point x="63" y="280"/>
      <point x="95" y="280" type="curve" smooth="yes"/>
      <point x="348" y="280" type="line" smooth="yes"/>
      <point x="379" y="280"/>
      <point x="395" y="295"/>
      <point x="395" y="327" type="curve" smooth="yes"/>
    </contour>
    <contour>
      <point x="271" y="341" type="line"/>
      <point x="271" y="325"/>
      <point x="269" y="322"/>
      <point x="253" y="322" type="curve" smooth="yes"/>
      <point x="190" y="322" type="line" smooth="yes"/>
      <point x="174" y="322"/>
      <point x="171" y="325"/>
      <point x="171" y="341" type="curve" smooth="yes"/>
      <point x="171" y="562" type="line" smooth="yes"/>
      <point x="171" y="577"/>
      <point x="174" y="580"/>
      <point x="190" y="580" type="curve" smooth="yes"/>
      <point x="253" y="580" type="line" smooth="yes"/>
      <point x="269" y="580"/>
      <point x="271" y="577"/>
      <point x="271" y="562" type="curve" smooth="yes"/>
    </contour>
  </outline>
</glyph>
<glyph name="guillemotright" format="1">
  <advance width="682"/>
  <unicode hex="00BB"/>
  <outline>
    <contour>
      <point x="433" y="248" type="line"/>
      <point x="295" y="398" type="line"/>
      <point x="103" y="398" type="line"/>
      <point x="239" y="248" type="line"/>
      <point x="103" y="97" type="line"/>
      <point x="295" y="97" type="line"/>
    </contour>
    <contour>
      <point x="574" y="248" type="line"/>
      <point x="436" y="398" type="line"/>
      <point x="244" y="398" type="line"/>
      <point x="379" y="248" type="line"/>
      <point x="244" y="97" type="line"/>
      <point x="436" y="97" type="line"/>
    </contour>
  </outline>
</glyph>
<glyph name="onequarter" format="1">
  <advance width="986"/>
  <unicode hex="00BC"/>
  <outline>
    <contour>
      <point x="574" y="56" type="line"/>
      <point x="937" y="56" type="line"/>
      <point x="937" y="92" type="line"/>
      <point x="574" y="92" type="line"/>
    </contour>
    <contour>
      <point x="518" y="56" type="line"/>
      <point x="634" y="56" type="line"/>
      <point x="807" y="342" type="line"/>
      <point x="668" y="342" type="line"/>
      <point x="518" y="103" type="line"/>
    </contour>
    <contour>
      <point x="753" y="181" type="line"/>
      <point x="753" y="0" type="line"/>
      <point x="883" y="0" type="line"/>
      <point x="883" y="181" type="line"/>
    </contour>
    <component base="slash" xOffset="160"/>
    <component base="onesuperior" xOffset="35"/>
  </outline>
</glyph>
<glyph name="threequarters" format="1">
  <advance width="1113"/>
  <unicode hex="00BE"/>
  <outline>
    <contour>
      <point x="700" y="56" type="line"/>
      <point x="1063" y="56" type="line"/>
      <point x="1063" y="92" type="line"/>
      <point x="700" y="92" type="line"/>
    </contour>
    <contour>
      <point x="644" y="56" type="line"/>
      <point x="760" y="56" type="line"/>
      <point x="934" y="342" type="line"/>
      <point x="795" y="342" type="line"/>
      <point x="644" y="103" type="line"/>
    </contour>
    <contour>
      <point x="879" y="181" type="line"/>
      <point x="879" y="0" type="line"/>
      <point x="1009" y="0" type="line"/>
      <point x="1009" y="181" type="line"/>
    </contour>
    <component base="threesuperior" xOffset="19"/>
    <component base="slash" xOffset="289"/>
  </outline>
</glyph>
<glyph name="questiondown" format="1">
  <advance width="644"/>
  <unicode hex="00BF"/>
  <outline>
    <contour>
      <point x="247" y="109" type="line"/>
      <point x="247" y="134"/>
      <point x="252" y="141"/>
      <point x="277" y="141" type="curve" smooth="yes"/>
      <point x="381" y="141" type="line"/>
      <point x="381" y="206" type="line"/>
      <point x="140" y="206" type="line" smooth="yes"/>
      <point x="86" y="206"/>
      <point x="61" y="178"/>
      <point x="61" y="128" type="curve" smooth="yes"/>
      <point x="61" y="-60" type="line" smooth="yes"/>
      <point x="61" y="-111"/>
      <point x="86" y="-138"/>
      <point x="140" y="-138" type="curve" smooth="yes"/>
      <point x="391" y="-138" type="line"/>
      <point x="391" y="-79" type="line"/>
      <point x="277" y="-79" type="line" smooth="yes"/>
      <point x="252" y="-79"/>
      <point x="247" y="-73"/>
      <point x="247" y="-48" type="curve"/>
    </contour>
    <contour>
      <point x="443" y="141" type="line"/>
      <point x="428" y="275" type="line"/>
      <point x="272" y="275" type="line"/>
      <point x="256" y="141" type="line"/>
    </contour>
    <contour>
      <point x="451" y="484" type="line"/>
      <point x="253" y="484" type="line"/>
      <point x="253" y="347" type="line"/>
      <point x="451" y="347" type="line"/>
    </contour>
    <contour>
      <point x="435" y="-48" type="line"/>
      <point x="435" y="-73"/>
      <point x="431" y="-79"/>
      <point x="405" y="-79" type="curve" smooth="yes"/>
      <point x="303" y="-79" type="line"/>
      <point x="303" y="-138" type="line"/>
      <point x="543" y="-138" type="line" smooth="yes"/>
      <point x="597" y="-138"/>
      <point x="622" y="-111"/>
      <point x="622" y="-60" type="curve" smooth="yes"/>
      <point x="622" y="57" type="line"/>
      <point x="435" y="57" type="line"/>
    </contour>
  </outline>
</glyph>
<glyph name="Agrave" format="1">
  <advance width="735"/>
  <unicode hex="00C0"/>
  <outline>
    <contour>
      <point x="249" y="622" type="line"/>
      <point x="13" y="0" type="line"/>
      <point x="199" y="0" type="line"/>
      <point x="367" y="508" type="line"/>
      <point x="533" y="0" type="line"/>
      <point x="723" y="0" type="line"/>
      <point x="486" y="622" type="line"/>
    </contour>
    <contour>
      <point x="150" y="182" type="line"/>
      <point x="150" y="123" type="line"/>
      <point x="587" y="123" type="line"/>
      <point x="587" y="182" type="line"/>
    </contour>
    <contour>
      <point x="115" y="820" type="line"/>
      <point x="287" y="669" type="line"/>
      <point x="437" y="669" type="line"/>
      <point x="299" y="820" type="line"/>
    </contour>
  </outline>
</glyph>
<glyph name="Adieresis" format="1">
  <advance width="735"/>
  <unicode hex="00C4"/>
  <outline>
    <contour>
      <point x="249" y="622" type="line"/>
      <point x="13" y="0" type="line"/>
      <point x="199" y="0" type="line"/>
      <point x="367" y="508" type="line"/>
      <point x="533" y="0" type="line"/>
      <point x="723" y="0" type="line"/>
      <point x="486" y="622" type="line"/>
    </contour>
    <contour>
      <point x="150" y="182" type="line"/>
      <point x="150" y="123" type="line"/>
      <point x="587" y="123" type="line"/>
      <point x="587" y="182" type="line"/>
    </contour>
    <contour>
      <point x="121" y="789" type="line"/>
      <point x="121" y="669" type="line"/>
      <point x="318" y="669" type="line"/>
      <point x="318" y="789" type="line"/>
    </contour>
    <contour>
      <point x="419" y="789" type="line"/>
      <point x="419" y="669" type="line"/>
      <point x="615" y="669" type="line"/>
      <point x="615" y="789" type="line"/>
    </contour>
  </outline>
</glyph>
<glyph name="AE" format="1">
  <advance width="1072"/>
  <unicode hex="00C6"/>
  <outline>
    <contour>
      <point x="592" y="622" type="line"/>
      <point x="406" y="622" type="line"/>
      <point x="13" y="0" type="line"/>
      <point x="214" y="0" type="line"/>
    </contour>
    <contour>
      <point x="590" y="190" type="line"/>
      <point x="176" y="190" type="line"/>
      <point x="176" y="131" type="line"/>
      <point x="590" y="131" type="line"/>
    </contour>
    <contour>
      <point x="529" y="622" type="line"/>
      <point x="529" y="0" type="line"/>
      <point x="723" y="0" type="line"/>
      <point x="723" y="622" type="line"/>
    </contour>
    <contour>
      <point x="1031" y="59" type="line"/>
      <point x="596" y="59" type="line"/>
      <point x="596" y="0" type="line"/>
      <point x="1031" y="0" type="line"/>
    </contour>
    <contour>
      <point x="981" y="348" type="line"/>
      <point x="608" y="348" type="line"/>
      <point x="608" y="289" type="line"/>
      <point x="981" y="289" type="line"/>
    </contour>
    <contour>
      <point x="1018" y="622" type="line"/>
      <point x="596" y="622" type="line"/>
      <point x="596" y="563" type="line"/>
      <point x="1018" y="563" type="line"/>
    </contour>
  </outline>
</glyph>
<glyph name="Edieresis" format="1">
  <advance width="662"/>
  <unicode hex="00CB"/>
  <outline>
    <contour>
      <point x="374" y="789" type="line"/>
      <point x="374" y="669" type="line"/>
      <point x="570" y="669" type="line"/>
      <point x="570" y="789" type="line"/>
    </contour>
    <contour>
      <point x="76" y="789" type="line"/>
      <point x="76" y="669" type="line"/>
      <point x="273" y="669" type="line"/>
      <point x="273" y="789" type="line"/>
    </contour>
    <contour>
      <point x="72" y="622" type="line"/>
      <point x="72" y="0" type="line"/>
      <point x="272" y="0" type="line"/>
      <point x="272" y="622" type="line"/>
    </contour>
    <contour>
      <point x="530" y="348" type="line"/>
      <point x="158" y="348" type="line"/>
      <point x="158" y="289" type="line"/>
      <point x="530" y="289" type="line"/>
    </contour>
    <contour>
      <point x="571" y="622" type="line"/>
      <point x="146" y="622" type="line"/>
      <point x="146" y="563" type="line"/>
      <point x="571" y="563" type="line"/>
    </contour>
    <contour>
      <point x="585" y="59" type="line"/>
      <point x="146" y="59" type="line"/>
      <point x="146" y="0" type="line"/>
      <point x="585" y="0" type="line"/>
    </contour>
  </outline>
</glyph>
<glyph name="Idieresis" format="1">
  <advance width="341"/>
  <unicode hex="00CF"/>
  <outline>
    <contour>
      <point x="76" y="622" type="line"/>
      <point x="76" y="0" type="line"/>
      <point x="275" y="0" type="line"/>
      <point x="275" y="622" type="line"/>
    </contour>
    <contour>
      <point x="-70" y="788" type="line"/>
      <point x="-70" y="668" type="line"/>
      <point x="127" y="668" type="line"/>
      <point x="127" y="788" type="line"/>
    </contour>
    <contour>
      <point x="228" y="788" type="line"/>
      <point x="228" y="668" type="line"/>
      <point x="424" y="668" type="line"/>
      <point x="424" y="788" type="line"/>
    </contour>
  </outline>
</glyph>
<glyph name="Eth" format="1">
  <advance width="732"/>
  <unicode hex="00D0"/>
  <outline>
    <contour>
      <point x="475" y="374" type="line"/>
      <point x="668" y="374" type="line"/>
      <point x="668" y="543" type="line" smooth="yes"/>
      <point x="668" y="596"/>
      <point x="642" y="622"/>
      <point x="589" y="622" type="curve" smooth="yes"/>
      <point x="156" y="622" type="line"/>
      <point x="156" y="563" type="line"/>
      <point x="444" y="563" type="line" smooth="yes"/>
      <point x="470" y="563"/>
      <point x="475" y="558"/>
      <point x="475" y="532" type="curve" smooth="yes"/>
    </contour>
    <contour>
      <point x="475" y="90" type="line"/>
      <point x="475" y="64"/>
      <point x="470" y="59"/>
      <point x="444" y="59" type="curve" smooth="yes"/>
      <point x="156" y="59" type="line"/>
      <point x="156" y="0" type="line"/>
      <point x="589" y="0" type="line" smooth="yes"/>
      <point x="642" y="0"/>
      <point x="668" y="26"/>
      <point x="668" y="79" type="curve" smooth="yes"/>
      <point x="668" y="390" type="line"/>
      <point x="475" y="390" type="line"/>
    </contour>
    <contour>
      <point x="88" y="622" type="line"/>
      <point x="88" y="0" type="line"/>
      <point x="282" y="0" type="line"/>
      <point x="282" y="622" type="line"/>
    </contour>
    <contour>
      <point x="402" y="346" type="line"/>
      <point x="20" y="346" type="line"/>
      <point x="20" y="284" type="line"/>
      <point x="402" y="284" type="line"/>
    </contour>
  </outline>
</glyph>
<glyph name="Odieresis" format="1">
  <advance width="690"/>
  <unicode hex="00D6"/>
  <outline>
    <contour>
      <point x="639" y="543" type="line"/>
      <point x="639" y="596"/>
      <point x="613" y="622"/>
      <point x="560" y="622" type="curve" smooth="yes"/>
      <point x="145" y="622" type="line" smooth="yes"/>
      <point x="92" y="622"/>
      <point x="66" y="596"/>
      <point x="66" y="543" type="curve" smooth="yes"/>
      <point x="66" y="79" type="line" smooth="yes"/>
      <point x="66" y="26"/>
      <point x="92" y="0"/>
      <point x="145" y="0" type="curve" smooth="yes"/>
      <point x="560" y="0" type="line" smooth="yes"/>
      <point x="613" y="0"/>
      <point x="639" y="26"/>
      <point x="639" y="79" type="curve" smooth="yes"/>
    </contour>
    <contour>
      <point x="446" y="90" type="line"/>
      <point x="446" y="64"/>
      <point x="441" y="59"/>
      <point x="415" y="59" type="curve" smooth="yes"/>
      <point x="290" y="59" type="line" smooth="yes"/>
      <point x="264" y="59"/>
      <point x="259" y="64"/>
      <point x="259" y="90" type="curve" smooth="yes"/>
      <point x="259" y="532" type="line" smooth="yes"/>
      <point x="259" y="558"/>
      <point x="264" y="563"/>
      <point x="290" y="563" type="curve" smooth="yes"/>
      <point x="415" y="563" type="line" smooth="yes"/>
      <point x="441" y="563"/>
      <point x="446" y="558"/>
      <point x="446" y="532" type="curve" smooth="yes"/>
    </contour>
    <contour>
      <point x="404" y="789" type="line"/>
      <point x="404" y="670" type="line"/>
      <point x="600" y="670" type="line"/>
      <point x="600" y="789" type="line"/>
    </contour>
    <contour>
      <point x="106" y="789" type="line"/>
      <point x="106" y="670" type="line"/>
      <point x="303" y="670" type="line"/>
      <point x="303" y="789" type="line"/>
    </contour>
  </outline>
</glyph>
<glyph name="multiply" format="1">
  <advance width="672"/>
  <unicode hex="00D7"/>
  <outline>
    <contour>
      <point x="617" y="189" type="line"/>
      <point x="160" y="521" type="line"/>
      <point x="80" y="435" type="line"/>
      <point x="537" y="105" type="line"/>
    </contour>
    <contour>
      <point x="538" y="521" type="line"/>
      <point x="82" y="190" type="line"/>
      <point x="161" y="105" type="line"/>
      <point x="619" y="436" type="line"/>
    </contour>
  </outline>
</glyph>
<glyph name="Oslash" format="1">
  <advance width="719"/>
  <unicode hex="00D8"/>
  <outline>
    <contour>
      <point x="648" y="543" type="line"/>
      <point x="648" y="596"/>
      <point x="622" y="622"/>
      <point x="569" y="622" type="curve" smooth="yes"/>
      <point x="149" y="622" type="line" smooth="yes"/>
      <point x="96" y="622"/>
      <point x="70" y="596"/>
      <point x="70" y="543" type="curve" smooth="yes"/>
      <point x="70" y="79" type="line" smooth="yes"/>
      <point x="70" y="26"/>
      <point x="96" y="0"/>
      <point x="149" y="0" type="curve" smooth="yes"/>
      <point x="569" y="0" type="line" smooth="yes"/>
      <point x="622" y="0"/>
      <point x="648" y="26"/>
      <point x="648" y="79" type="curve" smooth="yes"/>
    </contour>
    <contour>
      <point x="462" y="89" type="line"/>
      <point x="462" y="63"/>
      <point x="457" y="58"/>
      <point x="431" y="58" type="curve" smooth="yes"/>
      <point x="286" y="58" type="line" smooth="yes"/>
      <point x="260" y="58"/>
      <point x="255" y="63"/>
      <point x="255" y="89" type="curve" smooth="yes"/>
      <point x="255" y="533" type="line" smooth="yes"/>
      <point x="255" y="559"/>
      <point x="260" y="564"/>
      <point x="286" y="564" type="curve" smooth="yes"/>
      <point x="431" y="564" type="line" smooth="yes"/>
      <point x="457" y="564"/>
      <point x="462" y="559"/>
      <point x="462" y="533" type="curve" smooth="yes"/>
    </contour>
    <contour>
      <point x="588" y="655" type="line"/>
      <point x="49" y="-33" type="line"/>
      <point x="136" y="-33" type="line"/>
      <point x="675" y="655" type="line"/>
    </contour>
  </outline>
</glyph>
<glyph name="Udieresis" format="1">
  <advance width="717"/>
  <unicode hex="00DC"/>
  <outline>
    <contour>
      <point x="455" y="622" type="line"/>
      <point x="455" y="90" type="line" smooth="yes"/>
      <point x="455" y="64"/>
      <point x="450" y="59"/>
      <point x="424" y="59" type="curve" smooth="yes"/>
      <point x="292" y="59" type="line" smooth="yes"/>
      <point x="266" y="59"/>
      <point x="261" y="64"/>
      <point x="261" y="90" type="curve" smooth="yes"/>
      <point x="261" y="622" type="line"/>
      <point x="68" y="622" type="line"/>
      <point x="68" y="79" type="line" smooth="yes"/>
      <point x="68" y="26"/>
      <point x="94" y="0"/>
      <point x="147" y="0" type="curve" smooth="yes"/>
      <point x="569" y="0" type="line" smooth="yes"/>
      <point x="622" y="0"/>
      <point x="648" y="26"/>
      <point x="648" y="79" type="curve" smooth="yes"/>
      <point x="648" y="622" type="line"/>
    </contour>
    <contour>
      <point x="109" y="789" type="line"/>
      <point x="109" y="669" type="line"/>
      <point x="305" y="669" type="line"/>
      <point x="305" y="789" type="line"/>
    </contour>
    <contour>
      <point x="406" y="789" type="line"/>
      <point x="406" y="669" type="line"/>
      <point x="603" y="669" type="line"/>
      <point x="603" y="789" type="line"/>
    </contour>
  </outline>
</glyph>
<glyph name="Thorn" format="1">
  <advance width="698"/>
  <unicode hex="00DE"/>
  <outline>
    <contour>
      <point x="456" y="192" type="line"/>
      <point x="456" y="166"/>
      <point x="451" y="161"/>
      <point x="425" y="161" type="curve" smooth="yes"/>
      <point x="145" y="161" type="line"/>
      <point x="145" y="102" type="line"/>
      <point x="570" y="102" type="line" smooth="yes"/>
      <point x="623" y="102"/>
      <point x="649" y="128"/>
      <point x="649" y="181" type="curve" smooth="yes"/>
      <point x="649" y="441" type="line" smooth="yes"/>
      <point x="649" y="494"/>
      <point x="623" y="520"/>
      <point x="570" y="520" type="curve" smooth="yes"/>
      <point x="141" y="520" type="line"/>
      <point x="141" y="461" type="line"/>
      <point x="425" y="461" type="line" smooth="yes"/>
      <point x="451" y="461"/>
      <point x="456" y="456"/>
      <point x="456" y="430" type="curve" smooth="yes"/>
    </contour>
    <contour>
      <point x="77" y="622" type="line"/>
      <point x="77" y="0" type="line"/>
      <point x="270" y="0" type="line"/>
      <point x="270" y="622" type="line"/>
    </contour>
  </outline>
</glyph>
<glyph name="germandbls" format="1">
  <advance width="902"/>
  <unicode hex="00DF"/>
  <outline>
    <contour>
      <point x="350" y="160" type="line"/>
      <point x="350" y="79" type="line" smooth="yes"/>
      <point x="350" y="26"/>
      <point x="376" y="0"/>
      <point x="429" y="0" type="curve" smooth="yes"/>
      <point x="790" y="0" type="line" smooth="yes"/>
      <point x="843" y="0"/>
      <point x="869" y="26"/>
      <point x="869" y="79" type="curve" smooth="yes"/>
      <point x="869" y="212" type="line" smooth="yes"/>
      <point x="869" y="265"/>
      <point x="843" y="291"/>
      <point x="790" y="291" type="curve" smooth="yes"/>
      <point x="564" y="291" type="line" smooth="yes"/>
      <point x="538" y="291"/>
      <point x="533" y="296"/>
      <point x="533" y="322" type="curve" smooth="yes"/>
      <point x="533" y="369" type="line" smooth="yes"/>
      <point x="533" y="395"/>
      <point x="538" y="400"/>
      <point x="564" y="400" type="curve" smooth="yes"/>
      <point x="734" y="400" type="line" smooth="yes"/>
      <point x="784" y="400"/>
      <point x="810" y="425"/>
      <point x="810" y="474" type="curve" smooth="yes"/>
      <point x="810" y="543" type="line" smooth="yes"/>
      <point x="810" y="596"/>
      <point x="784" y="622"/>
      <point x="731" y="622" type="curve" smooth="yes"/>
      <point x="156" y="622" type="line" smooth="yes"/>
      <point x="103" y="622"/>
      <point x="77" y="596"/>
      <point x="77" y="543" type="curve" smooth="yes"/>
      <point x="77" y="0" type="line"/>
      <point x="265" y="0" type="line"/>
      <point x="265" y="531" type="line" smooth="yes"/>
      <point x="265" y="557"/>
      <point x="270" y="562"/>
      <point x="296" y="562" type="curve" smooth="yes"/>
      <point x="582" y="562" type="line" smooth="yes"/>
      <point x="608" y="562"/>
      <point x="613" y="557"/>
      <point x="613" y="531" type="curve" smooth="yes"/>
      <point x="613" y="488" type="line" smooth="yes"/>
      <point x="613" y="463"/>
      <point x="608" y="459"/>
      <point x="580" y="459" type="curve" smooth="yes"/>
      <point x="431" y="459" type="line" smooth="yes"/>
      <point x="380" y="459"/>
      <point x="353" y="433"/>
      <point x="353" y="380" type="curve" smooth="yes"/>
      <point x="353" y="311" type="line" smooth="yes"/>
      <point x="353" y="258"/>
      <point x="379" y="232"/>
      <point x="432" y="232" type="curve" smooth="yes"/>
      <point x="655" y="232" type="line" smooth="yes"/>
      <point x="681" y="232"/>
      <point x="686" y="227"/>
      <point x="686" y="201" type="curve" smooth="yes"/>
      <point x="686" y="90" type="line" smooth="yes"/>
      <point x="686" y="64"/>
      <point x="681" y="59"/>
      <point x="655" y="59" type="curve" smooth="yes"/>
      <point x="564" y="59" type="line" smooth="yes"/>
      <point x="538" y="59"/>
      <point x="533" y="64"/>
      <point x="533" y="90" type="curve" smooth="yes"/>
      <point x="533" y="160" type="line"/>
    </contour>
  </outline>
</glyph>
<glyph name="ae" format="1">
  <advance width="1011"/>
  <unicode hex="00E6"/>
  <outline>
    <contour>
      <point x="442" y="289" type="line"/>
      <point x="60" y="201" type="line"/>
      <point x="244" y="178" type="line"/>
      <point x="470" y="231" type="line"/>
    </contour>
    <contour>
      <point x="60" y="201" type="line"/>
      <point x="60" y="79" type="line" smooth="yes"/>
      <point x="60" y="26"/>
      <point x="86" y="0"/>
      <point x="139" y="0" type="curve" smooth="yes"/>
      <point x="385" y="0" type="line" smooth="yes"/>
      <point x="461" y="0"/>
      <point x="484" y="13"/>
      <point x="492" y="37" type="curve"/>
      <point x="499" y="13"/>
      <point x="512" y="0"/>
      <point x="587" y="0" type="curve" smooth="yes"/>
      <point x="860" y="0" type="line" smooth="yes"/>
      <point x="913" y="0"/>
      <point x="939" y="26"/>
      <point x="939" y="79" type="curve" smooth="yes"/>
      <point x="939" y="153" type="line"/>
      <point x="760" y="153" type="line"/>
      <point x="760" y="90" type="line" smooth="yes"/>
      <point x="760" y="64"/>
      <point x="755" y="59"/>
      <point x="729" y="59" type="curve" smooth="yes"/>
      <point x="612" y="59" type="line" smooth="yes"/>
      <point x="586" y="59"/>
      <point x="581" y="64"/>
      <point x="581" y="90" type="curve" smooth="yes"/>
      <point x="581" y="395" type="line" smooth="yes"/>
      <point x="581" y="421"/>
      <point x="586" y="426"/>
      <point x="612" y="426" type="curve" smooth="yes"/>
      <point x="731" y="426" type="line" smooth="yes"/>
      <point x="757" y="426"/>
      <point x="762" y="421"/>
      <point x="762" y="395" type="curve" smooth="yes"/>
      <point x="762" y="223" type="line"/>
      <point x="941" y="223" type="line"/>
      <point x="941" y="406" type="line" smooth="yes"/>
      <point x="941" y="459"/>
      <point x="915" y="485"/>
      <point x="862" y="485" type="curve" smooth="yes"/>
      <point x="587" y="485" type="line" smooth="yes"/>
      <point x="512" y="485"/>
      <point x="499" y="472"/>
      <point x="492" y="448" type="curve"/>
      <point x="484" y="472"/>
      <point x="461" y="485"/>
      <point x="385" y="485" type="curve" smooth="yes"/>
      <point x="139" y="485" type="line" smooth="yes"/>
      <point x="86" y="485"/>
      <point x="60" y="459"/>
      <point x="60" y="406" type="curve" smooth="yes"/>
      <point x="60" y="303" type="line"/>
      <point x="244" y="303" type="line"/>
      <point x="244" y="396" type="line" smooth="yes"/>
      <point x="244" y="422"/>
      <point x="249" y="427"/>
      <point x="275" y="427" type="curve" smooth="yes"/>
      <point x="370" y="427" type="line" smooth="yes"/>
      <point x="395" y="427"/>
      <point x="402" y="422"/>
      <point x="402" y="397" type="curve" smooth="yes"/>
      <point x="402" y="90" type="line" smooth="yes"/>
      <point x="402" y="65"/>
      <point x="395" y="59"/>
      <point x="370" y="59" type="curve" smooth="yes"/>
      <point x="275" y="59" type="line" smooth="yes"/>
      <point x="249" y="59"/>
      <point x="244" y="64"/>
      <point x="244" y="90" type="curve" smooth="yes"/>
      <point x="244" y="178" type="line"/>
    </contour>
    <contour>
      <point x="937" y="278" type="line"/>
      <point x="493" y="278" type="line"/>
      <point x="493" y="219" type="line"/>
      <point x="937" y="219" type="line"/>
    </contour>
  </outline>
</glyph>
<glyph name="edieresis" format="1">
  <advance width="647"/>
  <unicode hex="00EB"/>
  <outline>
    <contour>
      <point x="280" y="652" type="line"/>
      <point x="84" y="652" type="line"/>
      <point x="84" y="532" type="line"/>
      <point x="280" y="532" type="line"/>
    </contour>
    <contour>
      <point x="578" y="652" type="line"/>
      <point x="381" y="652" type="line"/>
      <point x="381" y="532" type="line"/>
      <point x="578" y="532" type="line"/>
    </contour>
    <contour>
      <point x="135" y="485" type="line"/>
      <point x="82" y="485"/>
      <point x="56" y="459"/>
      <point x="56" y="406" type="curve" smooth="yes"/>
      <point x="56" y="79" type="line" smooth="yes"/>
      <point x="56" y="26"/>
      <point x="82" y="0"/>
      <point x="135" y="0" type="curve" smooth="yes"/>
      <point x="519" y="0" type="line" smooth="yes"/>
      <point x="572" y="0"/>
      <point x="598" y="26"/>
      <point x="598" y="79" type="curve" smooth="yes"/>
      <point x="598" y="154" type="line"/>
      <point x="420" y="154" type="line"/>
      <point x="420" y="90" type="line" smooth="yes"/>
      <point x="420" y="64"/>
      <point x="415" y="59"/>
      <point x="389" y="59" type="curve" smooth="yes"/>
      <point x="271" y="59" type="line" smooth="yes"/>
      <point x="245" y="59"/>
      <point x="240" y="64"/>
      <point x="240" y="90" type="curve" smooth="yes"/>
      <point x="240" y="219" type="line"/>
      <point x="599" y="219" type="line"/>
      <point x="599" y="406" type="line" smooth="yes"/>
      <point x="599" y="459"/>
      <point x="573" y="485"/>
      <point x="520" y="485" type="curve" smooth="yes"/>
    </contour>
    <contour>
      <point x="240" y="278" type="line"/>
      <point x="240" y="395" type="line" smooth="yes"/>
      <point x="240" y="421"/>
      <point x="245" y="426"/>
      <point x="271" y="426" type="curve" smooth="yes"/>
      <point x="390" y="426" type="line" smooth="yes"/>
      <point x="416" y="426"/>
      <point x="421" y="421"/>
      <point x="421" y="395" type="curve" smooth="yes"/>
      <point x="421" y="278" type="line"/>
    </contour>
  </outline>
</glyph>
<glyph name="igrave" format="1">
  <advance width="328"/>
  <unicode hex="00EC"/>
  <outline>
    <contour>
      <point x="256" y="0" type="line"/>
      <point x="256" y="485" type="line"/>
      <point x="72" y="485" type="line"/>
      <point x="72" y="0" type="line"/>
    </contour>
    <component base="grave" xOffset="-251" yOffset="26"/>
  </outline>
</glyph>
<glyph name="iacute" format="1">
  <advance width="328"/>
  <unicode hex="00ED"/>
  <outline>
    <contour>
      <point x="256" y="0" type="line"/>
      <point x="256" y="485" type="line"/>
      <point x="72" y="485" type="line"/>
      <point x="72" y="0" type="line"/>
    </contour>
    <component base="acute" xOffset="-73" yOffset="26"/>
  </outline>
</glyph>
<glyph name="icircumflex" format="1">
  <advance width="328"/>
  <unicode hex="00EE"/>
  <outline>
    <contour>
      <point x="256" y="0" type="line"/>
      <point x="256" y="484" type="line"/>
      <point x="72" y="484" type="line"/>
      <point x="72" y="0" type="line"/>
    </contour>
    <component base="circumflex" xOffset="-167" yOffset="26"/>
  </outline>
</glyph>
<glyph name="idieresis" format="1">
  <advance width="328"/>
  <unicode hex="00EF"/>
  <outline>
    <contour>
      <point x="256" y="0" type="line"/>
      <point x="256" y="484" type="line"/>
      <point x="72" y="484" type="line"/>
      <point x="72" y="0" type="line"/>
    </contour>
    <component base="dieresis" xOffset="-169" yOffset="7"/>
  </outline>
</glyph>
<glyph name="eth" format="1">
  <advance width="693"/>
  <unicode hex="00F0"/>
  <outline>
    <contour>
      <point x="248" y="90" type="line"/>
      <point x="248" y="64"/>
      <point x="253" y="59"/>
      <point x="279" y="59" type="curve" smooth="yes"/>
      <point x="384" y="59" type="line"/>
      <point x="384" y="0" type="line"/>
      <point x="143" y="0" type="line" smooth="yes"/>
      <point x="90" y="0"/>
      <point x="64" y="26"/>
      <point x="64" y="79" type="curve" smooth="yes"/>
      <point x="64" y="296" type="line" smooth="yes"/>
      <point x="64" y="349"/>
      <point x="90" y="375"/>
      <point x="143" y="375" type="curve" smooth="yes"/>
      <point x="483" y="375" type="line"/>
      <point x="483" y="316" type="line"/>
      <point x="279" y="316" type="line" smooth="yes"/>
      <point x="253" y="316"/>
      <point x="248" y="311"/>
      <point x="248" y="285" type="curve" smooth="yes"/>
    </contour>
    <contour>
      <point x="438" y="308" type="line"/>
      <point x="438" y="476"/>
      <point x="235" y="581"/>
      <point x="155" y="622" type="curve"/>
      <point x="407" y="622" type="line"/>
      <point x="474" y="582"/>
      <point x="622" y="474"/>
      <point x="622" y="305" type="curve" smooth="yes"/>
      <point x="622" y="79" type="line" smooth="yes"/>
      <point x="622" y="26"/>
      <point x="596" y="0"/>
      <point x="543" y="0" type="curve" smooth="yes"/>
      <point x="372" y="0" type="line"/>
      <point x="372" y="59" type="line"/>
      <point x="407" y="59" type="line" smooth="yes"/>
      <point x="433" y="59"/>
      <point x="438" y="64"/>
      <point x="438" y="90" type="curve" smooth="yes"/>
    </contour>
    <contour>
      <point x="206" y="436" type="line"/>
      <point x="206" y="498" type="line"/>
      <point x="604" y="589" type="line"/>
      <point x="604" y="527" type="line"/>
    </contour>
  </outline>
</glyph>
<glyph name="odieresis" format="1">
  <advance width="657"/>
  <unicode hex="00F6"/>
  <outline>
    <contour>
      <point x="139" y="485" type="line"/>
      <point x="86" y="485"/>
      <point x="60" y="459"/>
      <point x="60" y="406" type="curve" smooth="yes"/>
      <point x="60" y="79" type="line" smooth="yes"/>
      <point x="60" y="26"/>
      <point x="86" y="0"/>
      <point x="139" y="0" type="curve" smooth="yes"/>
      <point x="518" y="0" type="line" smooth="yes"/>
      <point x="571" y="0"/>
      <point x="597" y="26"/>
      <point x="597" y="79" type="curve" smooth="yes"/>
      <point x="597" y="406" type="line" smooth="yes"/>
      <point x="597" y="459"/>
      <point x="571" y="485"/>
      <point x="518" y="485" type="curve" smooth="yes"/>
    </contour>
    <contour>
      <point x="413" y="395" type="curve" smooth="yes"/>
      <point x="413" y="90" type="line" smooth="yes"/>
      <point x="413" y="64"/>
      <point x="408" y="59"/>
      <point x="382" y="59" type="curve" smooth="yes"/>
      <point x="275" y="59" type="line" smooth="yes"/>
      <point x="249" y="59"/>
      <point x="244" y="64"/>
      <point x="244" y="90" type="curve" smooth="yes"/>
      <point x="244" y="395" type="line" smooth="yes"/>
      <point x="244" y="421"/>
      <point x="249" y="426"/>
      <point x="275" y="426" type="curve" smooth="yes"/>
      <point x="382" y="426" type="line" smooth="yes"/>
      <point x="408" y="426"/>
      <point x="413" y="421"/>
    </contour>
    <contour>
      <point x="85" y="652" type="line"/>
      <point x="85" y="532" type="line"/>
      <point x="281" y="532" type="line"/>
      <point x="281" y="652" type="line"/>
    </contour>
    <contour>
      <point x="382" y="652" type="line"/>
      <point x="382" y="532" type="line"/>
      <point x="579" y="532" type="line"/>
      <point x="579" y="652" type="line"/>
    </contour>
  </outline>
</glyph>
<glyph name="divide" format="1">
  <advance width="711"/>
  <unicode hex="00F7"/>
  <outline>
    <contour>
      <point x="42" y="253" type="line"/>
      <point x="651" y="253" type="line"/>
      <point x="651" y="367" type="line"/>
      <point x="42" y="367" type="line"/>
    </contour>
    <contour>
      <point x="251" y="514" type="line"/>
      <point x="251" y="420" type="line"/>
      <point x="442" y="420" type="line"/>
      <point x="442" y="514" type="line"/>
    </contour>
    <contour>
      <point x="251" y="200" type="line"/>
      <point x="251" y="106" type="line"/>
      <point x="442" y="106" type="line"/>
      <point x="442" y="200" type="line"/>
    </contour>
  </outline>
</glyph>
<glyph name="oslash" format="1">
  <advance width="664"/>
  <unicode hex="00F8"/>
  <outline>
    <contour>
      <point x="600" y="406" type="line"/>
      <point x="600" y="459"/>
      <point x="574" y="485"/>
      <point x="521" y="485" type="curve" smooth="yes"/>
      <point x="143" y="485" type="line" smooth="yes"/>
      <point x="90" y="485"/>
      <point x="64" y="459"/>
      <point x="64" y="406" type="curve" smooth="yes"/>
      <point x="64" y="79" type="line" smooth="yes"/>
      <point x="64" y="26"/>
      <point x="90" y="0"/>
      <point x="143" y="0" type="curve" smooth="yes"/>
      <point x="521" y="0" type="line" smooth="yes"/>
      <point x="574" y="0"/>
      <point x="600" y="26"/>
      <point x="600" y="79" type="curve" smooth="yes"/>
    </contour>
    <contour>
      <point x="424" y="89" type="line"/>
      <point x="424" y="62"/>
      <point x="419" y="57"/>
      <point x="393" y="57" type="curve" smooth="yes"/>
      <point x="272" y="57" type="line" smooth="yes"/>
      <point x="245" y="57"/>
      <point x="240" y="62"/>
      <point x="240" y="89" type="curve" smooth="yes"/>
      <point x="240" y="397" type="line" smooth="yes"/>
      <point x="240" y="423"/>
      <point x="245" y="428"/>
      <point x="272" y="428" type="curve" smooth="yes"/>
      <point x="393" y="428" type="line" smooth="yes"/>
      <point x="419" y="428"/>
      <point x="424" y="423"/>
      <point x="424" y="397" type="curve" smooth="yes"/>
    </contour>
    <contour>
      <point x="540" y="517" type="line"/>
      <point x="39" y="-33" type="line"/>
      <point x="129" y="-33" type="line"/>
      <point x="629" y="517" type="line"/>
    </contour>
  </outline>
</glyph>
<glyph name="udieresis" format="1">
  <advance width="677"/>
  <unicode hex="00FC"/>
  <outline>
    <contour>
      <point x="60" y="485" type="line"/>
      <point x="60" y="79" type="line" smooth="yes"/>
      <point x="60" y="26"/>
      <point x="86" y="0"/>
      <point x="139" y="0" type="curve" smooth="yes"/>
      <point x="353" y="0" type="line" smooth="yes"/>
      <point x="407" y="0"/>
      <point x="417" y="29"/>
      <point x="417" y="81" type="curve" smooth="yes"/>
      <point x="417" y="119" type="line"/>
      <point x="410" y="119" type="line"/>
      <point x="410" y="90" type="line" smooth="yes"/>
      <point x="410" y="67"/>
      <point x="398" y="59"/>
      <point x="373" y="59" type="curve" smooth="yes"/>
      <point x="275" y="59" type="line" smooth="yes"/>
      <point x="249" y="59"/>
      <point x="244" y="64"/>
      <point x="244" y="90" type="curve" smooth="yes"/>
      <point x="244" y="485" type="line"/>
    </contour>
    <contour>
      <point x="410" y="485" type="line"/>
      <point x="410" y="0" type="line"/>
      <point x="594" y="0" type="line"/>
      <point x="594" y="485" type="line"/>
    </contour>
    <contour>
      <point x="80" y="652" type="line"/>
      <point x="80" y="532" type="line"/>
      <point x="277" y="532" type="line"/>
      <point x="277" y="652" type="line"/>
    </contour>
    <contour>
      <point x="378" y="652" type="line"/>
      <point x="378" y="532" type="line"/>
      <point x="574" y="532" type="line"/>
      <point x="574" y="652" type="line"/>
    </contour>
  </outline>
</glyph>
<glyph name="thorn" format="1">
  <advance width="662"/>
  <unicode hex="00FE"/>
  <outline>
    <contour>
      <point x="601" y="240" type="line"/>
      <point x="601" y="415" type="line" smooth="yes"/>
      <point x="601" y="468"/>
      <point x="575" y="494"/>
      <point x="522" y="494" type="curve" smooth="yes"/>
      <point x="308" y="494" type="line" smooth="yes"/>
      <point x="255" y="494"/>
      <point x="244" y="465"/>
      <point x="244" y="413" type="curve" smooth="yes"/>
      <point x="244" y="375" type="line"/>
      <point x="252" y="375" type="line"/>
      <point x="252" y="404" type="line" smooth="yes"/>
      <point x="252" y="427"/>
      <point x="263" y="435"/>
      <point x="288" y="435" type="curve" smooth="yes"/>
      <point x="386" y="435" type="line" smooth="yes"/>
      <point x="412" y="435"/>
      <point x="417" y="430"/>
      <point x="417" y="404" type="curve" smooth="yes"/>
      <point x="417" y="240" type="line"/>
    </contour>
    <contour>
      <point x="252" y="-141" type="line"/>
      <point x="252" y="409" type="line"/>
      <point x="248" y="413" type="line"/>
      <point x="248" y="669" type="line"/>
      <point x="68" y="669" type="line"/>
      <point x="68" y="-141" type="line"/>
    </contour>
    <contour>
      <point x="417" y="264" type="line"/>
      <point x="417" y="100" type="line" smooth="yes"/>
      <point x="417" y="74"/>
      <point x="412" y="69"/>
      <point x="386" y="69" type="curve" smooth="yes"/>
      <point x="288" y="69" type="line" smooth="yes"/>
      <point x="263" y="69"/>
      <point x="252" y="78"/>
      <point x="252" y="100" type="curve" smooth="yes"/>
      <point x="252" y="125" type="line"/>
      <point x="244" y="125" type="line"/>
      <point x="244" y="91" type="line" smooth="yes"/>
      <point x="244" y="39"/>
      <point x="255" y="10"/>
      <point x="308" y="10" type="curve" smooth="yes"/>
      <point x="522" y="10" type="line" smooth="yes"/>
      <point x="575" y="10"/>
      <point x="601" y="36"/>
      <point x="601" y="89" type="curve" smooth="yes"/>
      <point x="601" y="264" type="line"/>
    </contour>
  </outline>
</glyph>
<glyph name="ydieresis" format="1">
  <advance width="658"/>
  <unicode hex="00FF"/>
  <outline>
    <contour>
      <point x="13" y="485" type="line"/>
      <point x="205" y="0" type="line"/>
      <point x="275" y="0" type="line"/>
      <point x="260" y="-34" type="line" smooth="yes"/>
      <point x="246" y="-67"/>
      <point x="225" y="-82"/>
      <point x="175" y="-82" type="curve" smooth="yes"/>
      <point x="109" y="-82" type="line"/>
      <point x="109" y="-141" type="line"/>
      <point x="236" y="-141" type="line" smooth="yes"/>
      <point x="361" y="-141"/>
      <point x="393" y="-96"/>
      <point x="424" y="-16" type="curve" smooth="yes"/>
      <point x="623" y="485" type="line"/>
      <point x="439" y="485" type="line"/>
      <point x="320" y="119" type="line"/>
      <point x="204" y="485" type="line"/>
    </contour>
    <contour>
      <point x="376" y="651" type="line"/>
      <point x="376" y="531" type="line"/>
      <point x="573" y="531" type="line"/>
      <point x="573" y="651" type="line"/>
    </contour>
    <contour>
      <point x="79" y="651" type="line"/>
      <point x="79" y="531" type="line"/>
      <point x="275" y="531" type="line"/>
      <point x="275" y="651" type="line"/>
    </contour>
  </outline>
</glyph>
<glyph name="dcaron" format="1">
  <advance width="694"/>
  <unicode hex="010F"/>
  <outline>
    <contour>
      <point x="405" y="457" type="line"/>
      <point x="396" y="476"/>
      <point x="379" y="485"/>
      <point x="348" y="485" type="curve" smooth="yes"/>
      <point x="135" y="485" type="line" smooth="yes"/>
      <point x="82" y="485"/>
      <point x="56" y="459"/>
      <point x="56" y="406" type="curve" smooth="yes"/>
      <point x="56" y="79" type="line" smooth="yes"/>
      <point x="56" y="26"/>
      <point x="82" y="0"/>
      <point x="135" y="0" type="curve" smooth="yes"/>
      <point x="348" y="0" type="line" smooth="yes"/>
      <point x="379" y="0"/>
      <point x="396" y="9"/>
      <point x="405" y="28" type="curve"/>
      <point x="405" y="0" type="line"/>
      <point x="589" y="0" type="line"/>
      <point x="589" y="669" type="line"/>
      <point x="405" y="669" type="line"/>
    </contour>
    <contour>
      <point x="659" y="669" type="line"/>
      <point x="659" y="477" type="line"/>
      <point x="707" y="477" type="line"/>
      <point x="798" y="606" type="line"/>
      <point x="798" y="669" type="line"/>
    </contour>
    <contour>
      <point x="271" y="59" type="line"/>
      <point x="245" y="59"/>
      <point x="240" y="64"/>
      <point x="240" y="90" type="curve" smooth="yes"/>
      <point x="240" y="395" type="line" smooth="yes"/>
      <point x="240" y="421"/>
      <point x="245" y="426"/>
      <point x="271" y="426" type="curve" smooth="yes"/>
      <point x="369" y="426" type="line" smooth="yes"/>
      <point x="394" y="426"/>
      <point x="405" y="418"/>
      <point x="405" y="395" type="curve" smooth="yes"/>
      <point x="405" y="90" type="line" smooth="yes"/>
      <point x="405" y="68"/>
      <point x="394" y="59"/>
      <point x="369" y="59" type="curve" smooth="yes"/>
    </contour>
  </outline>
</glyph>
<glyph name="Dcroat" format="1">
  <advance width="756"/>
  <unicode hex="0110"/>
  <outline>
    <contour>
      <point x="490" y="374" type="line"/>
      <point x="683" y="374" type="line"/>
      <point x="683" y="543" type="line" smooth="yes"/>
      <point x="683" y="596"/>
      <point x="657" y="622"/>
      <point x="604" y="622" type="curve" smooth="yes"/>
      <point x="172" y="622" type="line"/>
      <point x="172" y="563" type="line"/>
      <point x="459" y="563" type="line" smooth="yes"/>
      <point x="485" y="563"/>
      <point x="490" y="558"/>
      <point x="490" y="532" type="curve" smooth="yes"/>
    </contour>
    <contour>
      <point x="490" y="90" type="line"/>
      <point x="490" y="64"/>
      <point x="485" y="59"/>
      <point x="459" y="59" type="curve" smooth="yes"/>
      <point x="172" y="59" type="line"/>
      <point x="172" y="0" type="line"/>
      <point x="604" y="0" type="line" smooth="yes"/>
      <point x="657" y="0"/>
      <point x="683" y="26"/>
      <point x="683" y="79" type="curve" smooth="yes"/>
      <point x="683" y="390" type="line"/>
      <point x="490" y="390" type="line"/>
    </contour>
    <contour>
      <point x="104" y="622" type="line"/>
      <point x="104" y="0" type="line"/>
      <point x="297" y="0" type="line"/>
      <point x="297" y="622" type="line"/>
    </contour>
    <contour>
      <point x="417" y="346" type="line"/>
      <point x="36" y="346" type="line"/>
      <point x="36" y="284" type="line"/>
      <point x="417" y="284" type="line"/>
    </contour>
  </outline>
</glyph>
<glyph name="dcroat" format="1">
  <advance width="662"/>
  <unicode hex="0111"/>
  <outline>
    <contour>
      <point x="244" y="230" type="line"/>
      <point x="244" y="395" type="line" smooth="yes"/>
      <point x="244" y="421"/>
      <point x="249" y="426"/>
      <point x="275" y="426" type="curve" smooth="yes"/>
      <point x="373" y="426" type="line" smooth="yes"/>
      <point x="398" y="426"/>
      <point x="410" y="418"/>
      <point x="410" y="395" type="curve" smooth="yes"/>
      <point x="410" y="366" type="line"/>
      <point x="417" y="366" type="line"/>
      <point x="417" y="404" type="line" smooth="yes"/>
      <point x="417" y="456"/>
      <point x="407" y="485"/>
      <point x="353" y="485" type="curve" smooth="yes"/>
      <point x="139" y="485" type="line" smooth="yes"/>
      <point x="86" y="485"/>
      <point x="60" y="459"/>
      <point x="60" y="406" type="curve" smooth="yes"/>
      <point x="60" y="230" type="line"/>
    </contour>
    <contour>
      <point x="410" y="669" type="line"/>
      <point x="410" y="0" type="line"/>
      <point x="594" y="0" type="line"/>
      <point x="594" y="669" type="line"/>
    </contour>
    <contour>
      <point x="60" y="255" type="line"/>
      <point x="60" y="79" type="line" smooth="yes"/>
      <point x="60" y="26"/>
      <point x="86" y="0"/>
      <point x="139" y="0" type="curve" smooth="yes"/>
      <point x="353" y="0" type="line" smooth="yes"/>
      <point x="407" y="0"/>
      <point x="417" y="29"/>
      <point x="417" y="81" type="curve" smooth="yes"/>
      <point x="417" y="115" type="line"/>
      <point x="410" y="115" type="line"/>
      <point x="410" y="90" type="line" smooth="yes"/>
      <point x="410" y="68"/>
      <point x="398" y="59"/>
      <point x="373" y="59" type="curve" smooth="yes"/>
      <point x="275" y="59" type="line" smooth="yes"/>
      <point x="249" y="59"/>
      <point x="244" y="64"/>
      <point x="244" y="90" type="curve" smooth="yes"/>
      <point x="244" y="255" type="line"/>
    </contour>
    <contour>
      <point x="663" y="599" type="line"/>
      <point x="260" y="599" type="line"/>
      <point x="260" y="540" type="line"/>
      <point x="663" y="540" type="line"/>
    </contour>
  </outline>
</glyph>
<glyph name="gcommaaccent" format="1">
  <advance width="654"/>
  <unicode hex="0123"/>
  <outline>
    <contour>
      <point x="387" y="749" type="line"/>
      <point x="261" y="601" type="line"/>
      <point x="261" y="532" type="line"/>
      <point x="445" y="532" type="line"/>
      <point x="445" y="749" type="line"/>
    </contour>
    <component base="g"/>
  </outline>
</glyph>
<glyph name="imacron" format="1">
  <advance width="328"/>
  <unicode hex="012B"/>
  <outline>
    <contour>
      <point x="256" y="0" type="line"/>
      <point x="256" y="485" type="line"/>
      <point x="72" y="485" type="line"/>
      <point x="72" y="0" type="line"/>
    </contour>
    <component base="macron" xOffset="-167" yOffset="-12"/>
  </outline>
</glyph>
<glyph name="Idotaccent" format="1">
  <advance width="333"/>
  <unicode hex="0130"/>
  <outline>
    <contour>
      <point x="72" y="572" type="line"/>
      <point x="72" y="0" type="line"/>
      <point x="271" y="0" type="line"/>
      <point x="271" y="572" type="line"/>
    </contour>
    <contour>
      <point x="74" y="742" type="line"/>
      <point x="74" y="619" type="line"/>
      <point x="265" y="619" type="line"/>
      <point x="265" y="742" type="line"/>
    </contour>
  </outline>
</glyph>
<glyph name="dotlessi" format="1">
  <advance width="328"/>
  <unicode hex="0131"/>
  <outline>
    <contour>
      <point x="71" y="485" type="line"/>
      <point x="71" y="0" type="line"/>
      <point x="255" y="0" type="line"/>
      <point x="255" y="485" type="line"/>
    </contour>
  </outline>
</glyph>
<glyph name="Lcaron" format="1">
  <advance width="568"/>
  <unicode hex="013D"/>
  <outline>
    <contour>
      <point x="336" y="622" type="line"/>
      <point x="336" y="430" type="line"/>
      <point x="384" y="430" type="line"/>
      <point x="475" y="559" type="line"/>
      <point x="475" y="622" type="line"/>
    </contour>
    <component base="L" xOffset="-3"/>
  </outline>
</glyph>
<glyph name="lcaron" format="1">
  <advance width="373"/>
  <unicode hex="013E"/>
  <outline>
    <contour>
      <point x="72" y="669" type="line"/>
      <point x="72" y="0" type="line"/>
      <point x="256" y="0" type="line"/>
      <point x="256" y="669" type="line"/>
    </contour>
    <contour>
      <point x="326" y="669" type="line"/>
      <point x="326" y="476" type="line"/>
      <point x="374" y="476" type="line"/>
      <point x="466" y="606" type="line"/>
      <point x="466" y="669" type="line"/>
    </contour>
  </outline>
</glyph>
<glyph name="Lslash" format="1">
  <advance width="585"/>
  <unicode hex="0141"/>
  <outline>
    <contour>
      <point x="430" y="419" type="line"/>
      <point x="-43" y="262" type="line"/>
      <point x="-43" y="194" type="line"/>
      <point x="430" y="351" type="line"/>
    </contour>
    <component base="L" xOffset="6"/>
  </outline>
</glyph>
<glyph name="lslash" format="1">
  <advance width="337"/>
  <unicode hex="0142"/>
  <outline>
    <contour>
      <point x="397" y="455" type="line"/>
      <point x="-53" y="305" type="line"/>
      <point x="-53" y="238" type="line"/>
      <point x="397" y="387" type="line"/>
    </contour>
    <component base="l" xOffset="2"/>
  </outline>
</glyph>
<glyph name="Ohungarumlaut" format="1">
  <advance width="690"/>
  <unicode hex="0150"/>
  <outline>
    <contour>
      <point x="145" y="622" type="line"/>
      <point x="92" y="622"/>
      <point x="66" y="596"/>
      <point x="66" y="543" type="curve" smooth="yes"/>
      <point x="66" y="79" type="line" smooth="yes"/>
      <point x="66" y="26"/>
      <point x="92" y="0"/>
      <point x="145" y="0" type="curve" smooth="yes"/>
      <point x="560" y="0" type="line" smooth="yes"/>
      <point x="613" y="0"/>
      <point x="639" y="26"/>
      <point x="639" y="79" type="curve" smooth="yes"/>
      <point x="639" y="543" type="line" smooth="yes"/>
      <point x="639" y="596"/>
      <point x="613" y="622"/>
      <point x="560" y="622" type="curve" smooth="yes"/>
    </contour>
    <contour>
      <point x="446" y="532" type="curve" smooth="yes"/>
      <point x="446" y="90" type="line" smooth="yes"/>
      <point x="446" y="64"/>
      <point x="441" y="59"/>
      <point x="415" y="59" type="curve" smooth="yes"/>
      <point x="290" y="59" type="line" smooth="yes"/>
      <point x="264" y="59"/>
      <point x="259" y="64"/>
      <point x="259" y="90" type="curve" smooth="yes"/>
      <point x="259" y="532" type="line" smooth="yes"/>
      <point x="259" y="558"/>
      <point x="264" y="563"/>
      <point x="290" y="563" type="curve" smooth="yes"/>
      <point x="415" y="563" type="line" smooth="yes"/>
      <point x="441" y="563"/>
      <point x="446" y="558"/>
    </contour>
    <contour>
      <point x="319" y="828" type="line"/>
      <point x="178" y="670" type="line"/>
      <point x="312" y="670" type="line"/>
      <point x="488" y="828" type="line"/>
    </contour>
    <contour>
      <point x="565" y="828" type="line"/>
      <point x="418" y="670" type="line"/>
      <point x="552" y="670" type="line"/>
      <point x="734" y="828" type="line"/>
    </contour>
  </outline>
</glyph>
<glyph name="ohungarumlaut" format="1">
  <advance width="657"/>
  <unicode hex="0151"/>
  <outline>
    <contour>
      <point x="139" y="485" type="line"/>
      <point x="86" y="485"/>
      <point x="60" y="459"/>
      <point x="60" y="406" type="curve" smooth="yes"/>
      <point x="60" y="79" type="line" smooth="yes"/>
      <point x="60" y="26"/>
      <point x="86" y="0"/>
      <point x="139" y="0" type="curve" smooth="yes"/>
      <point x="518" y="0" type="line" smooth="yes"/>
      <point x="571" y="0"/>
      <point x="597" y="26"/>
      <point x="597" y="79" type="curve" smooth="yes"/>
      <point x="597" y="406" type="line" smooth="yes"/>
      <point x="597" y="459"/>
      <point x="571" y="485"/>
      <point x="518" y="485" type="curve" smooth="yes"/>
    </contour>
    <contour>
      <point x="413" y="395" type="curve" smooth="yes"/>
      <point x="413" y="90" type="line" smooth="yes"/>
      <point x="413" y="64"/>
      <point x="408" y="59"/>
      <point x="382" y="59" type="curve" smooth="yes"/>
      <point x="275" y="59" type="line" smooth="yes"/>
      <point x="249" y="59"/>
      <point x="244" y="64"/>
      <point x="244" y="90" type="curve" smooth="yes"/>
      <point x="244" y="395" type="line" smooth="yes"/>
      <point x="244" y="421"/>
      <point x="249" y="426"/>
      <point x="275" y="426" type="curve" smooth="yes"/>
      <point x="382" y="426" type="line" smooth="yes"/>
      <point x="408" y="426"/>
      <point x="413" y="421"/>
    </contour>
    <contour>
      <point x="291" y="690" type="line"/>
      <point x="150" y="532" type="line"/>
      <point x="284" y="532" type="line"/>
      <point x="460" y="690" type="line"/>
    </contour>
    <contour>
      <point x="538" y="690" type="line"/>
      <point x="390" y="532" type="line"/>
      <point x="524" y="532" type="line"/>
      <point x="706" y="690" type="line"/>
    </contour>
  </outline>
</glyph>
<glyph name="OE" format="1">
  <advance width="989"/>
  <unicode hex="0152"/>
  <outline>
    <contour>
      <point x="559" y="516" type="line"/>
      <point x="559" y="576"/>
      <point x="527" y="622"/>
      <point x="442" y="622" type="curve" smooth="yes"/>
      <point x="147" y="622" type="line" smooth="yes"/>
      <point x="94" y="622"/>
      <point x="68" y="596"/>
      <point x="68" y="543" type="curve" smooth="yes"/>
      <point x="68" y="79" type="line" smooth="yes"/>
      <point x="68" y="26"/>
      <point x="94" y="0"/>
      <point x="147" y="0" type="curve" smooth="yes"/>
      <point x="442" y="0" type="line" smooth="yes"/>
      <point x="528" y="0"/>
      <point x="559" y="46"/>
      <point x="559" y="106" type="curve" smooth="yes"/>
    </contour>
    <contour>
      <point x="455" y="90" type="line"/>
      <point x="455" y="64"/>
      <point x="450" y="59"/>
      <point x="424" y="59" type="curve" smooth="yes"/>
      <point x="292" y="59" type="line" smooth="yes"/>
      <point x="266" y="59"/>
      <point x="261" y="64"/>
      <point x="261" y="90" type="curve" smooth="yes"/>
      <point x="261" y="532" type="line" smooth="yes"/>
      <point x="261" y="558"/>
      <point x="266" y="563"/>
      <point x="292" y="563" type="curve" smooth="yes"/>
      <point x="424" y="563" type="line" smooth="yes"/>
      <point x="450" y="563"/>
      <point x="455" y="558"/>
      <point x="455" y="532" type="curve" smooth="yes"/>
    </contour>
    <contour>
      <point x="507" y="622" type="line"/>
      <point x="507" y="0" type="line"/>
      <point x="650" y="0" type="line"/>
      <point x="650" y="622" type="line"/>
    </contour>
    <contour>
      <point x="899" y="348" type="line"/>
      <point x="562" y="348" type="line"/>
      <point x="562" y="289" type="line"/>
      <point x="899" y="289" type="line"/>
    </contour>
    <contour>
      <point x="936" y="622" type="line"/>
      <point x="523" y="622" type="line"/>
      <point x="523" y="563" type="line"/>
      <point x="936" y="563" type="line"/>
    </contour>
    <contour>
      <point x="949" y="59" type="line"/>
      <point x="523" y="59" type="line"/>
      <point x="523" y="0" type="line"/>
      <point x="949" y="0" type="line"/>
    </contour>
  </outline>
</glyph>
<glyph name="oe" format="1">
  <advance width="995"/>
  <unicode hex="0153"/>
  <outline>
    <contour>
      <point x="61" y="79" type="line"/>
      <point x="61" y="26"/>
      <point x="87" y="0"/>
      <point x="140" y="0" type="curve" smooth="yes"/>
      <point x="388" y="0" type="line" smooth="yes"/>
      <point x="463" y="0"/>
      <point x="486" y="13"/>
      <point x="494" y="37" type="curve"/>
      <point x="501" y="13"/>
      <point x="515" y="0"/>
      <point x="589" y="0" type="curve" smooth="yes"/>
      <point x="864" y="0" type="line" smooth="yes"/>
      <point x="917" y="0"/>
      <point x="943" y="26"/>
      <point x="943" y="79" type="curve" smooth="yes"/>
      <point x="943" y="154" type="line"/>
      <point x="765" y="154" type="line"/>
      <point x="765" y="90" type="line" smooth="yes"/>
      <point x="765" y="64"/>
      <point x="760" y="59"/>
      <point x="734" y="59" type="curve" smooth="yes"/>
      <point x="623" y="59" type="line" smooth="yes"/>
      <point x="597" y="59"/>
      <point x="592" y="64"/>
      <point x="592" y="90" type="curve" smooth="yes"/>
      <point x="592" y="395" type="line" smooth="yes"/>
      <point x="592" y="421"/>
      <point x="597" y="426"/>
      <point x="623" y="426" type="curve" smooth="yes"/>
      <point x="735" y="426" type="line" smooth="yes"/>
      <point x="761" y="426"/>
      <point x="766" y="421"/>
      <point x="766" y="395" type="curve" smooth="yes"/>
      <point x="766" y="245" type="line"/>
      <point x="944" y="245" type="line"/>
      <point x="944" y="406" type="line" smooth="yes"/>
      <point x="944" y="459"/>
      <point x="918" y="485"/>
      <point x="865" y="485" type="curve" smooth="yes"/>
      <point x="591" y="485" type="line" smooth="yes"/>
      <point x="516" y="485"/>
      <point x="502" y="472"/>
      <point x="495" y="448" type="curve"/>
      <point x="487" y="472"/>
      <point x="464" y="485"/>
      <point x="389" y="485" type="curve" smooth="yes"/>
      <point x="140" y="485" type="line" smooth="yes"/>
      <point x="87" y="485"/>
      <point x="61" y="459"/>
      <point x="61" y="406" type="curve" smooth="yes"/>
    </contour>
    <contour>
      <point x="245" y="395" type="line"/>
      <point x="245" y="421"/>
      <point x="250" y="426"/>
      <point x="276" y="426" type="curve" smooth="yes"/>
      <point x="377" y="426" type="line" smooth="yes"/>
      <point x="401" y="426"/>
      <point x="409" y="420"/>
      <point x="409" y="395" type="curve" smooth="yes"/>
      <point x="409" y="90" type="line" smooth="yes"/>
      <point x="409" y="65"/>
      <point x="401" y="59"/>
      <point x="377" y="59" type="curve" smooth="yes"/>
      <point x="276" y="59" type="line" smooth="yes"/>
      <point x="250" y="59"/>
      <point x="245" y="64"/>
      <point x="245" y="90" type="curve" smooth="yes"/>
    </contour>
    <contour>
      <point x="944" y="278" type="line"/>
      <point x="499" y="278" type="line"/>
      <point x="499" y="219" type="line"/>
      <point x="944" y="219" type="line"/>
    </contour>
  </outline>
</glyph>
